{"glyphs":{"0":{"ha":758,"x_min":75,"x_max":675,"o":"m 619 882 l 627 873 l 629 869 l 633 865 l 636 861 l 639 856 l 642 852 l 644 847 l 646 842 l 648 838 l 651 833 l 653 827 l 655 822 l 658 817 l 660 811 l 662 805 l 664 800 l 666 793 l 667 787 l 669 782 l 670 776 l 671 770 l 672 764 l 673 758 l 673 751 l 673 745 l 673 739 l 674 732 l 674 726 l 675 720 l 675 713 l 675 705 l 673 217 l 673 211 l 673 208 l 673 205 l 672 193 l 671 186 l 671 184 l 671 180 l 670 178 l 670 174 l 669 172 l 669 169 l 668 166 l 668 165 l 668 164 l 668 163 l 667 161 l 667 158 l 666 155 l 665 155 l 665 154 l 665 153 l 665 150 l 664 150 l 664 149 l 664 147 l 662 142 l 660 138 l 659 132 l 656 127 l 654 122 l 652 117 l 650 111 l 647 106 l 646 103 l 644 100 l 644 99 l 643 98 l 642 95 l 640 93 l 638 90 l 637 89 l 637 87 l 635 85 l 635 84 l 633 83 l 632 81 l 631 79 l 631 78 l 629 76 l 627 75 l 627 73 l 625 71 l 624 70 l 623 69 l 621 67 l 621 66 l 619 65 l 617 63 l 616 62 l 615 60 l 613 58 l 609 55 l 606 51 l 601 47 l 597 43 l 596 43 l 595 41 l 593 40 l 589 37 l 586 35 l 584 33 l 582 31 l 579 30 l 577 28 l 576 28 l 574 27 l 569 24 l 566 22 l 564 21 l 558 18 l 552 16 l 549 15 l 547 14 l 546 14 l 543 12 l 540 12 l 537 10 l 534 9 l 531 9 l 528 7 l 526 7 l 524 6 l 521 5 l 519 5 l 517 5 l 515 4 l 513 4 l 511 3 l 509 3 l 507 3 l 507 3 l 506 3 l 505 3 l 505 3 l 503 3 l 503 3 l 502 3 l 500 3 l 499 3 l 498 3 l 496 3 l 495 3 l 493 3 l 492 3 l 488 2 l 486 2 l 484 2 l 286 1 l 283 1 l 279 1 l 277 1 l 274 1 l 271 1 l 268 1 l 264 1 l 262 1 l 258 1 l 256 2 l 252 2 l 249 3 l 247 3 l 245 3 l 242 3 l 241 4 l 239 4 l 235 5 l 232 5 l 229 6 l 225 7 l 222 7 l 219 8 l 216 9 l 212 10 l 210 11 l 203 13 l 198 16 l 192 18 l 189 19 l 186 20 l 181 23 l 176 26 l 172 29 l 167 33 l 162 36 l 157 39 l 153 43 l 149 46 l 144 50 l 140 54 l 136 58 l 133 61 l 130 65 l 126 68 l 123 72 l 121 76 l 118 80 l 115 84 l 113 88 l 110 92 l 107 97 l 104 102 l 102 106 l 100 111 l 97 117 l 95 122 l 93 127 l 91 132 l 89 138 l 87 144 l 85 149 l 84 155 l 83 161 l 81 166 l 81 172 l 79 176 l 79 181 l 78 185 l 77 189 l 77 193 l 76 196 l 76 199 l 75 201 l 75 204 l 75 206 l 76 751 l 77 761 l 79 770 l 80 779 l 82 787 l 83 793 l 85 799 l 86 805 l 88 810 l 90 816 l 92 822 l 95 827 l 97 833 l 100 838 l 102 844 l 105 849 l 108 854 l 111 859 l 114 863 l 117 867 l 120 871 l 123 876 l 126 880 l 130 884 l 134 887 l 138 891 l 141 895 l 145 899 l 150 903 l 155 907 l 159 910 l 163 914 l 168 917 l 172 920 l 178 923 l 182 926 l 187 928 l 192 930 l 197 932 l 202 935 l 208 937 l 214 938 l 219 940 l 225 942 l 232 943 l 237 945 l 243 945 l 250 947 l 256 947 l 262 948 l 268 949 l 274 949 l 280 949 l 477 949 l 486 949 l 490 948 l 494 948 l 498 947 l 503 947 l 507 946 l 511 945 l 517 945 l 522 943 l 526 942 l 532 941 l 537 939 l 543 937 l 548 936 l 551 935 l 553 934 l 559 931 l 561 930 l 564 929 l 569 926 l 574 924 l 576 922 l 578 921 l 581 919 l 583 918 l 585 916 l 587 914 l 591 911 l 595 907 l 600 903 l 604 899 l 608 895 l 612 891 l 615 887 l 619 882 m 482 770 l 481 772 l 479 772 l 477 774 l 475 775 l 472 777 l 469 777 l 466 778 l 465 779 l 463 779 l 460 779 l 458 779 l 456 779 q 381 781 419 781 q 307 781 344 781 l 305 781 l 304 781 l 303 781 l 302 781 l 302 781 l 300 781 l 298 781 l 296 781 l 293 781 l 290 781 l 288 780 l 286 779 l 283 779 l 280 778 l 277 777 l 275 777 l 273 775 l 269 774 l 267 772 l 265 771 l 263 770 l 261 769 l 260 768 l 258 766 l 257 764 l 256 762 l 254 760 l 253 757 l 250 751 l 248 746 l 248 743 l 247 741 l 245 737 l 245 734 l 245 734 l 245 733 l 245 732 l 245 731 l 245 730 l 245 728 l 245 726 l 245 724 l 245 722 l 245 720 l 244 717 l 244 713 l 244 710 l 244 707 l 244 703 l 244 699 l 244 695 l 244 690 l 244 686 l 244 681 l 244 676 l 244 671 l 244 665 l 244 659 l 243 653 l 243 647 l 243 641 l 243 634 l 243 627 l 243 620 l 243 612 l 243 605 l 243 597 l 243 589 l 243 581 l 243 572 l 243 563 l 243 554 l 243 545 l 243 536 l 243 526 l 243 516 l 243 506 l 243 496 l 243 485 l 243 474 l 243 463 l 243 452 l 243 440 l 243 428 l 243 416 l 243 404 l 243 392 l 243 379 l 243 366 l 243 353 l 243 340 l 243 326 l 243 312 l 243 298 l 243 283 l 243 269 l 243 254 l 243 233 l 243 230 l 243 227 l 243 224 l 243 220 l 243 214 l 244 212 l 245 208 l 245 205 l 247 203 l 248 200 l 249 197 l 250 195 l 252 192 l 253 190 l 254 187 l 256 185 l 258 183 l 260 181 l 262 179 l 264 178 l 267 176 l 268 175 l 269 174 l 270 174 l 271 173 l 273 172 l 274 172 l 275 172 l 276 171 l 277 171 l 278 170 l 279 170 l 279 170 l 279 170 l 280 170 l 281 170 l 281 170 l 282 170 l 283 170 l 284 170 l 285 170 l 286 170 l 288 170 l 289 170 l 290 170 l 294 170 l 296 170 l 298 170 l 450 169 l 453 169 l 454 169 l 455 169 l 456 169 l 457 169 l 458 169 l 458 169 l 460 169 l 462 169 l 464 169 l 467 170 l 469 170 l 471 172 l 474 172 l 477 174 l 478 174 l 479 175 l 481 176 l 482 177 l 484 178 l 485 179 l 486 180 l 487 181 l 488 182 l 489 183 l 490 184 l 491 185 l 492 186 l 493 188 l 494 189 l 494 191 l 496 193 l 498 196 l 500 201 l 501 204 l 502 205 l 502 206 l 503 208 l 503 210 l 504 212 l 505 213 l 505 216 l 505 217 l 505 218 l 505 218 l 506 218 l 506 222 l 507 224 l 507 228 l 507 231 l 507 234 l 507 238 l 507 242 l 507 248 l 507 250 l 507 252 l 507 255 l 507 258 l 507 261 l 507 264 l 507 267 l 507 271 l 507 275 l 507 279 l 507 283 l 507 288 l 507 293 l 507 298 l 507 303 l 507 309 l 507 314 l 507 320 l 507 326 l 507 332 l 507 339 l 507 345 l 507 353 l 507 359 l 507 367 l 507 374 l 507 382 l 507 390 l 507 398 l 507 406 l 507 415 l 507 424 l 507 433 l 507 442 l 507 452 l 507 461 l 507 471 l 507 481 l 507 492 l 507 502 l 507 513 l 507 524 l 507 535 l 507 546 l 507 557 l 507 570 l 507 581 l 507 594 l 507 606 l 507 618 l 507 631 l 507 645 l 507 658 l 507 671 l 507 685 l 507 699 l 507 700 l 507 706 l 507 712 l 507 719 l 507 725 l 506 732 l 505 734 l 505 738 l 504 741 l 503 743 l 503 746 l 501 749 l 500 751 l 498 753 l 496 756 l 494 758 l 493 761 l 491 763 l 489 765 l 487 767 l 484 769 l 482 770 z "},"1":{"ha":325,"x_min":77,"x_max":247,"o":"m 77 947 l 244 948 l 247 1 l 81 1 l 77 947 z "},"2":{"ha":766,"x_min":75,"x_max":682,"o":"m 566 926 l 570 924 l 571 923 l 572 922 l 575 921 l 577 920 l 579 919 l 581 917 l 584 916 l 587 914 l 589 912 l 591 910 l 595 907 l 597 905 l 600 903 l 600 902 l 601 902 l 602 901 l 606 898 l 608 896 l 610 894 l 615 889 l 620 885 l 625 880 l 627 878 l 629 876 l 633 870 l 637 865 l 642 859 l 647 853 l 652 847 l 653 846 l 654 844 l 656 841 l 659 838 l 660 835 l 661 833 l 661 833 l 662 832 l 664 829 l 665 826 l 666 825 l 666 824 l 667 824 l 667 823 l 668 821 l 669 818 l 670 815 l 671 812 l 673 809 l 674 806 l 676 798 l 676 797 l 677 795 l 678 791 l 679 788 l 679 787 l 680 785 l 680 785 l 680 784 l 680 783 l 680 781 l 680 781 l 680 780 l 681 778 l 682 775 l 682 773 l 682 772 l 682 770 l 682 768 l 682 766 l 682 765 l 682 744 l 681 593 l 681 587 l 681 584 l 681 576 l 680 569 l 680 562 l 679 555 l 678 551 l 677 549 l 677 549 l 677 548 l 677 547 l 677 544 l 676 541 l 675 538 l 674 534 l 673 531 l 672 528 l 670 522 l 669 519 l 669 519 l 668 519 l 668 518 l 667 517 l 663 505 l 660 499 l 657 493 l 654 488 l 650 481 l 646 476 l 644 473 l 642 471 l 640 468 l 640 467 l 639 465 l 637 463 l 635 460 l 633 459 l 632 458 l 631 456 l 629 454 l 627 453 l 625 451 l 623 449 l 621 447 l 618 445 l 616 443 l 613 440 l 610 438 l 608 435 l 604 433 l 601 430 l 597 427 l 361 209 l 359 206 l 356 203 l 354 201 l 351 199 l 349 197 l 347 195 l 345 193 l 344 192 l 342 191 l 340 189 l 339 187 l 338 186 l 336 185 l 336 184 l 334 183 l 334 182 l 333 182 l 332 181 l 332 180 l 330 178 l 329 177 l 327 173 l 326 172 l 326 171 l 326 170 l 326 169 l 326 168 l 326 168 l 326 167 l 326 166 l 327 165 l 328 164 l 328 163 l 329 163 l 330 163 l 331 163 l 682 166 l 682 0 l 80 0 l 80 9 l 80 18 l 79 26 l 79 33 l 79 41 l 79 48 l 80 55 l 80 62 l 81 68 l 81 75 l 82 88 l 83 95 l 84 102 l 85 109 l 86 117 l 87 124 l 89 131 l 90 138 l 92 144 l 94 151 l 96 158 l 98 165 l 100 172 l 102 178 l 105 184 l 109 191 l 111 197 l 113 201 l 115 205 l 118 209 l 120 214 l 121 215 l 122 217 l 123 218 l 124 220 l 125 222 l 127 224 l 128 226 l 130 229 l 132 231 l 134 233 l 135 234 l 136 236 l 138 237 l 139 239 l 140 241 l 142 242 l 143 244 l 144 245 l 146 248 l 149 250 l 151 252 l 153 254 l 155 257 l 160 262 l 165 268 l 171 273 l 176 278 l 182 283 l 187 287 l 189 290 l 191 291 l 194 294 l 196 295 l 200 299 l 204 302 l 208 307 l 213 310 l 220 317 l 228 323 l 235 330 l 242 336 l 249 342 l 256 349 l 263 355 l 270 361 l 276 367 l 283 373 l 289 379 l 295 385 l 301 390 l 307 395 l 313 401 l 319 406 l 324 411 l 330 416 l 335 420 l 340 425 l 345 430 l 351 435 l 355 439 l 360 444 l 365 448 l 369 452 l 374 456 l 378 459 l 382 463 l 386 467 l 390 471 l 394 474 l 397 477 l 401 480 l 404 484 l 408 486 l 411 490 l 414 492 l 416 495 l 420 497 l 422 500 l 425 503 l 427 505 l 429 507 l 432 509 l 434 511 l 436 513 l 437 514 l 439 515 l 441 517 l 442 519 l 444 519 l 445 521 l 448 524 l 456 531 l 458 532 l 460 534 l 462 536 l 464 538 l 467 539 l 472 544 l 477 548 l 481 552 l 485 555 l 489 559 l 492 563 l 496 566 l 498 569 l 500 572 l 503 576 l 504 577 l 504 578 l 505 578 l 507 582 l 508 585 l 509 589 l 509 590 l 509 591 l 509 592 l 510 595 l 511 600 l 511 602 l 511 606 l 511 608 l 511 611 l 511 614 l 511 616 l 511 619 l 510 732 l 509 735 l 509 739 l 509 742 l 509 745 l 509 745 l 508 747 l 508 749 l 507 751 l 507 752 l 507 753 l 506 753 l 505 755 l 504 758 l 503 760 l 501 762 l 499 764 l 498 766 l 496 769 l 494 770 l 492 772 l 489 774 l 487 776 l 484 778 l 481 779 l 479 781 l 475 781 l 473 782 l 469 783 l 467 783 l 463 783 l 461 783 l 300 784 l 296 784 l 294 784 l 293 783 l 289 783 l 286 782 l 284 782 l 283 781 l 279 780 l 277 779 l 274 777 l 271 776 l 269 774 l 266 772 l 264 770 l 262 768 l 260 766 l 258 764 l 256 762 l 254 760 l 252 757 l 251 754 l 250 751 l 249 747 l 248 743 l 248 740 l 247 736 l 246 733 l 245 730 l 245 727 l 245 724 l 245 722 l 244 720 l 244 718 l 244 715 l 243 711 l 243 711 l 243 710 l 243 709 l 243 708 l 243 705 l 87 746 l 85 746 l 84 747 l 83 747 l 81 747 l 80 748 l 79 749 l 78 750 l 77 751 l 77 752 l 76 753 l 75 754 l 75 755 l 75 758 l 75 759 l 75 760 l 75 762 l 75 766 l 75 770 l 75 772 l 76 776 l 76 779 l 77 781 l 77 783 l 78 785 l 79 789 l 80 793 l 82 802 l 83 804 l 83 806 l 84 809 l 85 812 l 85 814 l 87 817 l 88 821 l 90 823 l 92 829 l 96 836 l 102 847 l 103 850 l 104 852 l 108 858 l 110 861 l 111 863 l 115 869 l 119 874 l 123 879 l 127 884 l 131 888 l 134 890 l 136 892 l 141 896 l 146 901 l 149 903 l 151 905 l 157 909 l 161 913 l 164 916 l 167 917 l 173 920 l 176 922 l 178 923 l 184 926 l 190 928 l 195 931 l 201 933 l 207 936 l 213 938 l 220 940 l 222 941 l 226 942 l 229 943 l 232 943 l 235 944 l 238 944 l 241 945 l 243 945 l 246 945 l 249 945 l 252 945 l 256 945 l 259 946 l 262 946 l 266 947 l 270 947 l 274 947 l 277 947 l 281 947 l 474 947 l 477 947 l 479 947 l 482 947 l 484 947 l 487 947 l 489 947 l 491 947 l 492 947 l 494 947 l 496 947 l 497 947 l 498 946 l 499 946 l 500 946 l 503 945 l 505 945 l 506 945 l 509 945 l 511 944 l 513 944 l 516 943 l 518 943 l 519 943 l 519 943 l 522 943 l 524 942 l 526 941 l 528 941 l 531 940 l 534 939 l 536 938 l 540 937 l 543 936 l 546 935 l 549 933 l 552 932 l 555 931 l 557 930 l 559 929 l 562 928 l 566 926 z "},"3":{"ha":760,"x_min":74,"x_max":683,"o":"m 477 174 l 479 175 l 481 176 l 482 176 l 484 178 l 487 178 l 489 180 l 490 181 l 492 182 l 494 183 l 496 185 l 498 187 l 498 188 l 499 189 l 500 191 l 500 191 l 502 193 l 503 195 l 504 197 l 505 200 l 506 203 l 507 208 l 507 210 l 508 212 l 508 214 l 509 218 l 509 220 l 509 224 l 509 228 l 509 230 l 509 231 l 509 234 l 509 236 l 510 241 l 510 243 l 510 245 l 509 334 l 509 338 l 508 341 l 507 345 l 506 349 l 505 352 l 503 355 l 502 358 l 500 361 l 498 363 l 496 366 l 494 369 l 492 372 l 489 374 l 487 376 l 484 378 l 481 380 l 479 382 l 476 384 l 473 385 l 470 387 l 467 388 l 463 389 l 459 389 l 456 390 l 448 391 l 441 391 l 427 391 l 343 393 l 342 562 l 446 562 l 450 562 l 452 562 l 452 562 l 453 562 l 454 562 l 458 563 l 462 563 l 463 564 l 465 564 l 469 564 l 472 566 l 475 566 l 477 567 l 478 568 l 481 569 l 484 570 l 487 572 l 489 574 l 490 574 l 490 574 l 490 574 l 492 575 l 494 577 l 496 579 l 498 582 l 498 583 l 499 583 l 500 584 l 502 587 l 502 587 l 503 588 l 503 589 l 504 591 l 505 593 l 505 596 l 505 598 l 505 608 l 505 617 l 505 618 l 505 621 l 505 623 l 505 625 l 505 627 l 505 629 l 505 633 l 505 636 l 505 640 l 505 644 l 505 648 l 505 652 l 505 656 l 505 661 l 505 667 l 505 672 l 505 677 l 505 683 l 505 688 l 505 693 l 505 698 l 505 702 l 505 706 l 505 710 l 505 713 l 505 717 l 505 720 l 505 723 l 505 726 l 505 728 l 505 730 l 506 732 l 505 736 l 505 739 l 505 743 l 504 746 l 503 749 l 501 752 l 499 755 l 498 758 l 495 761 l 494 762 l 493 763 l 492 764 l 491 766 l 489 767 l 486 769 l 484 770 l 481 772 l 477 773 l 475 774 l 472 775 l 470 776 l 467 777 l 465 777 l 464 777 l 463 777 l 461 777 l 460 777 l 460 777 l 459 777 l 458 777 l 456 777 l 456 777 l 454 777 l 452 777 l 451 777 l 450 777 l 448 777 l 446 777 l 444 777 l 441 777 l 439 777 l 436 777 l 433 777 l 431 777 l 428 777 l 425 777 l 422 777 l 415 777 l 411 777 l 408 777 l 399 777 l 395 777 l 391 777 l 387 777 l 382 777 l 373 777 l 365 777 l 357 777 l 349 777 l 342 777 l 336 777 l 330 777 l 323 777 l 319 777 l 314 777 l 309 777 l 306 777 l 302 777 l 300 777 l 297 777 l 296 776 l 289 775 l 283 774 l 279 773 l 276 772 l 270 769 l 267 768 l 266 767 l 264 766 l 262 764 l 260 762 l 257 759 l 255 756 l 254 753 l 252 750 l 250 747 l 249 743 l 248 740 l 247 736 l 246 733 l 245 729 l 245 725 l 245 721 l 244 713 l 243 705 l 241 688 l 76 734 l 75 736 l 75 740 l 75 743 l 75 746 l 74 749 l 75 751 l 75 755 l 75 758 l 75 764 l 76 770 l 77 775 l 77 781 l 78 785 l 78 787 l 79 790 l 80 793 l 81 798 l 82 800 l 83 803 l 83 806 l 84 808 l 85 812 l 87 817 l 88 820 l 90 823 l 91 827 l 92 831 l 96 838 l 99 844 l 102 850 l 106 857 l 111 862 l 115 868 l 119 873 l 123 879 l 128 884 l 133 890 l 138 895 l 144 899 l 146 902 l 149 904 l 155 908 l 161 912 l 167 916 l 174 920 l 180 924 l 186 927 l 193 930 l 200 932 l 214 937 l 228 940 l 235 942 l 242 943 l 250 944 l 257 945 l 264 945 l 272 946 l 279 947 l 286 947 l 288 947 l 290 947 l 291 947 l 294 947 l 296 947 l 298 947 l 301 948 l 303 948 l 306 948 l 309 948 l 315 948 l 318 948 l 321 948 l 326 948 l 330 948 l 338 948 l 347 948 l 351 948 l 356 947 l 361 947 l 366 947 l 377 947 l 383 947 l 389 947 l 395 947 l 401 947 l 408 947 l 414 947 l 420 947 l 425 947 l 431 947 l 436 947 l 441 947 l 446 947 l 452 947 l 456 947 l 460 947 l 465 947 l 469 947 l 473 947 l 477 946 l 481 946 l 485 946 l 488 946 l 492 945 l 494 945 l 497 945 l 500 945 l 503 945 l 505 945 l 507 945 l 509 945 l 511 944 l 513 944 l 515 944 l 516 944 l 517 943 l 518 943 l 533 939 l 541 937 l 547 935 l 555 933 l 561 931 l 564 930 l 568 928 l 574 925 l 580 922 l 585 919 l 591 916 l 596 911 l 602 908 l 606 904 l 611 900 l 616 895 l 621 890 l 626 885 l 631 880 l 635 873 l 640 868 l 644 863 l 647 857 l 651 851 l 654 845 l 657 839 l 660 833 l 663 827 l 663 825 l 663 824 l 664 823 l 665 822 l 665 821 l 665 821 l 666 817 l 666 817 l 667 816 l 667 814 l 667 813 l 667 812 l 668 812 l 669 810 l 669 807 l 670 804 l 671 804 l 671 802 l 671 802 l 671 801 l 671 800 l 671 799 l 671 798 l 672 798 l 672 796 l 672 795 l 672 795 l 673 794 l 673 793 l 673 791 l 674 788 l 676 781 l 676 778 l 677 774 l 678 767 l 680 760 l 680 752 l 681 745 l 682 736 l 682 721 l 683 705 l 683 701 l 683 700 l 683 699 l 683 698 l 683 690 l 683 684 l 683 677 l 683 665 l 683 651 l 682 644 l 682 637 l 682 630 l 681 623 l 680 619 l 680 616 l 679 608 l 678 607 l 678 606 l 678 606 l 677 602 l 677 599 l 677 597 l 676 596 l 676 595 l 676 595 l 675 591 l 675 590 l 675 589 l 674 586 l 674 584 l 674 583 l 673 583 l 673 583 l 673 579 l 671 576 l 671 574 l 670 572 l 669 569 l 667 562 l 665 556 l 662 549 l 659 543 l 657 540 l 655 537 l 652 530 l 648 525 l 645 519 l 641 513 l 637 506 l 634 503 l 632 500 l 630 498 l 628 495 l 626 492 l 624 490 l 622 488 l 621 486 l 619 486 l 618 484 l 618 484 l 618 484 l 617 483 l 616 481 l 616 480 l 616 479 l 616 479 l 616 478 l 616 477 l 616 477 l 617 475 l 618 475 l 618 475 l 620 473 l 627 465 l 631 460 l 634 456 l 638 452 l 642 448 l 646 442 l 649 437 l 653 431 l 656 425 l 660 418 l 663 412 l 666 406 l 669 400 l 671 393 l 674 387 l 675 383 l 676 380 l 678 372 l 679 369 l 680 365 l 681 357 l 681 356 l 682 355 l 682 353 l 682 350 l 682 347 l 682 342 l 682 338 l 682 336 l 682 334 l 682 329 l 682 323 l 682 317 l 682 311 l 682 308 l 682 304 l 682 301 l 682 297 l 682 290 l 682 281 l 682 273 l 682 271 l 682 271 l 682 266 l 682 261 l 682 257 l 682 253 l 682 249 l 682 245 l 682 241 l 682 237 l 682 235 l 682 231 l 682 229 l 682 226 l 682 223 l 682 220 l 682 218 l 682 216 l 682 216 l 682 214 l 682 212 l 682 211 l 682 209 l 682 205 l 682 204 l 682 203 l 682 201 l 682 200 l 682 199 l 682 199 l 682 198 l 682 195 l 681 192 l 681 191 l 681 190 l 681 189 l 680 186 l 680 184 l 680 181 l 680 179 l 679 178 l 679 176 l 679 175 l 679 174 l 678 172 l 677 169 l 677 167 l 677 164 l 676 163 l 676 161 l 675 159 l 675 157 l 674 155 l 673 152 l 672 149 l 671 146 l 669 140 l 668 138 l 667 134 l 664 127 l 663 124 l 661 121 l 661 119 l 660 117 l 659 114 l 655 107 l 652 100 l 652 99 l 651 98 l 649 94 l 648 93 l 648 92 l 646 89 l 642 83 l 638 77 l 636 75 l 633 72 l 629 66 l 625 61 l 620 57 l 618 54 l 616 52 l 611 49 l 610 47 l 609 47 l 608 47 l 606 45 l 601 41 l 598 39 l 596 37 l 593 35 l 591 33 l 588 32 l 585 30 l 578 26 l 572 23 l 569 22 l 567 20 l 566 20 l 562 18 l 559 17 l 551 14 l 548 13 l 545 12 l 538 10 l 536 10 l 535 9 l 534 9 l 531 9 l 524 7 l 517 5 l 509 4 l 503 3 l 495 2 l 488 1 l 488 1 l 486 1 l 485 1 l 484 1 l 481 1 l 479 1 l 477 1 l 475 1 l 473 1 l 471 1 l 468 1 l 465 1 l 462 1 l 460 1 l 459 1 l 458 1 l 456 1 l 452 1 l 448 1 l 444 1 l 440 1 l 438 1 l 436 1 l 432 1 l 427 1 l 422 1 l 418 1 l 413 1 l 408 1 l 402 1 l 397 1 l 391 1 l 385 1 l 380 1 l 374 0 l 367 0 l 361 0 l 350 0 l 345 1 l 339 1 l 334 1 l 329 1 l 324 1 l 319 1 l 311 1 l 307 1 l 303 1 l 296 1 l 292 1 l 289 1 l 283 1 l 278 1 l 275 1 l 273 1 l 271 1 l 269 1 l 266 1 l 264 2 l 263 2 l 262 2 l 262 2 l 256 3 l 250 4 l 243 5 l 238 6 l 235 7 l 233 7 l 229 8 l 226 9 l 223 10 l 220 11 l 216 12 l 213 13 l 205 16 l 199 18 l 193 21 l 188 24 l 185 25 l 182 26 l 180 28 l 178 29 l 176 30 l 174 32 l 172 33 l 171 33 l 168 35 l 164 37 l 161 39 l 158 41 l 155 43 l 152 45 l 146 50 l 141 54 l 138 57 l 136 59 l 131 64 l 126 69 l 122 74 l 117 80 l 113 85 l 110 91 l 106 97 l 104 100 l 103 103 l 100 109 l 96 116 l 94 123 l 92 129 l 90 136 l 87 143 l 85 150 l 84 153 l 83 157 l 81 164 l 81 172 l 79 178 l 79 186 l 78 194 l 77 202 l 77 210 l 243 263 l 245 256 l 245 253 l 245 250 l 246 243 l 247 236 l 248 229 l 250 222 l 252 215 l 254 208 l 255 203 l 256 200 l 257 199 l 258 197 l 260 194 l 262 191 l 264 188 l 267 186 l 268 184 l 269 183 l 272 181 l 275 179 l 278 178 l 281 176 l 285 175 l 288 174 l 292 173 l 295 172 l 296 172 l 297 172 l 299 172 l 300 172 l 302 172 l 316 171 l 337 171 l 454 170 l 460 170 l 465 171 l 471 172 l 477 174 z "},"4":{"ha":768,"x_min":75,"x_max":685,"o":"m 385 948 l 557 947 l 562 399 l 685 399 l 685 225 l 561 225 l 561 0 l 386 1 l 386 228 l 77 227 l 75 393 l 385 947 l 385 948 m 273 398 l 386 401 l 385 597 l 273 399 l 273 398 z "},"5":{"ha":760,"x_min":74,"x_max":680,"o":"m 517 576 l 530 572 l 543 566 l 549 564 l 555 561 l 562 557 l 569 554 l 575 550 l 581 547 l 587 543 l 593 539 l 598 535 l 604 531 l 610 526 l 615 521 l 621 516 l 623 513 l 625 511 l 627 510 l 628 509 l 630 506 l 632 504 l 634 501 l 637 496 l 642 492 l 646 486 l 649 480 l 651 477 l 653 474 l 655 471 l 656 468 l 659 465 l 660 461 l 661 458 l 663 454 l 665 450 l 666 446 l 669 439 l 670 435 l 671 431 l 673 422 l 675 418 l 675 418 l 675 417 l 675 416 l 675 415 l 676 413 l 676 412 l 676 412 l 676 411 l 677 408 l 677 406 l 677 406 l 677 405 l 677 404 l 677 403 l 677 402 l 678 401 l 678 399 l 678 398 l 678 395 l 678 393 l 678 390 l 678 388 l 678 386 l 678 384 l 678 382 l 679 380 l 679 379 l 679 378 l 679 377 l 679 375 l 679 374 l 679 372 l 679 371 l 679 369 l 679 367 l 679 365 l 679 363 l 679 361 l 679 355 l 679 353 l 679 350 l 679 347 l 679 344 l 679 340 l 679 337 l 680 330 l 680 322 l 680 318 l 680 313 l 680 304 l 680 300 l 680 295 l 680 290 l 680 286 l 680 276 l 680 267 l 680 263 l 680 259 l 680 252 l 680 248 l 680 244 l 680 241 l 680 238 l 680 235 l 680 231 l 680 229 l 680 226 l 680 223 l 680 221 l 680 218 l 680 216 l 680 214 l 680 212 l 680 211 l 680 210 l 680 208 l 680 205 l 680 203 l 680 201 l 680 200 l 679 193 l 679 191 l 679 190 l 679 189 l 679 186 l 678 182 l 678 180 l 678 179 l 678 178 l 677 172 l 677 168 l 676 166 l 676 165 l 676 164 l 675 161 l 675 157 l 673 154 l 673 151 l 672 147 l 671 146 l 671 145 l 671 145 l 671 144 l 669 138 l 666 132 l 663 125 l 661 119 l 658 113 l 654 106 l 651 100 l 648 94 l 646 92 l 644 88 l 642 85 l 640 83 l 638 79 l 636 77 l 633 74 l 631 71 l 626 65 l 621 60 l 616 55 l 610 50 l 608 47 l 606 45 l 600 41 l 593 37 l 587 33 l 581 28 l 574 25 l 568 22 l 562 18 l 555 16 l 548 14 l 542 12 l 536 10 l 524 7 l 512 4 l 509 4 l 509 3 l 507 3 l 506 3 l 504 3 l 503 3 l 498 2 l 494 2 l 490 1 l 488 1 l 485 1 l 480 1 l 252 1 l 249 1 l 247 1 l 245 1 l 244 1 l 243 1 l 243 1 l 241 1 l 240 1 l 239 1 l 239 1 l 238 1 l 237 1 l 234 2 l 231 3 l 229 3 l 227 3 l 226 4 l 225 4 l 224 5 l 220 5 l 216 7 l 213 8 l 205 11 l 202 12 l 199 14 l 195 16 l 193 17 l 186 20 l 180 24 l 174 28 l 168 32 l 157 40 l 145 48 l 140 53 l 138 56 l 135 58 l 130 63 l 126 68 l 124 71 l 122 75 l 118 80 l 115 86 l 111 92 l 104 105 l 98 117 l 93 130 l 87 142 l 85 148 l 83 154 l 81 160 l 79 166 l 79 167 l 79 168 l 80 169 l 242 226 l 242 225 l 243 224 l 243 222 l 243 221 l 244 220 l 245 218 l 245 216 l 246 214 l 247 212 l 248 209 l 248 207 l 250 204 l 252 199 l 254 194 l 256 191 l 257 190 l 258 189 l 258 188 l 260 186 l 262 184 l 263 183 l 264 182 l 267 180 l 269 179 l 271 178 l 273 178 l 275 176 l 279 175 l 282 174 l 286 174 l 289 173 l 292 173 l 458 174 l 460 174 l 463 174 l 465 174 l 467 174 l 470 175 l 472 175 l 473 175 l 475 176 l 475 176 l 476 176 l 477 176 l 477 176 l 478 176 l 479 177 l 481 178 l 483 179 l 484 180 l 486 182 l 489 184 l 490 185 l 491 186 l 492 187 l 493 188 l 494 189 l 496 191 l 498 193 l 500 197 l 501 199 l 502 201 l 503 202 l 504 205 l 504 207 l 505 209 l 505 210 l 505 212 l 505 213 l 505 214 l 506 215 l 506 218 l 507 222 l 507 224 l 507 227 l 507 229 l 507 231 l 507 233 l 507 235 l 507 239 l 508 241 l 508 244 l 508 247 l 508 248 l 508 248 l 508 249 l 508 250 l 508 251 l 508 252 l 508 252 l 508 254 l 508 257 l 508 260 l 508 262 l 508 263 l 508 264 l 508 266 l 508 268 l 508 272 l 508 274 l 508 277 l 508 281 l 508 283 l 508 284 l 508 287 l 508 290 l 508 293 l 508 299 l 508 306 l 508 312 l 508 319 l 508 321 l 508 324 l 508 330 l 507 335 l 507 340 l 507 345 l 507 349 l 507 353 l 507 356 l 507 359 l 507 362 l 507 364 l 507 366 l 507 368 l 507 368 l 507 370 l 507 370 l 507 371 l 507 372 l 506 374 l 506 374 l 505 377 l 503 380 l 503 380 l 503 381 l 502 382 l 501 383 l 501 385 l 500 386 l 498 389 l 495 392 l 492 395 l 490 397 l 488 399 l 487 400 l 484 402 l 482 403 l 481 404 l 478 406 l 476 406 l 475 406 l 471 408 l 468 408 l 465 409 l 463 410 l 460 410 l 457 410 l 454 410 l 452 410 l 451 410 l 449 410 l 447 410 l 446 410 l 445 410 l 444 411 l 443 411 l 442 411 l 301 411 l 295 411 l 296 411 l 295 411 l 292 411 l 289 410 l 286 410 l 283 409 l 280 408 l 277 408 l 275 407 l 271 406 l 268 404 l 265 403 l 262 401 l 260 399 l 258 396 l 255 394 l 254 391 l 252 388 l 250 385 l 248 382 l 247 378 l 245 375 l 245 372 l 244 368 l 243 365 l 243 361 l 74 414 l 173 949 l 679 949 l 680 780 l 317 779 l 288 589 l 288 589 l 289 589 l 291 589 l 293 589 l 296 589 l 300 589 l 302 589 l 304 589 l 307 589 l 309 589 l 311 589 l 314 589 l 317 589 l 320 589 l 327 589 l 335 589 l 342 589 l 351 589 l 356 589 l 361 589 l 371 589 l 376 589 l 381 589 l 386 589 l 391 589 l 395 589 l 399 589 l 404 589 l 408 589 l 412 589 l 416 589 l 420 589 l 423 589 l 427 589 l 430 589 l 433 589 l 436 589 l 439 589 l 442 589 l 445 589 l 447 589 l 450 589 l 452 589 l 454 589 l 456 588 l 458 588 l 459 588 l 461 588 l 463 588 l 464 588 l 465 588 l 466 588 l 467 587 l 473 587 l 480 585 l 486 585 l 493 583 l 499 581 l 505 580 l 511 578 l 517 576 z "},"6":{"ha":758,"x_min":76,"x_max":683,"o":"m 441 779 l 322 779 l 315 779 l 313 778 l 309 778 l 307 777 l 304 777 l 302 776 l 300 775 l 296 774 l 293 773 l 291 772 l 288 770 l 286 769 l 283 768 l 280 766 l 275 764 l 271 760 l 267 757 l 263 753 l 260 749 l 257 746 l 255 742 l 254 738 l 252 734 l 251 730 l 250 727 l 250 724 l 249 721 l 248 718 l 248 715 l 248 712 l 248 711 l 248 564 l 483 564 l 488 564 l 493 564 l 498 564 l 504 563 l 509 562 l 515 561 l 522 559 l 534 556 l 540 555 l 547 553 l 552 551 l 558 548 l 570 543 l 576 541 l 583 538 l 585 536 l 588 534 l 594 531 l 600 528 l 605 524 l 610 519 l 616 515 l 621 511 l 623 508 l 626 506 l 630 500 l 633 498 l 635 495 l 639 490 l 643 484 l 646 478 l 648 475 l 650 472 l 653 466 l 656 459 l 659 453 l 662 447 l 665 441 l 667 434 l 669 428 l 672 422 l 673 416 l 675 409 l 676 406 l 677 402 l 678 395 l 679 392 l 680 388 l 680 380 l 681 373 l 682 366 l 682 364 l 682 363 l 682 354 l 682 345 l 682 336 l 682 328 l 682 323 l 682 321 l 682 319 l 682 311 l 682 307 l 682 305 l 682 303 l 683 295 l 683 288 l 683 284 l 683 282 l 683 280 l 683 273 l 683 270 l 683 269 l 683 267 l 683 260 l 683 254 l 683 248 l 683 242 l 683 237 l 683 231 l 682 227 l 682 221 l 682 217 l 682 214 l 682 212 l 682 208 l 682 206 l 682 204 l 682 203 l 682 201 l 682 197 l 682 196 l 682 195 l 681 191 l 681 189 l 681 186 l 680 184 l 680 182 l 680 179 l 679 177 l 679 176 l 679 176 l 679 175 l 677 168 l 676 165 l 676 164 l 676 163 l 675 161 l 675 158 l 675 157 l 674 156 l 674 155 l 672 148 l 671 144 l 670 143 l 670 142 l 670 141 l 669 140 l 669 140 l 669 138 l 668 135 l 665 129 l 663 123 l 661 120 l 660 117 l 657 111 l 656 108 l 654 105 l 651 100 l 648 94 l 644 89 l 641 83 l 637 79 l 633 73 l 631 71 l 629 68 l 627 66 l 626 65 l 625 64 l 623 62 l 621 60 l 616 55 l 615 54 l 614 53 l 612 51 l 610 49 l 607 47 l 602 43 l 597 40 l 594 38 l 591 36 l 587 33 l 581 30 l 575 26 l 572 25 l 569 24 l 564 21 l 557 18 l 551 16 l 545 14 l 539 12 l 533 10 l 527 9 l 521 8 l 515 7 l 512 7 l 509 6 l 504 5 l 499 5 l 494 4 l 490 4 l 488 3 l 486 3 l 484 3 l 481 3 l 476 2 l 473 2 l 472 2 l 470 2 l 466 1 l 464 1 l 461 1 l 456 1 l 450 1 l 443 1 l 439 1 l 435 1 l 427 1 l 418 1 l 413 1 l 403 1 l 397 1 l 386 1 l 380 1 l 337 1 l 331 1 l 326 1 l 320 1 l 315 1 l 309 1 l 304 1 l 300 1 l 295 1 l 286 1 l 281 2 l 277 2 l 273 2 l 269 3 l 265 3 l 262 3 l 258 3 l 255 3 l 249 4 l 243 5 l 241 5 l 239 5 l 236 6 l 234 6 l 232 7 l 231 7 l 223 9 l 216 12 l 210 14 l 203 16 l 197 19 l 191 22 l 184 26 l 178 29 l 172 33 l 170 35 l 167 37 l 161 41 l 156 45 l 151 49 l 146 53 l 142 57 l 138 60 l 134 64 l 130 69 l 127 74 l 123 78 l 119 83 l 115 88 l 112 94 l 108 98 l 104 104 l 103 107 l 101 110 l 98 116 l 96 122 l 93 128 l 91 134 l 89 140 l 87 144 l 87 147 l 85 154 l 85 157 l 84 161 l 83 168 l 82 172 l 81 176 l 81 180 l 80 184 l 79 189 l 79 193 l 78 202 l 78 207 l 77 212 l 77 212 l 77 214 l 77 746 l 76 747 l 76 749 l 76 751 l 77 753 l 77 756 l 77 759 l 77 762 l 78 766 l 78 768 l 78 770 l 79 774 l 79 776 l 80 779 l 81 784 l 82 787 l 83 789 l 83 792 l 85 795 l 86 802 l 87 806 l 89 809 l 91 817 l 94 823 l 94 827 l 96 830 l 99 837 l 100 840 l 102 843 l 105 849 l 109 855 l 113 861 l 116 866 l 120 871 l 124 876 l 128 882 l 133 886 l 138 891 l 142 896 l 147 901 l 152 905 l 157 909 l 162 913 l 168 916 l 173 920 l 178 923 l 184 926 l 190 928 l 196 931 l 202 933 l 208 936 l 214 937 l 220 939 l 226 941 l 233 943 l 239 943 l 240 944 l 242 944 l 246 945 l 248 945 l 251 945 l 256 945 l 259 946 l 268 947 l 275 947 l 282 947 l 290 947 l 308 948 l 455 949 l 456 949 l 458 949 l 459 949 l 460 949 l 460 949 l 461 949 l 462 949 l 469 949 l 477 949 l 484 948 l 491 947 l 498 946 l 506 945 l 513 944 l 520 942 l 528 941 l 534 939 l 538 938 l 541 937 l 548 935 l 551 934 l 554 932 l 561 930 l 567 927 l 573 924 l 576 922 l 578 921 l 582 920 l 585 918 l 590 913 l 595 909 l 601 905 l 606 901 l 610 896 l 612 893 l 615 890 l 619 885 l 623 880 l 627 874 l 631 869 l 634 863 l 637 858 l 640 852 l 643 847 l 646 842 l 648 836 l 650 831 l 652 825 l 654 819 l 657 813 l 659 807 l 661 801 l 665 787 l 667 781 l 669 774 l 671 761 l 673 754 l 675 747 l 675 743 l 675 741 l 676 740 l 676 738 l 677 733 l 677 732 l 677 731 l 678 731 l 678 728 l 517 682 l 515 694 l 514 701 l 513 707 l 512 713 l 511 719 l 510 722 l 509 725 l 508 731 l 507 735 l 507 738 l 505 741 l 505 744 l 503 747 l 502 749 l 500 751 l 499 754 l 498 756 l 496 758 l 494 760 l 493 762 l 491 764 l 489 766 l 487 768 l 485 769 l 483 770 l 480 771 l 478 772 l 475 774 l 473 774 l 470 775 l 467 776 l 463 777 l 460 777 l 456 778 l 453 778 l 450 779 l 446 779 l 441 779 m 311 395 l 296 393 l 292 393 l 288 391 l 283 389 l 279 387 l 275 385 l 271 382 l 267 378 l 265 377 l 264 376 l 263 374 l 262 373 l 260 370 l 258 366 l 256 363 l 255 359 l 254 357 l 254 355 l 253 351 l 253 347 l 252 343 l 252 338 l 252 334 l 252 333 l 252 229 l 252 227 l 252 224 l 252 220 l 253 218 l 253 215 l 254 212 l 254 210 l 255 207 l 256 204 l 257 202 l 258 199 l 259 197 l 260 195 l 262 193 l 263 191 l 265 189 l 266 187 l 268 185 l 269 184 l 271 182 l 273 182 l 275 180 l 277 179 l 279 178 l 281 178 l 283 177 l 286 176 l 289 176 l 292 175 l 294 174 l 298 174 l 300 174 l 307 174 l 312 174 l 447 174 l 448 174 l 450 174 l 454 174 l 456 174 l 457 174 l 458 174 l 460 174 l 461 174 l 463 174 l 466 174 l 467 174 l 469 175 l 472 175 l 475 176 l 476 176 l 477 176 l 477 177 l 478 177 l 479 177 l 480 178 l 481 178 l 482 178 l 484 179 l 486 180 l 488 181 l 489 182 l 490 182 l 491 183 l 492 184 l 493 185 l 494 186 l 495 186 l 496 189 l 498 191 l 499 193 l 499 193 l 500 193 l 500 195 l 500 195 l 501 196 l 502 197 l 503 199 l 504 201 l 505 204 l 505 205 l 506 207 l 507 209 l 507 212 l 508 214 l 508 218 l 509 220 l 509 223 l 509 226 l 509 229 l 509 332 l 509 333 l 509 334 l 509 337 l 509 340 l 509 344 l 508 347 l 508 351 l 507 354 l 507 357 l 506 359 l 505 362 l 504 365 l 503 368 l 501 370 l 500 372 l 498 374 l 496 376 l 494 378 l 492 380 l 490 382 l 488 383 l 486 385 l 481 387 l 479 389 l 477 389 l 473 391 l 471 392 l 469 392 l 465 393 l 460 393 l 311 395 z "},"7":{"ha":771,"x_min":80,"x_max":689,"o":"m 689 949 l 689 782 l 392 1 l 207 1 l 502 777 l 503 783 l 80 783 l 80 785 l 80 818 l 80 849 l 80 871 l 80 895 l 80 903 l 80 913 l 80 935 l 80 939 l 80 942 l 80 946 l 81 950 l 689 949 z "},"8":{"ha":762,"x_min":79,"x_max":684,"o":"m 520 942 l 526 941 l 533 939 l 540 937 l 546 935 l 553 933 l 559 930 l 565 928 l 571 925 l 577 922 l 583 918 l 589 915 l 595 911 l 600 908 l 606 904 l 611 900 l 616 896 l 622 891 l 627 887 l 631 882 l 636 878 l 640 872 l 644 867 l 648 862 l 652 856 l 656 850 l 659 844 l 662 839 l 665 833 l 667 827 l 670 821 l 672 814 l 675 808 l 675 805 l 676 802 l 677 800 l 678 797 l 679 794 l 680 791 l 680 790 l 680 789 l 680 787 l 681 786 l 681 784 l 682 782 l 682 780 l 682 777 l 682 775 l 683 774 l 683 772 l 683 770 l 683 768 l 683 766 l 683 764 l 683 762 l 683 760 l 683 756 l 683 753 l 683 749 l 683 746 l 683 742 l 683 737 l 684 732 l 684 728 l 684 722 l 684 717 l 684 711 l 684 706 l 684 701 l 684 696 l 684 690 l 684 682 l 684 678 l 684 676 l 684 675 l 684 674 l 684 667 l 684 659 l 684 659 l 684 658 l 684 656 l 684 652 l 684 646 l 684 642 l 684 639 l 684 633 l 684 627 l 684 627 l 684 626 l 684 625 l 684 622 l 684 616 l 684 612 l 683 609 l 683 607 l 683 602 l 683 600 l 683 600 l 683 598 l 682 595 l 682 592 l 682 590 l 682 587 l 681 585 l 681 583 l 680 577 l 679 574 l 678 571 l 677 568 l 677 565 l 677 563 l 676 562 l 676 562 l 675 559 l 673 553 l 671 547 l 669 545 l 668 542 l 667 538 l 665 536 l 663 532 l 661 530 l 659 526 l 657 523 l 655 520 l 652 516 l 650 513 l 648 509 l 645 506 l 642 503 l 639 498 l 636 495 l 633 491 l 630 487 l 627 485 l 625 482 l 625 481 l 624 481 l 624 479 l 624 478 l 624 477 l 625 477 l 625 475 l 627 474 l 627 473 l 629 473 l 630 471 l 635 467 l 641 462 l 643 459 l 646 456 l 650 452 l 654 446 l 658 441 l 661 435 l 665 429 l 667 423 l 670 417 l 673 411 l 675 405 l 675 402 l 677 399 l 678 393 l 680 387 l 681 381 l 682 380 l 682 377 l 682 376 l 682 375 l 682 372 l 682 369 l 683 366 l 683 362 l 683 358 l 683 354 l 684 349 l 684 345 l 684 339 l 684 334 l 684 328 l 684 323 l 684 316 l 684 307 l 684 301 l 684 296 l 684 285 l 684 279 l 684 273 l 684 265 l 684 258 l 684 250 l 684 241 l 684 241 l 684 233 l 684 226 l 684 218 l 684 214 l 684 210 l 684 203 l 684 196 l 683 193 l 683 189 l 682 182 l 682 175 l 680 168 l 680 165 l 680 163 l 679 161 l 678 158 l 677 155 l 676 148 l 673 141 l 673 138 l 672 136 l 671 135 l 669 128 l 667 125 l 666 123 l 663 116 l 660 111 l 656 104 l 653 98 l 649 93 l 645 87 l 643 84 l 642 81 l 639 79 l 637 76 l 636 75 l 635 73 l 633 71 l 630 68 l 628 66 l 624 61 l 621 59 l 619 57 l 618 56 l 616 55 l 614 53 l 610 50 l 605 45 l 600 43 l 595 39 l 593 39 l 592 39 l 592 38 l 589 37 l 583 33 l 578 30 l 572 27 l 566 24 l 562 22 l 559 21 l 555 20 l 553 18 l 547 16 l 541 13 l 538 12 l 535 11 l 532 10 l 530 9 l 527 9 l 525 7 l 520 7 l 518 6 l 516 5 l 512 5 l 509 4 l 505 3 l 502 3 l 499 3 l 496 2 l 494 2 l 492 2 l 491 2 l 490 2 l 490 2 l 488 2 l 487 2 l 486 2 l 484 2 l 481 2 l 479 2 l 477 1 l 475 1 l 472 1 l 469 1 l 467 1 l 463 1 l 460 1 l 456 1 l 452 1 l 448 1 l 444 1 l 439 1 l 435 1 l 430 1 l 425 1 l 420 1 l 414 1 l 409 1 l 403 1 l 397 1 l 391 1 l 378 1 l 372 1 l 367 1 l 355 1 l 350 1 l 345 1 l 340 1 l 335 1 l 326 1 l 317 1 l 312 1 l 309 1 l 304 1 l 300 1 l 294 1 l 287 1 l 283 1 l 281 1 l 275 2 l 273 2 l 271 2 l 268 3 l 266 3 l 264 3 l 262 3 l 255 4 l 249 5 l 242 7 l 236 8 l 230 9 l 227 11 l 224 12 l 218 13 l 213 15 l 208 18 l 202 20 l 197 22 l 192 24 l 186 27 l 181 31 l 176 33 l 171 37 l 165 40 l 161 43 l 155 47 l 151 51 l 146 55 l 141 59 l 137 64 l 133 68 l 128 73 l 124 77 l 121 83 l 117 87 l 113 93 l 110 98 l 106 104 l 104 110 l 100 115 l 98 121 l 95 128 l 93 134 l 91 141 l 88 148 l 87 155 l 85 161 l 83 168 l 83 172 l 83 175 l 82 178 l 81 181 l 81 187 l 80 192 l 79 197 l 79 199 l 79 201 l 79 205 l 79 208 l 79 210 l 79 212 l 79 214 l 79 216 l 79 217 l 79 219 l 79 221 l 79 223 l 79 225 l 79 228 l 79 231 l 79 233 l 80 235 l 80 238 l 80 241 l 80 244 l 80 248 l 80 250 l 80 254 l 80 257 l 80 261 l 80 264 l 80 269 l 80 272 l 80 276 l 80 280 l 80 285 l 80 289 l 80 291 l 80 293 l 80 302 l 80 310 l 80 318 l 80 326 l 80 332 l 81 339 l 81 346 l 81 351 l 81 353 l 81 358 l 81 363 l 81 367 l 82 371 l 82 374 l 83 377 l 83 380 l 83 382 l 85 389 l 85 391 l 86 394 l 87 400 l 89 404 l 90 406 l 92 412 l 94 418 l 97 424 l 100 430 l 103 436 l 106 441 l 110 447 l 112 450 l 115 452 l 119 458 l 121 460 l 123 463 l 129 467 l 134 472 l 136 473 l 137 474 l 138 475 l 139 476 l 140 477 l 140 479 l 141 479 l 141 481 l 140 481 l 140 482 l 140 484 l 137 486 l 135 488 l 132 492 l 128 496 l 125 500 l 122 503 l 119 507 l 117 511 l 114 514 l 112 517 l 109 521 l 107 524 l 103 530 l 99 537 l 96 543 l 95 545 l 94 549 l 92 551 l 92 554 l 89 560 l 88 563 l 87 566 l 87 569 l 86 572 l 85 578 l 83 585 l 83 591 l 82 593 l 82 595 l 81 599 l 81 602 l 81 606 l 81 609 l 81 613 l 81 617 l 81 622 l 81 626 l 81 631 l 81 635 l 81 641 l 81 646 l 81 652 l 81 657 l 81 663 l 81 669 l 81 677 l 81 681 l 81 685 l 81 693 l 81 702 l 81 711 l 81 721 l 81 730 l 81 741 l 81 741 l 81 742 l 81 743 l 81 743 l 81 745 l 81 746 l 81 747 l 81 748 l 81 749 l 80 751 l 80 752 l 80 755 l 80 758 l 80 759 l 80 762 l 81 764 l 81 768 l 81 770 l 81 773 l 82 775 l 82 778 l 83 781 l 83 784 l 85 790 l 85 793 l 86 796 l 87 803 l 90 810 l 92 817 l 94 823 l 97 829 l 100 836 l 103 842 l 106 848 l 111 854 l 114 860 l 118 865 l 122 871 l 126 876 l 131 881 l 135 886 l 140 890 l 144 895 l 150 899 l 155 903 l 161 907 l 166 911 l 172 915 l 179 919 l 186 922 l 193 926 l 199 928 l 203 930 l 206 931 l 212 934 l 219 937 l 225 939 l 231 940 l 237 942 l 243 943 l 250 944 l 256 945 l 262 946 l 270 947 l 277 947 l 283 948 l 291 948 l 295 949 l 299 949 l 303 949 l 309 949 l 313 949 l 319 949 l 325 949 l 331 949 l 338 949 l 345 949 l 351 949 l 359 949 l 367 949 l 375 949 l 383 949 l 392 949 l 396 949 l 401 949 l 405 949 l 409 949 l 412 949 l 416 949 l 420 949 l 423 949 l 427 949 l 430 949 l 433 949 l 435 949 l 438 949 l 441 949 l 444 949 l 446 949 l 448 949 l 450 949 l 452 949 l 453 949 l 455 949 l 456 949 l 458 949 l 459 949 l 460 949 l 461 949 l 462 949 l 463 949 l 463 949 l 464 949 l 471 949 l 479 948 l 486 947 l 492 947 l 499 945 l 507 945 l 513 943 l 520 942 m 492 390 l 490 391 l 486 393 l 484 394 l 480 395 l 477 396 l 473 397 l 470 398 l 466 398 l 462 399 l 458 399 l 454 400 l 450 400 l 445 400 l 440 400 l 435 400 l 431 400 l 313 399 l 311 399 l 308 399 l 302 398 l 300 397 l 296 397 l 293 396 l 289 395 l 285 395 l 281 393 l 278 393 l 275 391 l 273 389 l 270 388 l 268 386 l 266 384 l 264 382 l 262 380 l 261 377 l 260 374 l 258 372 l 257 369 l 256 366 l 255 362 l 254 356 l 252 353 l 252 349 l 251 342 l 250 338 l 250 335 l 250 334 l 250 333 l 250 332 l 250 332 l 250 330 l 250 330 l 250 329 l 250 326 l 250 324 l 250 321 l 250 319 l 250 315 l 250 311 l 250 307 l 250 302 l 250 298 l 250 293 l 250 288 l 250 282 l 250 277 l 250 271 l 250 267 l 250 262 l 250 257 l 250 253 l 250 248 l 250 244 l 250 240 l 250 237 l 250 233 l 251 230 l 251 227 l 251 224 l 252 221 l 252 216 l 253 211 l 254 206 l 255 203 l 256 201 l 256 199 l 258 197 l 258 195 l 260 193 l 261 191 l 262 189 l 264 184 l 266 183 l 268 181 l 269 180 l 271 178 l 273 177 l 276 176 l 278 175 l 281 174 l 283 173 l 286 172 l 289 172 l 292 172 l 295 171 l 298 170 l 302 170 l 306 170 l 454 169 l 454 169 l 456 169 l 458 169 l 461 170 l 463 170 l 464 170 l 465 170 l 469 170 l 470 170 l 471 170 l 471 170 l 475 172 l 475 172 l 477 172 l 478 172 l 481 173 l 481 174 l 482 174 l 484 174 l 486 176 l 489 177 l 492 178 l 492 179 l 493 180 l 494 180 l 496 182 l 498 184 l 500 186 l 500 187 l 501 188 l 502 189 l 503 190 l 504 193 l 505 195 l 506 197 l 507 201 l 508 203 l 509 207 l 509 208 l 509 209 l 509 210 l 510 214 l 511 218 l 511 222 l 511 227 l 512 231 l 512 236 l 512 241 l 510 355 l 509 357 l 509 359 l 509 363 l 509 366 l 508 368 l 507 371 l 507 372 l 506 374 l 505 376 l 505 377 l 504 378 l 503 380 l 502 381 l 501 382 l 500 384 l 499 385 l 497 387 l 495 389 l 492 390 m 305 785 l 300 783 l 295 783 l 292 783 l 289 783 l 286 782 l 283 781 l 280 780 l 277 779 l 275 777 l 273 776 l 271 774 l 268 772 l 266 770 l 264 768 l 262 766 l 259 761 l 257 758 l 256 755 l 254 750 l 252 745 l 250 739 l 250 736 l 249 733 l 249 730 l 248 727 l 249 720 l 249 629 l 249 625 l 249 621 l 250 617 l 251 612 l 252 610 l 252 607 l 254 602 l 256 596 l 258 590 l 259 588 l 260 585 l 262 583 l 264 580 l 265 578 l 267 576 l 268 574 l 270 572 l 272 571 l 273 569 l 275 568 l 277 567 l 279 566 l 281 566 l 283 565 l 286 564 l 288 564 l 290 564 l 291 564 l 294 564 l 296 564 l 298 564 l 300 564 l 301 564 l 306 564 l 311 564 l 315 563 l 320 563 l 326 563 l 332 563 l 338 563 l 345 564 l 352 564 l 359 564 l 363 564 l 368 564 l 374 564 l 380 564 l 387 564 l 393 563 l 399 563 l 402 563 l 405 563 l 410 563 l 416 563 l 421 564 l 427 564 l 431 564 l 436 564 l 441 564 l 443 564 l 445 564 l 449 564 l 453 564 l 457 564 l 460 565 l 464 565 l 465 565 l 467 566 l 467 566 l 470 566 l 473 566 l 476 566 l 479 567 l 481 567 l 483 568 l 485 568 l 487 568 l 488 569 l 490 570 l 491 570 l 492 570 l 493 571 l 494 572 l 494 572 l 495 572 l 496 573 l 497 574 l 498 575 l 499 577 l 501 579 l 503 581 l 503 584 l 505 587 l 505 587 l 505 588 l 506 589 l 506 591 l 507 593 l 507 594 l 507 595 l 507 596 l 508 597 l 508 599 l 508 600 l 509 603 l 509 607 l 509 611 l 510 615 l 510 731 l 510 732 l 509 736 l 509 739 l 509 743 l 508 746 l 507 749 l 507 752 l 506 755 l 505 758 l 504 760 l 503 763 l 502 765 l 500 767 l 498 769 l 497 771 l 496 773 l 494 774 l 492 777 l 490 778 l 488 779 l 485 781 l 482 781 l 479 782 l 477 783 l 474 783 l 471 784 l 468 785 l 464 785 l 461 785 l 457 785 l 453 785 l 450 785 l 446 784 l 305 785 z "},"9":{"ha":749,"x_min":76,"x_max":673,"o":"m 501 390 l 302 390 l 294 390 l 286 390 l 278 391 l 271 391 l 262 392 l 254 393 l 247 394 l 239 395 l 235 397 l 231 397 l 227 399 l 224 399 l 220 400 l 217 401 l 211 404 l 205 406 l 199 408 l 195 410 l 193 411 l 191 412 l 186 414 l 182 417 l 178 420 l 173 423 l 172 424 l 172 424 l 172 425 l 171 425 l 169 427 l 168 427 l 167 427 l 167 428 l 166 428 l 164 429 l 161 431 l 160 432 l 160 433 l 159 433 l 159 433 l 154 437 l 149 441 l 146 443 l 144 445 l 140 449 l 135 454 l 131 458 l 127 463 l 123 469 l 119 474 l 115 480 l 112 486 l 106 496 l 102 502 l 100 507 l 97 513 l 95 517 l 92 523 l 90 528 l 88 533 l 86 538 l 85 544 l 83 549 l 82 554 l 81 559 l 80 564 l 79 568 l 79 573 l 79 576 l 79 580 l 78 583 l 78 585 l 79 588 l 76 741 l 76 741 l 76 749 l 76 758 l 77 765 l 77 772 l 78 780 l 79 787 l 81 793 l 83 800 l 85 807 l 87 814 l 90 820 l 92 827 l 95 833 l 98 840 l 102 846 l 106 852 l 109 859 l 113 865 l 117 871 l 122 877 l 126 882 l 131 886 l 136 891 l 141 896 l 146 899 l 152 903 l 157 907 l 162 911 l 168 916 l 174 919 l 179 922 l 185 926 l 191 929 l 197 932 l 203 935 l 208 937 l 214 940 l 220 941 l 226 943 l 232 945 l 238 945 l 244 947 l 250 947 l 256 948 l 262 949 l 267 949 l 273 949 l 279 950 l 477 950 l 482 950 l 486 949 l 491 949 l 495 949 l 500 949 l 504 948 l 508 948 l 512 947 l 515 947 l 519 945 l 523 945 l 526 944 l 530 943 l 533 942 l 539 939 l 545 937 l 551 934 l 557 930 l 563 928 l 568 924 l 574 921 l 579 918 l 585 914 l 590 910 l 595 906 l 600 902 l 602 900 l 605 897 l 610 893 l 614 888 l 618 884 l 623 878 l 627 873 l 631 868 l 634 863 l 638 857 l 642 851 l 645 845 l 648 840 l 650 833 l 653 827 l 656 820 l 658 814 l 660 807 l 662 800 l 664 793 l 665 787 l 667 779 l 668 767 l 669 755 l 671 743 l 671 730 l 672 349 l 672 348 l 672 346 l 673 344 l 673 342 l 673 339 l 673 338 l 673 336 l 673 334 l 673 330 l 673 326 l 673 322 l 673 318 l 673 313 l 673 309 l 673 303 l 673 300 l 673 298 l 673 292 l 672 286 l 672 281 l 672 275 l 672 270 l 671 264 l 671 260 l 671 254 l 671 250 l 671 245 l 671 241 l 671 236 l 671 232 l 671 228 l 672 224 l 672 220 l 672 216 l 672 210 l 672 203 l 671 196 l 671 189 l 670 182 l 669 174 l 667 167 l 666 160 l 665 158 l 665 157 l 665 153 l 663 149 l 663 146 l 661 140 l 660 138 l 659 136 l 658 133 l 657 130 l 656 127 l 654 123 l 653 121 l 652 117 l 650 115 l 648 109 l 644 103 l 644 102 l 643 100 l 641 98 l 640 95 l 637 92 l 635 90 l 634 87 l 633 85 l 633 85 l 632 84 l 630 81 l 626 76 l 622 71 l 621 70 l 619 68 l 617 66 l 612 61 l 608 56 l 607 56 l 606 55 l 606 54 l 604 52 l 599 47 l 594 44 l 589 40 l 585 37 l 580 33 l 577 32 l 575 31 l 572 29 l 570 28 l 564 24 l 559 22 l 553 19 l 547 16 l 541 14 l 538 13 l 536 12 l 535 12 l 532 10 l 529 9 l 526 8 l 523 7 l 520 7 l 517 5 l 515 5 l 512 4 l 510 4 l 507 3 l 505 3 l 503 2 l 501 2 l 499 2 l 497 2 l 495 1 l 492 1 l 489 1 l 486 1 l 483 1 l 481 1 l 479 1 l 479 1 l 477 1 l 475 1 l 473 1 l 472 1 l 471 1 l 469 1 l 467 1 l 464 1 l 461 1 l 458 1 l 454 1 l 299 1 l 298 1 l 293 1 l 288 1 l 282 1 l 277 1 l 272 1 l 267 1 l 262 1 l 258 1 l 254 1 l 250 2 l 246 2 l 242 3 l 239 3 l 235 4 l 232 5 l 229 5 l 222 7 l 216 9 l 210 12 l 205 14 l 199 16 l 193 19 l 188 22 l 183 25 l 178 28 l 172 31 l 168 35 l 162 39 l 157 43 l 152 47 l 147 52 l 142 56 l 138 60 l 133 65 l 128 70 l 126 72 l 124 75 l 122 77 l 121 79 l 117 84 l 113 89 l 112 92 l 111 94 l 108 99 l 104 104 l 102 109 l 100 115 l 97 121 l 95 126 l 93 132 l 91 138 l 89 144 l 87 151 l 85 156 l 84 161 l 83 167 l 82 172 l 81 177 l 80 181 l 79 186 l 79 190 l 79 194 l 78 197 l 78 201 l 78 204 l 78 207 l 78 210 l 242 266 l 242 253 l 242 240 l 243 227 l 245 214 l 245 211 l 245 208 l 246 205 l 248 202 l 248 199 l 250 197 l 251 195 l 253 192 l 254 190 l 256 188 l 258 186 l 260 184 l 263 183 l 266 181 l 269 180 l 271 179 l 275 178 l 277 177 l 280 176 l 283 175 l 287 174 l 290 174 l 293 174 l 296 173 l 300 172 l 304 172 l 311 172 l 315 172 l 318 171 l 326 171 l 447 173 l 449 173 l 450 174 l 452 174 l 452 174 l 455 174 l 458 174 l 460 174 l 464 175 l 465 175 l 467 175 l 469 176 l 471 176 l 472 176 l 473 176 l 473 177 l 474 177 l 475 177 l 476 178 l 477 178 l 477 178 l 479 180 l 481 181 l 482 182 l 483 183 l 485 184 l 485 185 l 486 185 l 486 186 l 486 186 l 488 189 l 490 191 l 491 193 l 492 196 l 493 197 l 494 199 l 495 201 l 496 205 l 497 208 l 498 209 l 498 210 l 498 211 l 499 214 l 500 218 l 500 222 l 501 225 l 502 229 l 502 230 l 502 231 l 502 231 l 502 233 l 502 237 l 503 241 l 503 245 l 503 250 l 503 254 l 502 259 l 502 263 l 502 264 l 501 390 m 503 625 l 501 707 l 501 710 l 501 717 l 500 724 l 500 727 l 500 730 l 499 733 l 499 736 l 498 742 l 496 747 l 495 751 l 494 753 l 493 756 l 492 758 l 490 761 l 489 763 l 487 765 l 486 767 l 484 769 l 481 770 l 479 772 l 477 774 l 475 775 l 473 776 l 471 777 l 468 778 l 465 779 l 463 779 l 459 779 l 456 780 l 452 781 l 447 781 l 443 782 l 439 783 l 437 783 l 434 783 l 433 783 l 433 783 l 431 783 l 430 783 l 429 783 l 428 783 l 427 783 l 426 783 l 321 781 l 317 781 l 313 781 l 309 781 l 304 781 l 300 781 l 296 781 l 293 781 l 290 780 l 286 779 l 283 779 l 280 778 l 277 777 l 274 776 l 271 774 l 269 773 l 267 772 l 264 770 l 262 769 l 259 766 l 256 763 l 254 761 l 253 759 l 250 755 l 249 753 l 248 751 l 246 747 l 245 743 l 245 740 l 244 736 l 243 734 l 243 730 l 242 728 l 242 726 l 242 724 l 242 722 l 243 613 l 244 610 l 245 608 l 245 602 l 246 600 l 247 597 l 248 595 l 249 592 l 250 590 l 251 587 l 253 583 l 254 582 l 256 580 l 257 578 l 258 576 l 261 573 l 264 570 l 267 568 l 271 566 l 274 564 l 277 563 l 281 562 l 284 561 l 288 561 l 290 561 l 291 560 l 292 560 l 294 560 l 296 559 l 298 559 l 299 559 l 300 559 l 300 559 l 302 559 l 304 559 l 439 561 l 440 561 l 443 561 l 446 561 l 448 561 l 450 561 l 454 562 l 457 562 l 460 563 l 463 563 l 464 564 l 467 564 l 470 566 l 471 566 l 471 566 l 473 566 l 475 568 l 478 569 l 480 571 l 483 572 l 485 574 l 487 576 l 488 578 l 490 581 l 492 583 l 494 585 l 495 589 l 496 591 l 497 594 l 498 597 l 499 600 l 500 602 l 500 602 l 500 603 l 500 606 l 501 610 l 502 613 l 502 616 l 503 621 l 503 624 l 503 625 z "}," ":{"ha":407,"x_min":0,"x_max":0,"o":""}," ":{"ha":407,"x_min":0,"x_max":0,"o":""},"A":{"ha":762,"x_min":73,"x_max":671,"o":"m 284 949 l 451 949 l 671 3 l 503 2 l 468 157 l 275 155 l 240 2 l 73 1 l 284 949 m 367 619 l 364 618 l 363 617 l 361 616 l 360 615 l 359 614 l 359 613 l 358 612 l 358 610 l 304 335 l 304 333 l 305 332 l 305 330 l 305 330 l 306 329 l 307 328 l 307 328 l 307 326 l 309 326 l 310 323 l 311 323 l 312 322 l 313 321 l 313 320 l 315 320 l 316 319 l 319 319 l 321 319 l 323 319 l 324 319 l 327 319 l 328 319 l 328 319 l 330 319 l 332 319 l 333 319 l 334 319 l 336 319 l 338 319 l 340 319 l 345 319 l 347 319 l 349 319 l 352 319 l 355 319 l 361 319 l 365 319 l 368 319 l 376 319 l 380 319 l 384 319 l 388 319 l 393 319 l 397 319 l 402 319 l 412 319 l 414 319 l 415 319 l 418 319 l 419 319 l 420 319 l 423 320 l 425 320 l 428 321 l 429 321 l 431 321 l 432 321 l 433 322 l 434 323 l 435 323 l 436 324 l 437 326 l 438 326 l 439 328 l 439 329 l 440 330 l 440 330 l 441 331 l 441 332 l 441 332 l 441 333 l 441 334 l 441 335 l 441 336 l 411 474 l 381 612 l 379 614 l 378 616 l 376 618 l 374 619 l 372 620 l 371 620 l 370 620 l 368 620 l 367 619 z "},"B":{"ha":756,"x_min":73,"x_max":683,"o":"m 592 913 l 597 908 l 602 905 l 610 898 l 619 890 l 623 886 l 628 882 l 630 880 l 632 878 l 637 874 l 640 869 l 642 867 l 644 865 l 646 863 l 648 860 l 652 854 l 653 852 l 655 849 l 659 844 l 661 838 l 662 837 l 663 836 l 664 832 l 665 829 l 667 827 l 669 821 l 671 816 l 672 813 l 673 810 l 673 809 l 673 808 l 673 808 l 674 805 l 675 800 l 676 798 l 677 795 l 677 793 l 677 792 l 677 789 l 678 787 l 678 785 l 679 783 l 679 781 l 679 779 l 679 778 l 679 777 l 680 777 l 680 775 l 680 774 l 680 772 l 680 770 l 680 768 l 680 767 l 680 766 l 680 765 l 680 607 l 680 604 l 680 603 l 680 602 l 680 602 l 680 599 l 680 593 l 680 587 l 679 581 l 679 579 l 679 577 l 678 574 l 677 571 l 677 568 l 677 565 l 677 564 l 677 563 l 677 562 l 675 555 l 675 552 l 675 549 l 673 546 l 673 545 l 673 543 l 672 542 l 672 540 l 671 537 l 670 536 l 670 535 l 669 534 l 668 531 l 665 526 l 663 520 l 661 517 l 660 515 l 658 513 l 656 510 l 655 508 l 654 505 l 652 503 l 651 502 l 651 501 l 650 500 l 650 500 l 649 498 l 647 496 l 644 492 l 643 491 l 642 489 l 641 488 l 640 488 l 640 487 l 640 486 l 641 485 l 641 484 l 642 484 l 642 484 l 643 483 l 644 481 l 645 481 l 646 480 l 647 479 l 648 477 l 650 476 l 652 473 l 654 471 l 656 469 l 657 468 l 659 465 l 661 463 l 663 460 l 664 458 l 666 455 l 667 452 l 669 450 l 669 446 l 671 443 l 672 440 l 673 437 l 675 430 l 675 427 l 676 424 l 676 422 l 677 421 l 677 418 l 679 412 l 680 406 l 680 399 l 681 393 l 681 387 l 682 382 l 682 376 l 683 370 l 683 370 l 683 368 l 683 368 l 683 366 l 683 365 l 683 363 l 683 361 l 683 359 l 683 357 l 683 355 l 683 353 l 683 350 l 683 347 l 683 345 l 683 342 l 683 338 l 683 335 l 683 332 l 683 328 l 683 324 l 683 320 l 683 316 l 683 312 l 683 307 l 683 302 l 683 298 l 683 293 l 683 288 l 683 283 l 683 277 l 683 271 l 683 266 l 682 260 l 682 254 l 682 249 l 682 244 l 682 239 l 682 234 l 682 229 l 682 224 l 682 220 l 682 216 l 682 212 l 682 208 l 682 205 l 682 201 l 682 198 l 682 195 l 682 192 l 682 189 l 682 186 l 682 184 l 681 182 l 681 180 l 681 178 l 681 176 l 681 174 l 681 173 l 681 172 l 681 171 l 681 170 l 681 170 l 681 169 l 681 168 l 680 168 l 680 166 l 680 165 l 680 163 l 679 161 l 679 159 l 678 157 l 678 154 l 677 149 l 675 144 l 674 138 l 673 133 l 671 127 l 669 122 l 667 117 l 665 111 l 662 106 l 660 100 l 657 95 l 654 90 l 652 86 l 649 81 l 646 77 l 643 73 l 640 68 l 635 64 l 632 59 l 627 54 l 623 49 l 618 45 l 614 40 l 610 36 l 608 34 l 607 33 l 606 33 l 606 33 l 602 28 l 601 28 l 600 28 l 599 26 l 597 24 l 595 23 l 592 21 l 591 20 l 591 20 l 590 20 l 587 18 l 585 16 l 583 15 l 580 13 l 577 12 l 574 10 l 572 9 l 568 7 l 566 7 l 562 5 l 561 5 l 559 5 l 557 5 l 556 4 l 555 4 l 555 4 l 554 4 l 553 3 l 549 3 l 548 3 l 546 3 l 545 3 l 545 3 l 544 3 l 543 3 l 541 3 l 540 3 l 538 3 l 536 2 l 533 2 l 531 2 l 528 2 l 527 2 l 526 2 l 522 2 l 519 2 l 515 2 l 511 2 l 507 2 l 503 2 l 498 2 l 494 2 l 489 2 l 484 2 l 479 2 l 473 2 l 467 2 l 461 2 l 455 2 l 449 2 l 442 2 l 435 2 l 429 2 l 421 1 l 414 1 l 406 1 l 398 1 l 390 1 l 382 1 l 373 1 l 364 1 l 355 1 l 346 1 l 337 1 l 327 1 l 317 1 l 307 1 l 297 1 l 286 1 l 275 1 l 264 1 l 254 1 l 242 1 l 231 1 l 218 1 l 207 1 l 195 1 l 182 1 l 170 1 l 157 1 l 143 1 l 130 1 l 117 1 l 102 1 l 89 1 l 75 1 l 74 164 l 127 165 l 125 777 l 73 777 l 73 947 l 463 949 l 467 949 l 472 949 l 477 949 l 483 948 l 489 947 l 495 947 l 502 945 l 508 945 l 515 943 l 522 942 l 528 940 l 534 939 l 541 937 l 547 935 l 553 932 l 559 930 l 564 928 l 570 926 l 575 923 l 580 920 l 585 917 l 592 913 m 473 772 l 471 774 l 468 775 l 465 777 l 463 777 l 459 778 l 456 779 l 453 780 l 450 780 l 447 781 l 444 781 l 440 781 l 437 781 l 433 781 l 429 781 l 426 781 l 425 781 l 295 779 l 297 568 l 450 568 l 453 568 l 456 569 l 460 570 l 463 570 l 466 571 l 469 572 l 472 572 l 473 573 l 475 574 l 476 574 l 477 574 l 480 576 l 483 577 l 486 579 l 486 579 l 487 580 l 488 581 l 490 583 l 493 585 l 495 586 l 496 587 l 498 589 l 498 589 l 500 591 l 500 592 l 501 593 l 503 594 l 503 595 l 505 598 l 505 600 l 506 600 l 506 601 l 507 602 l 507 602 l 507 604 l 507 605 l 508 606 l 509 607 l 509 608 l 509 608 l 509 610 l 510 612 l 510 613 l 510 615 l 511 617 l 511 621 l 511 623 l 511 623 l 511 624 l 511 628 l 511 629 l 511 630 l 511 631 l 511 634 l 511 634 l 511 635 l 511 636 l 511 642 l 511 648 l 511 653 l 512 659 l 512 663 l 512 669 l 512 673 l 512 678 l 512 683 l 512 687 l 512 691 l 512 695 l 512 699 l 512 703 l 512 707 l 512 710 l 512 713 l 511 717 l 511 720 l 511 722 l 511 725 l 511 728 l 511 730 l 510 732 l 509 736 l 509 739 l 509 740 l 508 741 l 507 743 l 507 743 l 507 745 l 504 748 l 501 751 l 500 753 l 498 755 l 494 758 l 490 762 l 486 765 l 484 766 l 479 770 l 473 772 m 297 165 l 437 164 l 437 164 l 440 164 l 443 164 l 446 164 l 446 165 l 447 165 l 448 165 l 454 165 l 456 165 l 458 165 l 458 165 l 461 166 l 464 167 l 466 167 l 469 168 l 471 168 l 473 169 l 478 170 l 479 171 l 480 172 l 483 172 l 484 173 l 484 174 l 485 174 l 486 174 l 488 175 l 490 176 l 492 178 l 492 179 l 494 180 l 495 182 l 497 184 l 498 184 l 498 185 l 498 185 l 498 186 l 500 188 l 500 189 l 500 189 l 501 189 l 502 191 l 503 193 l 505 195 l 505 197 l 506 198 l 507 201 l 507 203 l 508 206 l 509 209 l 510 212 l 510 215 l 511 218 l 511 220 l 511 224 l 512 227 l 512 229 l 512 230 l 512 233 l 513 236 l 513 239 l 513 243 l 512 247 l 512 250 l 512 329 l 512 330 l 512 330 l 512 332 l 512 333 l 512 334 l 511 336 l 511 337 l 511 338 l 511 339 l 511 340 l 511 342 l 510 343 l 510 345 l 509 347 l 509 347 l 509 349 l 508 350 l 508 351 l 507 353 l 507 355 l 506 357 l 505 359 l 503 364 l 502 366 l 500 368 l 499 370 l 498 372 l 494 376 l 491 379 l 487 382 l 482 385 l 479 387 l 477 388 l 475 389 l 472 391 l 469 392 l 467 393 l 464 394 l 461 395 l 458 396 l 455 397 l 452 397 l 448 398 l 445 398 l 442 399 l 439 399 l 435 399 l 298 400 l 297 165 z "},"G":{"ha":786,"x_min":81,"x_max":689,"o":"m 522 945 l 528 944 l 534 943 l 539 942 l 545 940 l 549 939 l 555 937 l 560 935 l 566 932 l 570 930 l 576 927 l 581 924 l 585 922 l 590 919 l 595 916 l 599 913 l 603 909 l 611 903 l 615 899 l 619 895 l 623 891 l 627 888 l 635 879 l 638 875 l 642 871 l 646 867 l 649 862 l 652 858 l 655 853 l 658 848 l 661 844 l 663 839 l 665 834 l 668 829 l 670 825 l 672 820 l 673 815 l 675 810 l 677 805 l 678 800 l 680 795 l 681 791 l 682 785 l 683 780 l 684 774 l 684 769 l 685 764 l 686 761 l 686 760 l 686 760 l 686 758 l 686 755 l 686 753 l 686 751 l 686 748 l 686 743 l 522 684 l 522 689 l 521 694 l 520 699 l 519 703 l 519 707 l 519 711 l 519 715 l 519 719 l 519 722 l 518 726 l 517 730 l 517 732 l 517 733 l 515 737 l 514 741 l 514 742 l 513 743 l 513 745 l 511 748 l 510 750 l 509 752 l 507 755 l 505 757 l 504 759 l 501 762 l 498 764 l 496 766 l 494 767 l 490 769 l 486 771 l 484 772 l 481 773 l 479 774 l 476 774 l 471 776 l 469 776 l 467 777 l 464 777 l 461 777 l 458 777 l 456 777 l 453 777 l 450 777 l 448 777 l 328 777 l 323 776 l 317 776 l 311 775 l 307 774 l 301 773 l 296 772 l 292 770 l 287 769 l 283 767 l 279 765 l 277 764 l 275 763 l 274 762 l 273 760 l 271 759 l 269 757 l 268 755 l 267 753 l 264 749 l 263 747 l 262 745 l 260 741 l 258 736 l 258 734 l 257 732 l 256 727 l 255 723 l 254 720 l 254 718 l 254 716 l 254 714 l 254 712 l 254 711 l 254 709 l 254 708 l 254 707 l 254 706 l 256 259 l 256 255 l 256 251 l 255 243 l 255 239 l 256 236 l 256 232 l 256 229 l 256 225 l 256 222 l 257 218 l 257 216 l 258 213 l 258 210 l 258 207 l 259 204 l 260 202 l 261 199 l 262 195 l 263 193 l 264 191 l 265 189 l 267 187 l 268 185 l 269 184 l 271 182 l 272 181 l 274 180 l 275 178 l 277 178 l 279 176 l 282 175 l 286 174 l 290 172 l 294 172 l 298 170 l 302 170 l 306 170 l 310 169 l 311 169 l 461 170 l 462 170 l 464 171 l 465 171 l 465 171 l 467 171 l 469 172 l 472 172 l 475 172 l 478 172 l 479 173 l 481 173 l 483 174 l 485 174 l 488 176 l 490 176 l 492 178 l 493 178 l 495 180 l 496 181 l 498 182 l 500 184 l 501 186 l 503 187 l 505 189 l 507 191 l 508 193 l 509 195 l 509 196 l 510 196 l 511 197 l 511 199 l 511 199 l 511 199 l 513 202 l 513 203 l 513 204 l 514 207 l 515 209 l 515 210 l 515 212 l 516 214 l 517 217 l 517 219 l 517 220 l 517 223 l 517 226 l 517 229 l 517 242 l 516 255 l 516 268 l 516 282 l 414 283 l 415 451 l 688 451 l 688 439 l 688 429 l 688 419 l 688 409 l 688 399 l 688 390 l 688 381 l 689 372 l 689 363 l 689 355 l 689 347 l 689 343 l 689 340 l 689 332 l 689 326 l 689 319 l 689 315 l 689 314 l 689 312 l 689 309 l 689 306 l 689 300 l 689 295 l 689 290 l 689 288 l 689 288 l 689 285 l 689 280 l 689 276 l 689 272 l 688 269 l 688 265 l 688 264 l 688 262 l 688 259 l 688 256 l 688 254 l 688 253 l 688 251 l 688 239 l 687 228 l 686 216 l 686 203 l 686 202 l 686 201 l 685 197 l 684 192 l 684 189 l 684 186 l 683 180 l 682 174 l 681 172 l 681 170 l 680 170 l 680 169 l 680 168 l 680 167 l 679 164 l 677 159 l 675 154 l 674 149 l 672 144 l 671 139 l 669 134 l 667 130 l 665 125 l 663 121 l 663 119 l 662 118 l 661 117 l 661 117 l 659 113 l 657 109 l 656 106 l 655 104 l 654 102 l 653 100 l 650 96 l 648 93 l 646 89 l 643 85 l 640 81 l 637 77 l 634 74 l 631 70 l 627 66 l 624 62 l 620 58 l 616 54 l 612 50 l 608 47 l 605 43 l 601 40 l 597 37 l 593 35 l 589 33 l 586 30 l 582 28 l 578 26 l 574 23 l 569 21 l 564 18 l 559 16 l 555 14 l 550 12 l 545 10 l 541 8 l 536 7 l 532 5 l 527 5 l 523 4 l 519 3 l 517 3 l 517 3 l 516 3 l 515 3 l 513 3 l 511 3 l 509 3 l 505 3 l 504 3 l 502 3 l 498 3 l 496 3 l 494 3 l 489 3 l 484 3 l 481 3 l 478 2 l 475 2 l 472 2 l 469 2 l 466 2 l 459 2 l 456 2 l 452 2 l 444 2 l 441 2 l 439 2 l 437 2 l 433 2 l 429 2 l 420 2 l 415 2 l 410 2 l 401 1 l 396 1 l 391 1 l 386 1 l 381 1 l 376 1 l 370 1 l 365 1 l 359 1 l 348 1 l 336 1 l 324 1 l 317 1 l 311 1 l 298 1 l 286 1 l 285 1 l 279 1 l 273 1 l 268 1 l 262 2 l 257 3 l 252 3 l 247 5 l 242 6 l 232 9 l 222 12 l 216 14 l 212 16 l 206 18 l 201 20 l 196 22 l 191 24 l 186 27 l 182 29 l 178 32 l 173 35 l 169 38 l 165 41 l 161 44 l 157 47 l 153 50 l 149 54 l 142 60 l 135 67 l 132 71 l 128 75 l 125 79 l 122 83 l 119 87 l 117 91 l 114 96 l 112 100 l 109 104 l 107 109 l 105 114 l 103 119 l 102 123 l 100 128 l 98 133 l 96 138 l 94 148 l 92 153 l 91 157 l 89 166 l 87 170 l 87 174 l 86 179 l 85 183 l 84 187 l 84 191 l 83 195 l 83 199 l 83 203 l 83 206 l 81 726 l 81 731 l 81 736 l 81 741 l 82 745 l 82 749 l 83 753 l 83 758 l 83 762 l 83 765 l 84 768 l 84 772 l 85 775 l 85 778 l 85 781 l 86 783 l 86 786 l 87 791 l 88 795 l 90 800 l 91 805 l 93 810 l 94 814 l 98 824 l 103 834 l 108 843 l 113 852 l 119 861 l 122 866 l 125 871 l 128 875 l 132 879 l 136 884 l 139 888 l 143 892 l 147 895 l 151 899 l 155 903 l 159 907 l 164 910 l 168 913 l 173 916 l 178 920 l 182 922 l 192 927 l 202 932 l 212 937 l 222 940 l 227 942 l 232 943 l 237 945 l 243 945 l 248 947 l 254 947 l 260 947 l 266 947 l 288 948 l 300 948 l 311 949 l 313 949 l 477 949 l 489 948 l 495 948 l 501 947 l 512 946 l 522 945 z "},"F":{"ha":771,"x_min":85,"x_max":689,"o":"m 689 949 l 689 780 l 260 779 l 263 557 l 570 559 l 570 387 l 260 387 l 262 1 l 89 1 l 85 949 l 689 949 z "},"E":{"ha":773,"x_min":85,"x_max":690,"o":"m 684 774 l 264 772 l 261 556 l 572 556 l 572 386 l 263 385 l 263 174 l 690 176 l 690 4 l 90 1 l 85 949 l 685 949 l 684 774 z "},"D":{"ha":760,"x_min":75,"x_max":684,"o":"m 521 946 l 526 945 l 529 945 l 535 944 l 541 943 l 547 941 l 552 939 l 554 939 l 557 937 l 562 935 l 567 933 l 572 931 l 576 928 l 581 925 l 586 922 l 591 919 l 595 915 l 600 911 l 605 907 l 610 902 l 611 901 l 612 900 l 614 898 l 619 894 l 623 889 l 625 887 l 626 887 l 626 886 l 627 886 l 627 885 l 631 881 l 635 877 l 640 873 l 643 868 l 644 866 l 646 864 l 650 859 l 652 854 l 656 850 l 657 847 l 659 844 l 661 839 l 662 836 l 663 833 l 666 827 l 668 822 l 670 816 l 672 810 l 674 804 l 675 798 l 677 791 l 679 785 l 680 775 l 682 766 l 682 761 l 683 755 l 683 751 l 684 745 l 683 210 l 683 206 l 683 203 l 683 196 l 683 189 l 683 186 l 683 182 l 683 179 l 682 177 l 682 176 l 682 172 l 682 169 l 681 162 l 680 155 l 679 153 l 678 149 l 677 146 l 677 144 l 676 144 l 676 142 l 674 136 l 673 134 l 672 130 l 671 127 l 669 124 l 667 118 l 666 117 l 665 116 l 665 115 l 664 112 l 663 109 l 661 106 l 657 100 l 656 98 l 654 95 l 650 90 l 647 84 l 645 82 l 644 79 l 640 74 l 636 69 l 635 66 l 633 64 l 629 60 l 627 58 l 626 56 l 625 56 l 624 54 l 623 53 l 621 51 l 616 47 l 615 45 l 614 45 l 612 43 l 610 41 l 608 39 l 605 37 l 603 35 l 600 33 l 597 31 l 593 28 l 591 27 l 590 26 l 587 24 l 582 21 l 577 18 l 574 17 l 573 16 l 572 16 l 566 13 l 561 11 l 556 9 l 553 7 l 551 7 l 548 6 l 545 5 l 543 5 l 540 4 l 537 3 l 534 3 l 532 3 l 530 2 l 530 2 l 529 2 l 526 2 l 525 2 l 524 1 l 522 1 l 520 1 l 517 1 l 515 1 l 512 1 l 511 1 l 81 1 l 81 2 l 81 166 l 133 167 l 132 778 l 75 778 l 75 947 l 463 949 l 472 949 l 480 949 l 488 949 l 496 949 l 503 948 l 510 947 l 517 947 l 521 946 m 496 770 l 494 772 l 492 774 l 490 775 l 488 777 l 486 778 l 484 779 l 482 780 l 479 781 l 477 781 l 474 782 l 471 783 l 469 783 l 466 783 l 463 783 l 460 783 l 458 783 l 456 783 l 302 784 l 301 166 l 450 166 l 451 166 l 453 166 l 454 166 l 458 166 l 461 166 l 465 167 l 467 167 l 471 168 l 473 168 l 476 169 l 479 170 l 480 170 l 481 171 l 484 172 l 486 174 l 489 175 l 491 176 l 493 178 l 496 179 l 497 181 l 498 182 l 500 183 l 500 184 l 501 185 l 503 187 l 505 190 l 506 192 l 507 195 l 509 197 l 510 201 l 511 203 l 512 206 l 513 208 l 513 211 l 513 214 l 513 216 l 514 218 l 513 218 l 513 219 l 513 220 l 513 221 l 513 222 l 513 223 l 513 224 l 513 225 l 513 227 l 513 229 l 513 230 l 513 232 l 513 233 l 513 235 l 513 237 l 513 242 l 513 245 l 513 247 l 513 250 l 513 252 l 513 704 l 513 709 l 513 714 l 513 718 l 513 722 l 513 726 l 513 728 l 513 729 l 512 732 l 512 734 l 512 736 l 512 736 l 512 737 l 511 742 l 510 746 l 509 748 l 508 751 l 507 754 l 505 759 l 503 761 l 502 762 l 499 766 l 498 768 l 496 770 z "},"C":{"ha":781,"x_min":78,"x_max":685,"o":"m 491 945 l 497 944 l 503 943 l 510 941 l 516 939 l 522 937 l 528 935 l 534 932 l 540 930 l 545 928 l 551 924 l 557 922 l 563 919 l 568 916 l 574 913 l 578 909 l 584 906 l 589 903 l 594 899 l 600 895 l 604 891 l 608 887 l 612 883 l 616 879 l 621 875 l 627 866 l 631 862 l 635 857 l 638 852 l 642 848 l 645 843 l 648 838 l 651 832 l 654 827 l 657 821 l 661 816 l 663 810 l 665 804 l 668 799 l 670 793 l 671 790 l 672 787 l 673 785 l 674 781 l 675 779 l 675 777 l 675 776 l 676 775 l 676 774 l 677 771 l 677 770 l 677 768 l 678 766 l 679 764 l 680 762 l 680 760 l 681 758 l 681 756 l 681 755 l 682 753 l 682 753 l 682 752 l 682 751 l 682 749 l 683 747 l 684 743 l 684 743 l 684 741 l 684 741 l 684 739 l 684 739 l 684 738 l 684 737 l 684 736 l 685 736 l 517 682 l 517 688 l 515 694 l 514 701 l 513 707 l 511 713 l 510 718 l 507 724 l 505 730 l 503 734 l 501 737 l 500 739 l 498 742 l 497 744 l 496 746 l 494 748 l 491 752 l 490 754 l 488 755 l 486 758 l 485 759 l 481 762 l 479 763 l 477 764 l 475 766 l 473 766 l 471 768 l 469 768 l 466 770 l 463 770 l 460 771 l 457 772 l 454 773 l 451 773 l 448 774 l 444 774 l 441 775 l 437 775 l 338 777 l 337 777 l 330 777 l 323 776 l 321 775 l 317 774 l 311 773 l 306 771 l 300 769 l 294 766 l 292 765 l 289 764 l 286 762 l 283 760 l 281 759 l 279 757 l 277 755 l 275 753 l 272 751 l 271 749 l 269 747 l 267 745 l 264 740 l 262 737 l 261 734 l 260 732 l 258 729 l 256 724 l 255 718 l 253 712 l 252 706 l 252 700 l 251 694 l 251 687 l 251 680 l 252 680 l 254 285 l 254 278 l 254 271 l 253 258 l 253 244 l 253 237 l 253 231 l 254 227 l 254 224 l 254 220 l 254 217 l 256 214 l 256 212 l 257 208 l 258 205 l 260 203 l 261 200 l 263 198 l 264 195 l 267 193 l 269 191 l 271 189 l 273 186 l 275 184 l 278 183 l 283 179 l 288 176 l 291 175 l 294 174 l 297 173 l 300 172 l 302 171 l 306 170 l 312 168 l 315 168 l 318 168 l 319 168 l 444 170 l 448 170 l 451 170 l 454 171 l 458 172 l 459 172 l 460 172 l 464 173 l 467 174 l 468 174 l 469 174 l 471 175 l 471 175 l 473 176 l 473 176 l 474 176 l 476 177 l 477 178 l 478 178 l 480 179 l 482 180 l 484 181 l 486 182 l 489 185 l 490 186 l 490 187 l 492 189 l 494 191 l 495 192 l 496 194 l 497 195 l 498 196 l 500 198 l 501 200 l 503 202 l 504 204 l 505 207 l 507 210 l 508 212 l 509 214 l 510 217 l 511 220 l 512 221 l 512 222 l 513 222 l 513 226 l 515 229 l 515 231 l 516 232 l 516 233 l 517 235 l 517 237 l 517 239 l 518 239 l 518 240 l 518 241 l 519 243 l 519 247 l 520 250 l 520 250 l 520 251 l 520 252 l 521 253 l 522 256 l 522 260 l 522 263 l 683 213 l 682 206 l 682 205 l 682 204 l 681 203 l 681 203 l 681 199 l 680 193 l 679 190 l 678 186 l 677 185 l 677 183 l 676 180 l 675 177 l 675 174 l 673 168 l 672 166 l 671 165 l 671 161 l 668 156 l 666 150 l 663 144 l 661 138 l 659 133 l 656 127 l 653 122 l 650 117 l 649 115 l 648 112 l 645 106 l 642 102 l 639 97 l 635 92 l 633 90 l 632 87 l 629 83 l 627 81 l 625 79 l 622 75 l 618 70 l 616 68 l 614 66 l 612 64 l 610 62 l 609 61 l 608 60 l 606 58 l 602 54 l 599 53 l 598 52 l 597 51 l 592 47 l 587 44 l 583 41 l 577 37 l 572 34 l 567 31 l 566 31 l 566 31 l 565 30 l 562 28 l 557 26 l 553 23 l 543 18 l 537 16 l 532 14 l 528 13 l 523 11 l 513 7 l 512 7 l 511 7 l 509 7 l 507 6 l 507 6 l 505 6 l 503 5 l 501 5 l 499 5 l 497 5 l 494 5 l 494 5 l 493 5 l 492 4 l 489 4 l 486 4 l 485 4 l 484 4 l 483 3 l 480 3 l 477 3 l 473 3 l 469 3 l 466 3 l 464 3 l 462 2 l 458 2 l 454 2 l 450 2 l 445 2 l 441 2 l 317 1 l 315 1 l 313 1 l 309 1 l 306 1 l 303 1 l 302 1 l 300 1 l 298 1 l 298 1 l 296 1 l 294 1 l 292 1 l 290 1 l 288 2 l 286 2 l 283 3 l 280 3 l 277 4 l 275 4 l 272 5 l 269 5 l 267 6 l 266 6 l 265 7 l 263 7 l 260 7 l 254 9 l 248 11 l 241 13 l 236 16 l 230 18 l 224 20 l 218 23 l 212 26 l 206 28 l 201 32 l 195 35 l 190 39 l 184 42 l 180 45 l 175 49 l 170 53 l 165 57 l 161 61 l 156 65 l 152 69 l 147 74 l 143 79 l 138 83 l 135 89 l 130 94 l 127 99 l 123 104 l 119 111 l 116 116 l 113 122 l 109 128 l 106 134 l 103 140 l 101 146 l 98 153 l 96 159 l 94 165 l 92 170 l 90 176 l 88 182 l 87 187 l 85 193 l 84 199 l 83 205 l 82 210 l 81 216 l 81 222 l 81 229 l 80 231 l 80 233 l 80 238 l 80 239 l 78 730 l 78 731 l 79 737 l 79 743 l 81 748 l 81 753 l 82 758 l 83 763 l 84 768 l 85 772 l 86 776 l 87 781 l 89 785 l 90 788 l 91 791 l 92 795 l 94 798 l 95 801 l 100 812 l 106 824 l 113 836 l 119 846 l 123 852 l 127 857 l 131 863 l 135 867 l 140 872 l 144 878 l 149 882 l 154 886 l 159 891 l 165 896 l 170 899 l 175 903 l 180 907 l 185 910 l 191 913 l 195 916 l 206 921 l 216 926 l 227 930 l 238 933 l 243 935 l 249 937 l 254 939 l 260 940 l 267 942 l 272 943 l 279 944 l 285 945 l 292 947 l 298 947 l 304 948 l 311 949 l 318 949 l 325 949 l 332 949 l 453 949 l 457 949 l 460 948 l 465 948 l 468 948 l 471 947 l 474 947 l 477 947 l 480 947 l 483 947 l 485 947 l 487 946 l 489 946 l 491 945 z "},"H":{"ha":762,"x_min":81,"x_max":684,"o":"m 508 949 l 684 949 l 683 3 l 510 3 l 509 387 l 254 387 l 254 1 l 82 1 l 81 949 l 250 949 l 253 563 l 508 563 l 508 949 z "},"J":{"ha":779,"x_min":91,"x_max":683,"o":"m 513 949 l 681 949 l 683 241 l 683 235 l 683 229 l 683 222 l 683 216 l 683 203 l 682 195 l 682 190 l 681 186 l 680 180 l 677 166 l 674 153 l 673 147 l 671 142 l 670 136 l 668 131 l 667 128 l 667 127 l 666 125 l 665 121 l 663 118 l 662 115 l 661 113 l 660 111 l 659 108 l 658 106 l 656 103 l 655 101 l 654 99 l 652 96 l 650 92 l 646 87 l 643 81 l 642 79 l 640 76 l 637 73 l 635 71 l 633 68 l 631 65 l 628 62 l 625 59 l 622 56 l 619 53 l 617 51 l 614 49 l 612 47 l 610 45 l 608 43 l 607 42 l 603 40 l 601 39 l 599 37 l 595 35 l 592 33 l 590 31 l 585 28 l 579 25 l 574 22 l 568 20 l 566 18 l 563 17 l 560 16 l 558 15 l 555 14 l 553 13 l 551 12 l 549 12 l 547 11 l 545 10 l 543 10 l 541 9 l 539 9 l 538 9 l 536 8 l 535 8 l 533 7 l 531 7 l 529 6 l 527 6 l 526 5 l 525 5 l 524 5 l 523 5 l 522 5 l 520 5 l 519 4 l 517 4 l 515 4 l 513 3 l 511 3 l 509 3 l 507 2 l 505 2 l 502 1 l 500 1 l 499 1 l 498 1 l 497 1 l 496 1 l 496 1 l 273 1 l 271 1 l 269 1 l 268 1 l 267 1 l 267 1 l 262 1 l 258 1 l 254 2 l 249 3 l 247 3 l 245 3 l 241 5 l 236 6 l 232 7 l 231 8 l 230 8 l 229 9 l 227 9 l 226 9 l 224 10 l 222 12 l 220 12 l 217 14 l 214 15 l 213 16 l 212 16 l 211 16 l 208 18 l 205 18 l 201 22 l 198 23 l 196 24 l 192 27 l 191 28 l 190 28 l 187 30 l 185 31 l 183 33 l 180 35 l 179 36 l 178 37 l 177 37 l 176 39 l 173 40 l 167 44 l 161 48 l 156 53 l 151 58 l 149 60 l 146 63 l 144 65 l 141 67 l 140 70 l 138 72 l 136 74 l 134 75 l 134 77 l 133 77 l 132 79 l 130 81 l 128 83 l 127 86 l 125 88 l 122 94 l 119 98 l 116 104 l 114 109 l 111 113 l 107 123 l 103 133 l 102 135 l 101 138 l 100 140 l 100 143 l 99 146 l 98 149 l 97 155 l 95 167 l 93 179 l 93 182 l 92 186 l 92 189 l 92 193 l 92 197 l 91 200 l 91 204 l 91 208 l 253 257 l 253 254 l 253 253 l 254 252 l 254 250 l 254 247 l 254 245 l 254 243 l 254 241 l 255 240 l 255 239 l 255 237 l 256 235 l 256 233 l 256 231 l 256 229 l 256 226 l 256 222 l 256 219 l 257 216 l 257 213 l 258 210 l 258 207 l 259 204 l 261 198 l 262 195 l 264 193 l 265 190 l 266 189 l 267 187 l 269 185 l 270 184 l 271 183 l 273 181 l 276 179 l 278 178 l 281 176 l 283 174 l 286 173 l 290 172 l 292 171 l 296 170 l 299 170 l 302 169 l 305 168 l 308 168 l 311 168 l 314 168 l 317 168 l 321 168 l 324 168 l 450 168 l 457 168 l 460 168 l 463 168 l 464 168 l 466 169 l 467 169 l 471 169 l 474 170 l 477 170 l 479 170 l 480 171 l 481 172 l 482 172 l 483 172 l 486 173 l 489 174 l 492 176 l 493 176 l 494 177 l 496 178 l 496 178 l 496 179 l 497 179 l 500 180 l 500 182 l 501 182 l 501 182 l 502 183 l 503 184 l 504 185 l 506 187 l 507 189 l 508 190 l 509 193 l 510 194 l 511 195 l 511 195 l 512 199 l 513 200 l 513 201 l 513 203 l 514 205 l 515 208 l 515 212 l 515 215 l 515 218 l 516 222 l 516 224 l 516 227 l 516 231 l 516 231 l 513 949 z "},"K":{"ha":758,"x_min":82,"x_max":680,"o":"m 677 949 l 673 893 l 673 891 l 673 889 l 673 886 l 673 884 l 672 882 l 672 878 l 671 874 l 671 873 l 671 872 l 671 870 l 671 867 l 670 863 l 669 859 l 669 858 l 669 857 l 669 856 l 668 849 l 666 842 l 665 839 l 665 836 l 664 833 l 663 829 l 662 827 l 662 825 l 661 823 l 661 822 l 660 821 l 659 817 l 657 812 l 656 810 l 656 809 l 654 806 l 652 800 l 651 798 l 650 795 l 649 794 l 648 793 l 648 790 l 646 787 l 646 787 l 646 787 l 645 786 l 645 785 l 643 783 l 642 781 l 639 776 l 636 772 l 633 768 l 633 767 l 631 766 l 630 764 l 627 761 l 624 758 l 439 528 l 631 193 l 634 189 l 636 185 l 637 183 l 639 181 l 641 178 l 643 174 l 644 172 l 645 171 l 647 168 l 648 164 l 650 161 l 652 159 l 653 155 l 655 152 l 656 149 l 658 146 l 659 142 l 661 139 l 662 136 l 662 135 l 662 134 l 663 132 l 664 129 l 665 125 l 666 122 l 667 119 l 668 116 l 669 113 l 669 109 l 670 106 l 671 104 l 672 101 l 672 98 l 673 97 l 673 96 l 673 93 l 674 91 l 675 86 l 675 83 l 675 83 l 675 82 l 675 81 l 675 77 l 676 73 l 677 68 l 677 63 l 678 58 l 679 53 l 679 50 l 680 47 l 680 45 l 680 43 l 680 42 l 680 41 l 680 39 l 680 37 l 680 35 l 680 34 l 680 33 l 680 33 l 680 28 l 680 26 l 680 24 l 680 23 l 680 21 l 680 18 l 679 17 l 679 16 l 679 14 l 679 12 l 679 10 l 679 7 l 679 5 l 679 1 l 514 1 l 514 3 l 514 5 l 514 9 l 514 13 l 514 16 l 514 20 l 513 23 l 513 24 l 513 26 l 513 28 l 513 31 l 513 33 l 513 33 l 513 34 l 512 39 l 512 42 l 511 45 l 511 52 l 510 55 l 509 58 l 509 61 l 509 64 l 508 66 l 507 69 l 507 71 l 506 74 l 505 75 l 505 76 l 504 79 l 503 81 l 503 83 l 502 85 l 501 86 l 500 87 l 500 89 l 499 92 l 498 95 l 497 98 l 496 100 l 496 101 l 495 103 l 494 104 l 492 108 l 492 109 l 491 110 l 491 111 l 489 115 l 487 118 l 486 119 l 486 120 l 486 121 l 485 121 l 334 387 l 247 275 l 248 1 l 84 1 l 82 948 l 252 949 l 254 551 l 481 841 l 484 844 l 486 846 l 487 849 l 488 850 l 489 852 l 492 857 l 495 863 l 498 869 l 498 871 l 498 871 l 498 872 l 500 875 l 500 878 l 502 881 l 503 884 l 503 888 l 503 890 l 504 894 l 505 901 l 505 907 l 506 914 l 507 918 l 507 920 l 507 920 l 507 921 l 507 922 l 507 922 l 507 923 l 507 924 l 507 928 l 507 929 l 507 930 l 507 932 l 508 935 l 509 942 l 509 949 l 677 949 z "},"L":{"ha":762,"x_min":83,"x_max":686,"o":"m 253 172 l 686 173 l 686 1 l 83 1 l 83 949 l 253 949 l 253 172 z "},"M":{"ha":770,"x_min":81,"x_max":685,"o":"m 515 951 l 685 953 l 685 2 l 514 2 l 512 397 l 512 398 l 511 400 l 511 402 l 511 404 l 511 405 l 511 406 l 510 408 l 510 408 l 510 409 l 509 410 l 509 410 l 509 411 l 508 412 l 507 412 l 506 412 l 505 413 l 504 413 l 503 414 l 501 413 l 500 412 l 499 411 l 498 410 l 496 408 l 495 405 l 494 402 l 452 215 l 309 215 l 266 401 l 264 404 l 264 406 l 264 407 l 262 409 l 262 410 l 261 411 l 260 412 l 259 412 l 258 413 l 256 413 l 254 412 l 253 412 l 252 411 l 252 410 l 251 410 l 250 409 l 250 408 l 250 408 l 250 407 l 250 406 l 249 404 l 249 403 l 248 401 l 248 399 l 248 396 l 251 1 l 85 1 l 81 949 l 254 950 l 376 528 l 376 528 l 376 527 l 376 526 l 376 525 l 377 524 l 377 522 l 378 520 l 378 519 l 379 517 l 380 516 l 381 515 l 382 514 l 383 513 l 385 513 l 387 513 l 388 513 l 389 513 l 389 513 l 390 513 l 390 513 l 391 513 l 391 513 l 392 514 l 393 515 l 393 515 l 394 516 l 394 517 l 395 518 l 395 519 l 396 522 l 397 525 l 397 526 l 398 528 l 515 951 z "},"N":{"ha":752,"x_min":80,"x_max":684,"o":"m 511 953 l 684 953 l 684 3 l 512 2 l 252 552 l 253 1 l 81 1 l 80 949 l 246 949 l 511 406 l 511 953 z "},"O":{"ha":741,"x_min":71,"x_max":670,"o":"m 614 882 l 622 873 l 625 869 l 628 865 l 631 861 l 634 856 l 637 852 l 639 847 l 642 842 l 644 838 l 646 833 l 648 827 l 650 822 l 653 817 l 655 811 l 657 805 l 659 800 l 661 793 l 663 787 l 664 782 l 665 776 l 667 770 l 667 764 l 668 758 l 668 751 l 669 745 l 669 739 l 669 732 l 669 726 l 670 720 l 670 713 l 670 705 l 668 217 l 668 211 l 668 208 l 668 205 l 667 193 l 667 186 l 666 184 l 666 180 l 665 178 l 665 174 l 665 172 l 664 169 l 663 166 l 663 165 l 663 164 l 663 163 l 663 161 l 662 158 l 661 155 l 661 155 l 661 154 l 661 153 l 660 150 l 659 150 l 659 149 l 659 147 l 657 142 l 655 138 l 654 132 l 652 127 l 649 122 l 647 117 l 645 111 l 642 106 l 641 103 l 640 100 l 639 99 l 638 98 l 637 95 l 635 93 l 633 90 l 633 89 l 632 87 l 631 85 l 630 84 l 629 83 l 627 81 l 627 79 l 626 78 l 624 76 l 623 75 l 622 73 l 621 71 l 619 70 l 618 69 l 616 67 l 616 66 l 614 65 l 612 63 l 612 62 l 610 60 l 608 58 l 604 55 l 601 51 l 596 47 l 592 43 l 591 43 l 590 41 l 588 40 l 584 37 l 581 35 l 579 33 l 577 31 l 574 30 l 572 28 l 571 28 l 570 27 l 564 24 l 562 22 l 559 21 l 553 18 l 547 16 l 545 15 l 543 14 l 541 14 l 538 12 l 535 12 l 532 10 l 529 9 l 526 9 l 524 7 l 521 7 l 519 6 l 516 5 l 514 5 l 512 5 l 510 4 l 508 4 l 506 3 l 504 3 l 503 3 l 502 3 l 501 3 l 500 3 l 500 3 l 498 3 l 498 3 l 497 3 l 496 3 l 494 3 l 493 3 l 492 3 l 490 3 l 488 3 l 487 3 l 483 2 l 481 2 l 479 2 l 281 1 l 278 1 l 275 1 l 272 1 l 269 1 l 266 1 l 263 1 l 260 1 l 257 1 l 254 1 l 251 2 l 248 2 l 244 3 l 242 3 l 241 3 l 237 3 l 236 4 l 234 4 l 231 5 l 227 5 l 224 6 l 220 7 l 217 7 l 214 8 l 211 9 l 208 10 l 205 11 l 199 13 l 193 16 l 187 18 l 184 19 l 182 20 l 176 23 l 172 26 l 167 29 l 162 33 l 157 36 l 153 39 l 148 43 l 144 46 l 140 50 l 136 54 l 132 58 l 128 61 l 125 65 l 121 68 l 119 72 l 116 76 l 113 80 l 111 84 l 108 88 l 105 92 l 102 97 l 100 102 l 98 106 l 95 111 l 92 117 l 90 122 l 88 127 l 86 132 l 84 138 l 83 144 l 81 149 l 79 155 l 78 161 l 77 166 l 76 172 l 75 176 l 74 181 l 73 185 l 73 189 l 72 193 l 71 196 l 71 199 l 71 201 l 71 204 l 71 206 l 71 751 l 73 761 l 74 770 l 75 779 l 77 787 l 79 793 l 80 799 l 81 805 l 83 810 l 85 816 l 87 822 l 90 827 l 92 833 l 95 838 l 98 844 l 100 849 l 103 854 l 106 859 l 109 863 l 112 867 l 115 871 l 118 876 l 121 880 l 125 884 l 129 887 l 133 891 l 136 895 l 140 899 l 145 903 l 150 907 l 154 910 l 159 914 l 163 917 l 168 920 l 173 923 l 177 926 l 182 928 l 187 930 l 193 932 l 197 935 l 203 937 l 209 938 l 214 940 l 220 942 l 227 943 l 233 945 l 239 945 l 245 947 l 251 947 l 257 948 l 263 949 l 269 949 l 275 949 l 473 949 l 481 949 l 485 948 l 489 948 l 493 947 l 498 947 l 503 946 l 507 945 l 512 945 l 517 943 l 522 942 l 527 941 l 532 939 l 538 937 l 543 936 l 546 935 l 549 934 l 554 931 l 556 930 l 559 929 l 564 926 l 569 924 l 571 922 l 574 921 l 576 919 l 578 918 l 580 916 l 583 914 l 587 911 l 591 907 l 595 903 l 599 899 l 603 895 l 607 891 l 610 887 l 614 882 m 477 770 l 476 772 l 475 772 l 472 774 l 470 775 l 467 777 l 464 777 l 461 778 l 460 779 l 458 779 l 455 779 l 454 779 l 452 779 q 377 781 414 781 q 302 781 339 781 l 300 781 l 299 781 l 298 781 l 298 781 l 297 781 l 295 781 l 293 781 l 291 781 l 288 781 l 286 781 l 283 780 l 281 779 l 278 779 l 275 778 l 273 777 l 271 777 l 268 775 l 264 774 l 262 772 l 260 771 l 258 770 l 256 769 l 255 768 l 254 766 l 252 764 l 251 762 l 250 760 l 248 757 l 245 751 l 243 746 l 243 743 l 242 741 l 241 737 l 241 734 l 240 734 l 240 733 l 240 732 l 240 731 l 240 730 l 240 728 l 240 726 l 240 724 l 240 722 l 240 720 l 239 717 l 239 713 l 239 710 l 239 707 l 239 703 l 239 699 l 239 695 l 239 690 l 239 686 l 239 681 l 239 676 l 239 671 l 239 665 l 239 659 l 239 653 l 239 647 l 239 641 l 239 634 l 239 627 l 239 620 l 239 612 l 239 605 l 239 597 l 239 589 l 239 581 l 239 572 l 239 563 l 239 554 l 239 545 l 239 536 l 239 526 l 239 516 l 239 506 l 239 496 l 239 485 l 239 474 l 239 463 l 239 452 l 239 440 l 239 428 l 239 416 l 239 404 l 239 392 l 239 379 l 239 366 l 239 353 l 239 340 l 239 326 l 239 312 l 239 298 l 239 283 l 239 269 l 239 254 l 238 233 l 238 230 l 238 227 l 238 224 l 238 220 l 239 214 l 239 212 l 240 208 l 241 205 l 242 203 l 243 200 l 244 197 l 245 195 l 247 192 l 248 190 l 250 187 l 252 185 l 254 183 l 256 181 l 258 179 l 260 178 l 262 176 l 263 175 l 264 174 l 265 174 l 267 173 l 269 172 l 269 172 l 270 172 l 271 171 l 272 171 l 273 170 l 274 170 l 275 170 l 275 170 l 275 170 l 276 170 l 277 170 l 277 170 l 278 170 l 279 170 l 280 170 l 281 170 l 283 170 l 284 170 l 286 170 l 290 170 l 292 170 l 294 170 l 446 169 l 448 169 l 450 169 l 450 169 l 452 169 l 452 169 l 453 169 l 454 169 l 455 169 l 457 169 l 459 169 l 462 170 l 464 170 l 467 172 l 469 172 l 472 174 l 473 174 l 475 175 l 476 176 l 477 177 l 479 178 l 480 179 l 481 180 l 482 181 l 483 182 l 484 183 l 485 184 l 486 185 l 487 186 l 488 188 l 489 189 l 490 191 l 492 193 l 493 196 l 495 201 l 496 204 l 497 205 l 497 206 l 498 208 l 498 210 l 499 212 l 500 213 l 500 216 l 500 217 l 500 218 l 500 218 l 501 218 l 501 222 l 502 224 l 502 228 l 503 231 l 503 234 l 503 238 l 503 242 l 503 248 l 502 250 l 502 252 l 502 255 l 502 258 l 502 261 l 502 264 l 502 267 l 502 271 l 502 275 l 502 279 l 502 283 l 502 288 l 502 293 l 502 298 l 502 303 l 502 309 l 502 314 l 502 320 l 502 326 l 502 332 l 502 339 l 502 345 l 502 353 l 502 359 l 502 367 l 502 374 l 502 382 l 502 390 l 502 398 l 502 406 l 502 415 l 502 424 l 502 433 l 502 442 l 502 452 l 502 461 l 502 471 l 502 481 l 502 492 l 503 502 l 503 513 l 503 524 l 503 535 l 503 546 l 503 557 l 503 570 l 503 581 l 503 594 l 503 606 l 503 618 l 503 631 l 503 645 l 503 658 l 503 671 l 503 685 l 503 699 l 503 700 l 503 706 l 503 712 l 502 719 l 502 725 l 501 732 l 500 734 l 500 738 l 499 741 l 498 743 l 498 746 l 496 749 l 495 751 l 494 753 l 492 756 l 490 758 l 488 761 l 486 763 l 484 765 l 482 767 l 479 769 l 477 770 z "},"P":{"ha":743,"x_min":72,"x_max":673,"o":"m 666 789 l 667 783 l 668 777 l 668 774 l 669 771 l 669 768 l 669 766 l 669 764 l 670 763 l 670 762 l 670 761 l 670 759 l 670 758 l 670 758 l 671 757 l 671 754 l 671 753 l 671 751 l 671 747 l 671 747 l 672 745 l 672 744 l 672 741 l 672 739 l 673 739 l 673 737 l 673 736 l 673 736 l 673 735 l 673 734 l 673 734 l 671 614 l 671 612 l 671 610 l 671 606 l 671 602 l 671 598 l 670 595 l 670 592 l 670 591 l 670 590 l 670 589 l 670 586 l 669 581 l 669 575 l 667 570 l 667 564 l 667 562 l 667 561 l 666 558 l 665 555 l 665 553 l 663 548 l 663 547 l 663 546 l 662 544 l 661 540 l 659 536 l 657 532 l 655 527 l 654 525 l 654 522 l 651 517 l 649 513 l 648 511 l 647 509 l 644 505 l 644 503 l 642 500 l 640 496 l 637 492 l 635 490 l 634 488 l 631 484 l 629 479 l 626 475 l 623 472 l 620 469 l 618 467 l 616 465 l 614 463 l 612 460 l 608 456 l 603 453 l 599 449 l 595 446 l 590 442 l 586 439 l 584 438 l 582 436 l 577 433 l 575 432 l 574 431 l 574 431 l 574 431 l 572 430 l 570 429 l 568 427 l 566 426 l 563 425 l 561 424 l 559 423 l 558 422 l 555 421 l 553 420 l 547 418 l 542 416 l 536 414 l 534 412 l 532 412 l 532 412 l 532 412 l 531 412 l 526 410 l 519 408 l 517 407 l 514 406 l 508 405 l 501 404 l 495 402 l 489 401 l 476 399 l 463 398 l 449 397 l 447 397 l 445 397 l 443 397 l 441 397 l 438 396 l 436 396 l 433 396 l 431 395 l 429 395 l 244 396 l 245 1 l 73 1 l 72 949 l 454 949 l 460 949 l 466 949 l 471 949 l 477 949 l 484 948 l 489 947 l 495 947 l 500 945 l 506 945 l 511 944 l 517 943 l 522 941 l 527 940 l 532 939 l 537 937 l 542 935 l 547 933 l 551 931 l 555 930 l 560 927 l 564 925 l 569 922 l 573 920 l 577 918 l 581 915 l 585 912 l 589 909 l 593 906 l 596 903 l 600 899 l 604 897 l 607 892 l 610 889 l 613 886 l 616 882 l 619 879 l 622 876 l 625 872 l 627 869 l 631 865 l 633 861 l 633 861 l 634 860 l 635 858 l 637 855 l 640 851 l 642 848 l 643 847 l 643 846 l 644 844 l 646 841 l 648 840 l 648 838 l 650 834 l 652 831 l 654 828 l 655 825 l 656 821 l 658 818 l 659 814 l 661 811 l 661 808 l 662 806 l 662 806 l 663 805 l 663 802 l 665 798 l 665 795 l 666 792 l 666 789 m 499 715 l 498 718 l 498 722 l 497 724 l 496 728 l 494 730 l 494 734 l 492 736 l 491 739 l 488 745 l 486 747 l 484 750 l 482 753 l 480 755 l 475 760 l 473 763 l 470 766 l 467 768 l 464 769 l 460 771 l 456 772 l 454 774 l 452 774 l 448 775 l 444 777 l 439 777 l 436 778 l 433 778 l 428 779 l 422 779 l 416 779 l 410 779 l 407 779 l 404 779 l 402 779 l 244 781 l 245 570 l 408 570 l 411 570 l 412 570 l 413 570 l 414 570 l 416 570 l 418 570 l 424 570 l 426 570 l 427 570 l 427 570 l 429 570 l 433 571 l 435 571 l 436 571 l 437 571 l 437 571 l 438 572 l 439 572 l 439 572 l 442 572 l 446 573 l 447 573 l 448 573 l 448 573 l 450 574 l 452 574 l 453 574 l 454 575 l 454 575 l 455 575 l 456 576 l 458 576 l 460 577 l 462 578 l 465 580 l 467 581 l 469 581 l 470 583 l 472 583 l 475 585 l 475 586 l 476 587 l 477 588 l 478 589 l 479 589 l 479 589 l 481 590 l 483 593 l 484 593 l 484 593 l 486 595 l 488 597 l 489 599 l 489 600 l 490 600 l 490 600 l 492 602 l 493 605 l 494 608 l 496 610 l 496 612 l 496 612 l 497 613 l 498 616 l 498 616 l 498 617 l 498 618 l 498 622 l 498 623 l 499 623 l 499 625 l 499 625 l 499 626 l 499 627 l 499 710 l 499 715 z "},"Q":{"ha":788,"x_min":85,"x_max":707,"o":"m 659 869 l 662 865 l 663 863 l 665 861 l 668 855 l 672 850 l 675 844 l 677 841 l 678 838 l 682 831 l 683 828 l 685 825 l 686 821 l 688 818 l 689 815 l 690 813 l 690 812 l 690 812 l 690 811 l 691 810 l 692 808 l 693 805 l 694 802 l 695 799 l 696 796 l 697 793 l 698 791 l 698 789 l 699 787 l 701 781 l 701 778 l 702 775 l 703 770 l 703 768 l 703 768 l 703 767 l 704 764 l 705 760 l 705 754 l 705 753 l 705 752 l 706 750 l 706 747 l 707 745 l 707 743 l 707 743 l 707 742 l 707 741 l 707 739 l 707 738 l 707 738 l 707 736 l 706 238 l 706 237 l 706 235 l 706 233 l 706 230 l 706 228 l 706 227 l 706 223 l 706 216 l 705 210 l 705 203 l 705 197 l 705 195 l 705 193 l 705 191 l 704 184 l 704 183 l 704 182 l 704 180 l 703 178 l 703 177 l 703 176 l 703 174 l 703 171 l 701 165 l 701 159 l 699 153 l 697 146 l 695 140 l 694 139 l 694 137 l 693 134 l 692 132 l 690 128 l 690 127 l 690 127 l 689 125 l 688 123 l 686 120 l 685 117 l 684 116 l 684 115 l 683 115 l 682 112 l 680 109 l 678 106 l 678 106 l 677 105 l 677 104 l 675 102 l 673 99 l 672 98 l 671 96 l 669 94 l 668 93 l 667 92 l 663 87 l 660 83 l 656 79 l 652 74 l 648 71 l 645 66 l 642 63 l 638 60 l 700 -25 l 488 -25 l 467 2 l 293 2 l 289 2 l 285 3 l 277 3 l 273 3 l 269 3 l 262 5 l 254 6 l 247 7 l 240 9 l 233 12 l 230 14 l 227 15 l 223 16 l 220 17 l 214 20 l 211 22 l 208 22 l 202 26 l 197 28 l 194 30 l 191 31 l 186 35 l 181 37 l 176 41 l 172 44 l 167 47 l 163 52 l 158 55 l 154 59 l 151 63 l 146 67 l 143 72 l 139 76 l 136 81 l 132 85 l 128 91 l 125 96 l 121 101 l 118 106 l 115 112 l 112 117 l 109 123 l 106 130 l 104 136 l 101 142 l 99 149 l 96 155 l 94 161 l 93 167 l 92 173 l 90 179 l 89 184 l 88 190 l 87 195 l 87 200 l 87 205 l 86 210 l 86 213 l 86 216 l 86 220 l 85 222 l 85 225 l 85 227 l 85 229 l 85 231 l 85 233 l 85 236 l 85 237 l 85 238 l 85 727 l 85 728 l 85 730 l 85 732 l 85 734 l 85 736 l 85 739 l 85 741 l 86 743 l 86 746 l 86 749 l 87 753 l 87 757 l 88 760 l 89 765 l 90 770 l 91 774 l 92 779 l 94 785 l 95 790 l 97 795 l 99 801 l 101 806 l 103 812 l 106 818 l 108 824 l 111 830 l 113 836 l 117 842 l 120 847 l 123 852 l 127 858 l 131 863 l 134 868 l 139 873 l 143 878 l 147 883 l 152 888 l 156 892 l 161 897 l 165 901 l 170 905 l 175 909 l 180 913 l 184 917 l 189 920 l 194 923 l 199 926 l 204 928 l 209 930 l 214 932 l 219 935 l 224 937 l 230 939 l 235 940 l 241 942 l 246 943 l 252 945 l 255 945 l 259 945 l 266 947 l 270 947 l 274 947 l 278 948 l 282 948 l 292 949 l 296 949 l 301 949 l 311 949 l 504 949 l 514 949 l 525 947 l 535 945 l 545 943 l 551 942 l 555 941 l 561 939 l 566 937 l 571 936 l 576 934 l 581 932 l 586 930 l 591 928 l 595 925 l 600 922 l 605 919 l 610 916 l 614 912 l 620 908 l 625 904 l 629 900 l 634 896 l 638 891 l 643 887 l 647 883 l 651 878 l 654 874 l 659 869 m 534 201 l 532 709 l 532 712 l 532 715 l 532 719 l 532 722 l 532 726 l 531 729 l 530 732 l 530 735 l 528 739 l 528 741 l 526 744 l 526 747 l 524 749 l 523 752 l 521 754 l 519 757 l 518 759 l 516 761 l 515 763 l 513 765 l 511 766 l 509 768 l 507 769 l 505 770 l 504 771 l 502 772 l 500 773 l 498 773 l 496 774 l 494 774 l 489 774 l 485 774 l 477 775 l 473 775 l 470 775 l 467 775 l 463 775 l 313 774 l 309 774 l 306 774 l 303 774 l 300 773 l 295 772 l 292 772 l 290 770 l 288 770 l 286 768 l 281 766 l 279 764 l 277 763 l 273 759 l 271 758 l 269 755 l 268 753 l 267 751 l 265 748 l 264 745 l 263 743 l 262 740 l 262 737 l 261 734 l 260 731 l 260 728 l 260 724 l 260 721 l 260 717 l 260 713 l 258 248 l 258 245 l 258 241 l 258 239 l 259 235 l 259 231 l 260 228 l 260 224 l 260 220 l 261 218 l 261 216 l 262 212 l 263 208 l 264 206 l 264 205 l 266 201 l 267 199 l 267 198 l 269 197 l 269 195 l 271 192 l 273 189 l 275 188 l 276 186 l 277 185 l 279 184 l 282 181 l 286 179 l 288 178 l 290 177 l 292 176 l 294 175 l 299 173 l 302 172 l 304 172 l 307 171 l 307 170 l 308 170 l 309 170 l 309 170 l 311 170 l 313 169 l 315 168 l 317 168 l 319 168 l 321 167 l 321 167 l 322 167 l 323 167 l 325 166 l 326 166 l 328 166 l 330 166 l 331 166 l 332 166 l 335 166 l 338 166 l 340 167 l 342 167 l 344 167 l 346 167 l 347 167 l 348 167 l 349 167 l 350 167 l 351 167 l 352 167 l 352 168 l 353 168 l 353 169 l 354 170 l 354 170 l 354 171 l 354 172 l 354 172 l 354 173 l 353 174 l 269 291 l 467 291 l 534 201 z "},"R":{"ha":758,"x_min":74,"x_max":678,"o":"m 534 936 l 539 934 l 542 933 l 545 932 l 550 930 l 555 927 l 560 925 l 566 922 l 571 920 l 576 916 l 581 913 l 586 910 l 590 907 l 595 903 l 600 899 l 604 896 l 608 892 l 612 887 l 616 883 l 621 879 l 624 874 l 628 869 l 631 865 l 635 861 l 638 855 l 642 850 l 644 845 l 648 840 l 650 835 l 653 829 l 655 824 l 658 819 l 660 813 l 662 807 l 664 802 l 665 796 l 667 791 l 668 785 l 669 779 l 670 773 l 671 768 l 671 762 l 671 759 l 671 756 l 672 751 l 672 746 l 672 743 l 672 741 l 672 739 l 673 736 l 673 731 l 673 726 l 673 724 l 673 722 l 673 720 l 672 597 l 671 593 l 671 589 l 671 587 l 671 587 l 671 585 l 671 582 l 671 578 l 671 575 l 670 572 l 670 568 l 669 565 l 669 562 l 669 560 l 668 559 l 668 559 l 668 558 l 668 555 l 667 552 l 667 550 l 667 549 l 667 549 l 666 548 l 666 547 l 666 545 l 665 543 l 665 539 l 663 536 l 663 533 l 662 530 l 661 528 l 660 525 l 659 522 l 658 519 l 657 516 l 656 513 l 655 513 l 654 511 l 654 511 l 653 509 l 652 506 l 651 503 l 650 503 l 650 503 l 650 502 l 650 500 l 648 498 l 647 496 l 645 493 l 644 491 l 642 488 l 642 487 l 640 486 l 639 484 l 638 482 l 637 481 l 635 479 l 634 477 l 632 475 l 631 473 l 630 472 l 629 472 l 629 471 l 628 469 l 627 469 l 627 469 l 625 467 l 623 465 l 622 463 l 620 461 l 618 459 l 614 456 l 610 452 l 608 450 l 607 450 l 606 449 l 604 448 l 604 447 l 601 446 l 599 444 l 597 441 l 591 439 l 589 437 l 587 435 l 584 433 l 581 432 l 576 429 l 571 427 l 566 424 l 561 422 l 555 419 l 550 417 l 545 416 l 543 415 l 540 414 l 535 412 l 532 412 l 530 412 l 528 411 l 526 410 l 522 410 l 517 408 l 515 408 l 514 408 l 510 407 l 507 407 l 504 407 l 501 406 l 498 406 l 495 406 l 492 406 l 490 406 l 488 406 l 678 1 l 491 1 l 295 404 l 247 404 l 248 0 l 75 0 l 74 948 l 422 949 l 431 949 l 439 949 l 447 949 l 455 949 l 463 949 l 469 948 l 477 947 l 484 947 l 490 945 l 497 945 l 504 943 l 511 942 l 517 941 l 522 939 l 528 937 l 534 936 m 468 768 l 462 770 l 456 771 l 453 772 l 450 772 l 444 773 l 437 774 l 431 774 l 427 774 l 424 774 l 420 774 l 416 774 l 249 774 l 250 571 l 423 572 l 427 572 l 430 572 l 433 572 l 437 572 l 440 572 l 444 572 l 447 572 l 451 572 l 453 572 l 455 572 l 457 573 l 459 573 l 461 574 l 463 574 l 465 576 l 468 576 l 469 577 l 469 577 l 469 578 l 471 579 l 473 581 l 476 582 l 479 585 l 481 587 l 484 589 l 485 590 l 486 591 l 488 593 l 488 593 l 488 594 l 488 594 l 489 595 l 490 597 l 490 597 l 492 600 l 492 603 l 494 606 l 494 607 l 494 608 l 494 609 l 495 610 l 495 611 l 495 612 l 495 612 l 496 614 l 496 615 l 496 618 l 496 620 l 496 621 l 496 621 l 496 622 l 496 625 l 496 627 l 496 628 l 496 629 l 497 629 l 496 629 l 496 630 l 496 631 l 496 633 l 496 635 l 496 637 l 496 702 l 496 703 l 496 704 l 496 706 l 496 707 l 496 708 l 497 708 l 497 710 l 497 711 l 497 711 l 497 713 l 497 715 l 497 715 l 497 716 l 497 717 l 497 719 l 496 720 l 496 721 l 496 722 l 496 724 l 496 726 l 496 728 l 496 728 l 496 729 l 496 730 l 496 730 l 496 732 l 495 734 l 494 736 l 494 737 l 494 738 l 494 739 l 494 742 l 493 745 l 492 747 l 491 749 l 490 752 l 488 754 l 487 756 l 486 758 l 484 760 l 482 761 l 480 763 l 478 764 l 475 766 l 473 766 l 471 768 l 468 768 z "},"S":{"ha":750,"x_min":84,"x_max":674,"o":"m 425 777 l 335 776 l 329 777 l 323 777 l 317 777 l 313 777 l 307 777 l 304 777 l 302 776 l 298 775 l 294 774 l 292 774 l 290 774 l 286 772 l 283 771 l 281 770 l 279 769 l 276 768 l 273 766 l 271 764 l 269 761 l 267 759 l 264 756 l 261 751 l 258 747 l 256 742 l 254 737 l 254 735 l 254 733 l 253 730 l 253 728 l 253 726 l 254 723 l 254 722 l 252 678 l 252 672 l 252 667 l 252 662 l 253 657 l 254 652 l 254 648 l 255 644 l 256 640 l 258 636 l 259 633 l 260 629 l 262 627 l 264 624 l 267 621 l 269 618 l 271 616 l 272 616 l 273 614 l 276 613 l 278 611 l 279 610 l 280 610 l 281 610 l 283 608 l 285 606 l 286 606 l 287 605 l 290 604 l 294 602 l 294 601 l 295 601 l 296 600 l 298 600 l 300 599 l 302 598 l 304 597 l 306 597 l 307 596 l 309 596 l 309 595 l 310 595 l 311 595 l 312 595 l 313 594 l 314 594 l 315 594 l 316 593 l 317 593 l 317 593 l 318 593 l 319 593 l 319 593 l 320 592 l 321 592 l 497 520 l 504 518 l 511 515 l 514 513 l 517 512 l 521 510 l 525 509 l 532 505 l 536 503 l 540 501 l 544 499 l 548 497 l 552 495 l 556 492 l 560 490 l 564 488 l 572 483 l 581 478 l 584 475 l 588 473 l 595 467 l 599 464 l 602 461 l 609 454 l 615 448 l 618 445 l 622 441 l 627 434 l 630 431 l 633 427 l 635 423 l 638 419 l 640 416 l 643 412 l 648 404 l 650 399 l 652 395 l 654 391 l 655 387 l 657 382 l 659 378 l 662 368 l 663 364 l 665 359 l 665 355 l 667 349 l 668 345 l 669 340 l 669 335 l 671 330 l 671 325 l 671 319 l 672 315 l 673 309 l 673 224 l 673 220 l 673 214 l 673 209 l 673 203 l 673 199 l 673 196 l 673 193 l 672 189 l 672 187 l 672 186 l 672 183 l 671 178 l 671 174 l 670 169 l 669 163 l 668 159 l 667 158 l 667 157 l 667 157 l 667 155 l 665 150 l 665 145 l 663 140 l 661 136 l 660 132 l 658 127 l 656 123 l 654 119 l 654 117 l 653 117 l 652 115 l 650 111 l 648 106 l 646 104 l 645 102 l 643 98 l 642 97 l 640 95 l 639 93 l 637 91 l 636 90 l 635 87 l 632 84 l 629 80 l 623 73 l 620 70 l 616 66 l 614 64 l 612 62 l 610 60 l 603 54 l 596 47 l 592 44 l 591 43 l 590 43 l 589 41 l 581 35 l 578 33 l 576 32 l 573 28 l 569 26 l 565 23 l 561 21 l 557 18 l 553 16 l 549 14 l 546 12 l 543 11 l 538 9 l 535 8 l 532 7 l 528 6 l 526 5 l 522 5 l 519 4 l 516 4 l 510 3 l 505 3 l 499 3 l 494 3 l 492 2 l 490 2 l 486 2 l 484 2 l 482 1 l 478 1 l 289 0 l 288 0 l 281 1 l 276 1 l 271 2 l 265 3 l 260 4 l 254 5 l 250 6 l 244 7 l 239 8 l 235 9 l 230 11 l 225 12 l 220 14 l 216 16 l 212 18 l 208 20 l 203 22 l 199 24 l 195 26 l 191 28 l 186 31 l 182 33 l 179 35 l 175 37 l 168 43 l 165 45 l 161 48 l 158 51 l 155 54 l 152 56 l 149 60 l 146 62 l 142 66 l 140 69 l 137 73 l 134 76 l 132 79 l 126 87 l 123 91 l 121 94 l 117 102 l 115 106 l 112 111 l 108 119 l 106 123 l 104 128 l 102 132 l 100 136 l 99 140 l 98 144 l 96 149 l 95 152 l 94 156 l 93 159 l 92 163 l 91 166 l 90 170 l 90 173 l 89 176 l 89 179 l 88 185 l 87 190 l 87 193 l 87 195 l 87 199 l 86 203 l 86 205 l 86 208 l 86 211 l 247 261 l 247 254 l 247 247 l 247 244 l 247 241 l 248 235 l 248 229 l 248 223 l 249 220 l 250 218 l 250 214 l 252 209 l 253 205 l 254 201 l 256 197 l 258 195 l 260 192 l 262 189 l 263 189 l 264 187 l 267 185 l 269 184 l 271 182 l 274 180 l 276 179 l 279 178 l 281 177 l 284 176 l 286 175 l 289 174 l 292 174 l 294 173 l 300 172 l 302 172 l 305 172 l 306 172 l 457 173 l 460 174 l 463 174 l 466 175 l 468 176 l 470 176 l 472 177 l 473 178 l 475 178 l 477 180 l 478 180 l 479 182 l 481 182 l 481 183 l 481 183 l 482 184 l 485 186 l 486 188 l 487 189 l 488 190 l 488 191 l 489 192 l 490 194 l 492 196 l 492 197 l 492 197 l 493 198 l 494 200 l 494 201 l 495 202 l 496 204 l 496 205 l 496 205 l 496 207 l 498 210 l 498 212 l 498 213 l 498 214 l 499 216 l 500 219 l 500 222 l 500 223 l 500 224 l 500 224 l 500 226 l 500 227 l 500 229 l 500 231 l 500 233 l 500 234 l 500 235 l 500 236 l 500 239 l 500 241 l 501 243 l 501 245 l 501 248 l 501 253 l 501 256 l 501 258 l 501 262 l 501 264 l 501 267 l 501 271 l 501 277 l 500 279 l 500 281 l 500 284 l 500 292 l 500 294 l 500 295 l 500 296 l 500 298 l 500 301 l 500 305 l 498 310 l 498 313 l 497 315 l 496 317 l 495 319 l 492 324 l 491 327 l 490 329 l 488 332 l 486 334 l 484 336 l 481 339 l 479 341 l 475 343 l 472 346 l 469 347 l 465 350 l 460 352 l 456 354 l 452 355 l 446 357 l 441 359 l 435 361 l 430 363 l 232 441 l 226 444 l 220 448 l 217 450 l 214 451 l 211 453 l 208 454 l 205 456 l 202 458 l 196 462 l 193 464 l 190 466 l 184 469 l 180 472 l 177 474 l 174 476 l 171 479 l 168 481 l 165 484 l 161 487 l 158 490 l 155 493 l 152 496 l 149 500 l 146 503 l 142 507 l 140 511 l 136 515 l 134 519 l 127 528 l 121 536 l 116 545 l 111 553 l 107 562 l 103 570 l 100 578 l 96 587 l 95 591 l 94 595 l 92 599 l 92 604 l 90 608 l 90 612 l 88 616 l 88 621 l 87 626 l 87 631 l 86 635 l 86 640 l 85 646 l 85 650 l 85 655 l 85 660 l 85 661 l 85 662 l 84 735 l 84 736 l 84 736 l 84 737 l 85 738 l 85 739 l 85 740 l 85 741 l 85 741 l 85 742 l 85 743 l 85 745 l 85 746 l 85 748 l 85 749 l 86 751 l 86 753 l 86 756 l 87 759 l 87 762 l 87 764 l 87 768 l 87 770 l 87 774 l 88 777 l 89 781 l 90 785 l 90 788 l 92 792 l 92 796 l 94 800 l 94 804 l 96 808 l 98 812 l 99 816 l 101 820 l 103 824 l 104 828 l 106 833 l 111 841 l 113 846 l 116 850 l 118 854 l 121 857 l 123 861 l 126 865 l 129 869 l 132 872 l 134 876 l 137 879 l 143 886 l 149 892 l 152 895 l 155 897 l 162 903 l 169 908 l 173 910 l 176 913 l 180 916 l 184 918 l 192 922 l 200 926 l 208 930 l 213 932 l 217 933 l 222 935 l 227 937 l 231 938 l 236 939 l 241 941 l 245 942 l 250 943 l 256 944 l 261 945 l 267 945 l 272 946 l 277 947 l 283 947 l 289 948 l 462 947 l 467 947 l 473 947 l 478 947 l 484 946 l 488 945 l 494 945 l 499 944 l 505 943 l 509 943 l 514 941 l 519 941 l 524 939 l 529 938 l 534 937 l 539 935 l 544 933 l 553 930 l 557 928 l 562 926 l 566 924 l 570 922 l 574 920 l 578 917 l 586 912 l 590 910 l 593 907 l 597 905 l 601 902 l 604 899 l 607 897 l 610 894 l 613 891 l 616 888 l 619 884 l 622 882 l 625 878 l 627 875 l 630 871 l 632 868 l 635 865 l 637 861 l 640 857 l 642 853 l 644 850 l 646 846 l 648 842 l 650 838 l 651 836 l 652 833 l 655 826 l 659 818 l 661 810 l 664 802 l 665 799 l 667 795 l 667 791 l 668 787 l 669 783 l 669 783 l 669 782 l 670 780 l 671 777 l 671 772 l 671 772 l 671 771 l 672 769 l 673 766 l 673 762 l 673 759 l 673 755 l 674 752 l 674 749 l 674 745 l 674 744 l 674 743 l 674 741 l 674 739 l 674 738 l 674 736 l 674 733 l 674 730 l 674 729 l 674 727 l 507 684 l 508 690 l 508 693 l 508 696 l 508 699 l 508 701 l 508 707 l 508 709 l 508 712 l 507 717 l 507 722 l 506 726 l 505 730 l 505 734 l 503 739 l 502 743 l 500 746 l 498 749 l 497 753 l 495 756 l 494 758 l 493 759 l 490 762 l 488 764 l 485 766 l 481 768 l 479 769 l 477 770 l 475 771 l 474 772 l 471 772 l 470 773 l 465 774 l 460 775 l 455 776 l 452 776 l 450 777 l 447 777 l 444 777 l 441 777 l 438 777 l 435 777 l 432 777 l 429 777 l 425 777 z "},"T":{"ha":754,"x_min":73,"x_max":682,"o":"m 682 949 l 682 779 l 466 778 l 469 0 l 298 0 l 292 775 l 73 775 l 73 948 l 682 949 z "},"U":{"ha":758,"x_min":75,"x_max":685,"o":"m 459 173 l 461 173 l 464 173 l 465 173 l 466 173 l 467 173 l 468 173 l 469 173 l 469 173 l 471 174 l 472 174 l 474 174 l 475 174 l 475 174 l 477 175 l 478 176 l 479 176 l 480 176 l 481 177 l 483 178 l 484 178 l 486 179 l 487 180 l 488 180 l 490 182 l 491 182 l 491 183 l 492 184 l 494 186 l 496 187 l 497 189 l 498 190 l 500 192 l 502 195 l 503 195 l 503 197 l 504 198 l 505 199 l 506 202 l 507 203 l 507 205 l 508 208 l 509 209 l 509 211 l 510 214 l 510 214 l 510 215 l 510 216 l 510 217 l 511 219 l 511 220 l 511 224 l 511 228 l 511 229 l 511 231 l 511 231 l 511 235 l 507 948 l 680 948 l 685 224 l 684 223 l 684 222 l 684 218 l 684 212 l 684 206 l 683 204 l 683 203 l 683 200 l 682 194 l 682 188 l 681 182 l 680 176 l 679 170 l 677 165 l 675 159 l 675 156 l 674 155 l 674 154 l 674 153 l 672 148 l 670 142 l 668 137 l 667 134 l 666 132 l 664 126 l 662 121 l 659 116 l 658 113 l 657 111 l 654 105 l 652 100 l 646 90 l 643 85 l 641 82 l 640 79 l 637 77 l 636 75 l 634 72 l 633 69 l 631 67 l 629 64 l 627 62 l 625 60 l 623 58 l 621 56 l 618 54 l 616 51 l 612 47 l 610 45 l 608 43 l 606 42 l 604 40 l 602 39 l 600 37 l 597 35 l 593 32 l 590 30 l 587 27 l 585 26 l 583 25 l 581 24 l 578 22 l 576 22 l 573 20 l 570 18 l 566 17 l 562 16 l 558 14 l 555 13 l 551 12 l 544 9 l 541 8 l 538 7 l 536 6 l 534 6 l 532 5 l 530 5 l 527 5 l 524 4 l 521 4 l 518 3 l 515 3 l 511 3 l 507 2 l 503 2 l 503 2 l 502 2 l 501 2 l 499 2 l 495 1 l 490 1 l 486 1 l 283 0 l 281 0 l 275 1 l 269 1 l 262 1 l 256 2 l 250 3 l 243 5 l 238 6 l 232 8 l 226 10 l 220 12 l 214 15 l 208 17 l 202 20 l 197 23 l 191 26 l 186 28 l 180 32 l 176 35 l 170 39 l 165 43 l 161 46 l 156 50 l 151 54 l 146 58 l 144 60 l 142 62 l 138 66 l 134 71 l 132 73 l 130 75 l 127 80 l 123 85 l 120 90 l 119 92 l 117 95 l 111 105 l 109 111 l 106 116 l 103 121 l 101 126 l 96 137 l 94 142 l 92 147 l 91 153 l 90 157 l 88 161 l 87 166 l 86 170 l 85 174 l 84 182 l 83 191 l 83 195 l 82 199 l 81 203 l 81 208 l 81 210 l 81 213 l 81 216 l 80 218 l 80 220 l 80 221 l 80 222 l 80 225 l 80 227 l 80 227 l 80 228 l 75 949 l 248 949 l 252 244 l 252 243 l 252 243 l 252 242 l 252 241 l 252 241 l 253 239 l 253 237 l 253 235 l 253 234 l 253 231 l 253 229 l 254 227 l 254 224 l 254 220 l 254 218 l 255 215 l 256 212 l 257 209 l 258 205 l 259 203 l 261 199 l 262 196 l 264 193 l 267 190 l 269 187 l 270 185 l 272 183 l 275 181 l 277 180 l 279 178 l 282 177 l 283 176 l 285 176 l 288 174 l 292 174 l 293 173 l 295 173 l 298 172 l 300 172 l 302 172 l 307 172 l 311 171 l 313 171 l 315 171 l 459 173 z "},"V":{"ha":758,"x_min":81,"x_max":690,"o":"m 690 949 l 487 0 l 317 0 l 81 948 l 252 948 l 395 393 l 517 949 l 690 949 z "},"W":{"ha":762,"x_min":81,"x_max":686,"o":"m 514 948 l 686 948 l 640 1 l 477 1 l 397 277 l 397 277 l 397 278 l 396 279 l 395 280 l 395 281 l 394 281 l 393 282 l 392 283 l 391 283 l 390 283 l 389 283 l 389 283 l 387 283 l 386 282 l 385 282 l 384 281 l 383 280 l 382 278 l 381 276 l 307 0 l 139 0 l 81 948 l 252 948 l 272 551 l 273 549 l 273 546 l 273 545 l 274 544 l 275 544 l 275 543 l 276 543 l 277 542 l 278 542 l 279 541 l 281 541 l 281 542 l 282 542 l 283 542 l 285 543 l 285 543 l 286 543 l 286 544 l 287 545 l 287 545 l 288 546 l 288 547 l 288 549 l 289 551 l 316 798 l 458 798 l 486 551 l 486 551 l 487 550 l 487 548 l 488 547 l 488 546 l 488 545 l 490 544 l 490 543 l 492 543 l 493 543 l 494 542 l 496 542 l 496 543 l 496 543 l 497 543 l 498 543 l 498 543 l 499 543 l 499 544 l 500 544 l 500 545 l 501 545 l 501 546 l 502 547 l 502 547 l 503 549 l 503 552 l 514 948 z "},"X":{"ha":756,"x_min":73,"x_max":682,"o":"m 673 888 l 672 882 l 671 875 l 670 869 l 669 863 l 667 857 l 666 850 l 664 845 l 663 839 l 662 836 l 661 833 l 659 827 l 659 825 l 657 822 l 656 817 l 654 814 l 654 812 l 654 811 l 652 808 l 652 808 l 651 806 l 650 804 l 649 801 l 646 796 l 644 792 l 642 787 l 639 782 l 635 777 l 475 473 l 649 163 l 652 159 l 655 154 l 658 149 l 661 144 l 663 138 l 666 133 l 669 127 l 671 121 l 673 119 l 673 116 l 675 111 l 676 108 l 677 105 l 678 99 l 679 93 l 680 86 l 681 73 l 681 73 l 681 72 l 681 71 l 681 70 l 681 68 l 681 65 l 681 62 l 681 60 l 681 59 l 682 54 l 682 52 l 682 50 l 682 45 l 682 39 l 682 33 l 682 26 l 682 20 l 682 12 l 682 7 l 682 0 l 517 0 l 517 9 l 517 14 l 517 18 l 517 22 l 517 27 l 517 31 l 517 35 l 517 36 l 517 37 l 517 41 l 516 44 l 516 46 l 516 47 l 515 49 l 515 51 l 515 53 l 515 54 l 514 56 l 514 56 l 512 61 l 509 66 l 507 72 l 504 77 l 502 80 l 500 81 l 500 83 l 498 86 l 497 87 l 496 89 l 495 91 l 494 92 l 494 93 l 492 97 l 491 98 l 491 98 l 491 99 l 490 101 l 487 105 l 366 315 l 258 103 l 258 102 l 256 98 l 254 94 l 252 90 l 251 86 l 250 83 l 248 79 l 247 77 l 245 74 l 243 68 l 241 63 l 240 58 l 239 52 l 239 51 l 239 49 l 239 47 l 238 45 l 238 42 l 238 40 l 238 37 l 238 34 l 238 31 l 238 26 l 238 23 l 238 19 l 238 15 l 238 10 l 238 5 l 239 0 l 81 0 l 80 6 l 80 12 l 79 18 l 79 24 l 79 29 l 79 35 l 79 39 l 79 45 l 79 50 l 79 54 l 79 58 l 79 63 l 79 67 l 80 71 l 80 75 l 81 79 l 81 82 l 81 85 l 82 92 l 83 96 l 83 98 l 83 104 l 84 106 l 84 109 l 85 111 l 85 113 l 85 115 l 85 117 l 86 119 l 86 121 l 87 127 l 88 130 l 90 133 l 92 139 l 94 144 l 100 157 l 105 168 l 108 174 l 111 179 l 114 185 l 117 191 l 260 474 l 94 802 l 94 803 l 94 805 l 92 807 l 92 810 l 90 812 l 90 814 l 90 815 l 89 817 l 87 819 l 87 822 l 86 824 l 85 827 l 83 829 l 81 836 l 79 842 l 79 844 l 78 848 l 77 854 l 75 860 l 75 863 l 74 867 l 74 870 l 73 873 l 73 880 l 73 882 l 73 884 l 73 886 l 73 889 l 73 892 l 73 896 l 73 899 l 73 903 l 73 907 l 73 912 l 73 917 l 73 922 l 73 927 l 73 932 l 73 939 l 73 947 l 235 947 l 236 940 l 236 935 l 236 930 l 237 925 l 237 921 l 237 917 l 237 913 l 238 909 l 239 903 l 240 897 l 242 890 l 243 882 l 244 879 l 245 876 l 246 873 l 247 870 l 248 867 l 249 865 l 250 863 l 251 862 l 252 861 l 252 860 l 253 859 l 254 857 l 254 856 l 255 854 l 256 852 l 257 850 l 258 848 l 259 846 l 260 844 l 261 842 l 262 840 l 264 837 l 265 834 l 267 831 l 267 830 l 368 632 l 481 840 l 482 845 l 484 846 l 484 848 l 486 850 l 486 852 l 488 855 l 489 857 l 490 858 l 491 861 l 492 862 l 492 863 l 493 864 l 493 865 l 494 866 l 494 867 l 495 869 l 496 871 l 496 872 l 496 873 l 497 874 l 497 876 l 497 876 l 498 878 l 498 880 l 499 883 l 499 885 l 500 886 l 500 893 l 501 899 l 503 906 l 503 913 l 503 914 l 503 916 l 503 920 l 503 922 l 503 923 l 503 924 l 503 926 l 503 927 l 503 928 l 503 928 l 503 929 l 503 930 l 503 932 l 503 937 l 503 940 l 503 943 l 503 948 l 675 948 l 675 943 l 675 938 l 675 934 l 675 932 l 675 930 l 675 928 l 675 928 l 675 926 l 675 922 l 675 918 l 675 914 l 675 908 l 675 901 l 674 895 l 673 888 z "},"Y":{"ha":759,"x_min":79,"x_max":680,"o":"m 680 948 l 680 923 l 680 911 l 680 899 l 679 886 l 678 874 l 677 863 l 675 850 l 673 840 l 671 829 l 670 823 l 669 820 l 669 817 l 667 810 l 665 808 l 665 804 l 663 801 l 662 798 l 661 794 l 659 790 l 658 788 l 657 786 l 656 783 l 654 781 l 654 779 l 653 777 l 652 774 l 651 772 l 650 770 l 649 768 l 648 766 l 467 355 l 469 0 l 301 0 l 298 353 l 111 764 l 109 768 l 107 772 l 106 776 l 104 779 l 103 782 l 102 784 l 101 787 l 100 789 l 99 793 l 98 796 l 96 800 l 95 803 l 92 809 l 92 812 l 90 815 l 89 821 l 87 827 l 85 838 l 84 849 l 82 861 l 81 873 l 80 885 l 80 897 l 79 909 l 79 922 l 79 948 l 247 948 l 247 944 l 247 940 l 247 936 l 247 932 l 247 928 l 247 925 l 247 922 l 247 919 l 247 916 l 247 913 l 247 911 l 247 908 l 247 906 l 247 903 l 247 901 l 248 900 l 248 897 l 248 893 l 248 886 l 249 880 l 250 876 l 250 873 l 251 869 l 252 866 l 253 861 l 254 857 l 254 855 l 255 852 l 256 850 l 257 849 l 257 848 l 258 846 l 258 846 l 258 844 l 259 843 l 260 840 l 261 839 l 262 837 l 263 833 l 265 829 l 267 827 l 268 824 l 269 821 l 270 819 l 379 572 l 496 835 l 497 837 l 498 839 l 498 841 l 499 842 l 500 844 l 500 845 l 501 846 l 502 848 l 502 849 l 503 850 l 503 850 l 503 851 l 504 852 l 505 854 l 505 857 l 507 860 l 507 861 l 507 863 l 507 864 l 508 865 l 509 868 l 509 871 l 510 875 l 511 878 l 511 879 l 511 880 l 511 881 l 511 885 l 512 886 l 512 888 l 512 890 l 512 891 l 513 895 l 513 898 l 513 902 l 513 903 l 513 905 l 513 907 l 513 910 l 513 913 l 513 915 l 513 918 l 513 921 l 513 924 l 513 927 l 513 930 l 513 934 l 513 938 l 513 942 l 513 948 l 680 948 z "},"Z":{"ha":762,"x_min":72,"x_max":684,"o":"m 677 948 l 677 779 l 281 168 l 684 169 l 684 0 l 80 0 l 79 163 l 479 776 l 74 774 l 72 948 l 677 948 z "},"I":{"ha":358,"x_min":94,"x_max":264,"o":"m 94 947 l 261 948 l 264 1 l 98 1 l 94 947 z "},"a":{"ha":762,"x_min":73,"x_max":671,"o":"m 284 949 l 451 949 l 671 3 l 503 2 l 468 157 l 275 155 l 240 2 l 73 1 l 284 949 m 367 619 l 364 618 l 363 617 l 361 616 l 360 615 l 359 614 l 359 613 l 358 612 l 358 610 l 304 335 l 304 333 l 305 332 l 305 330 l 305 330 l 306 329 l 307 328 l 307 328 l 307 326 l 309 326 l 310 323 l 311 323 l 312 322 l 313 321 l 313 320 l 315 320 l 316 319 l 319 319 l 321 319 l 323 319 l 324 319 l 327 319 l 328 319 l 328 319 l 330 319 l 332 319 l 333 319 l 334 319 l 336 319 l 338 319 l 340 319 l 345 319 l 347 319 l 349 319 l 352 319 l 355 319 l 361 319 l 365 319 l 368 319 l 376 319 l 380 319 l 384 319 l 388 319 l 393 319 l 397 319 l 402 319 l 412 319 l 414 319 l 415 319 l 418 319 l 419 319 l 420 319 l 423 320 l 425 320 l 428 321 l 429 321 l 431 321 l 432 321 l 433 322 l 434 323 l 435 323 l 436 324 l 437 326 l 438 326 l 439 328 l 439 329 l 440 330 l 440 330 l 441 331 l 441 332 l 441 332 l 441 333 l 441 334 l 441 335 l 441 336 l 411 474 l 381 612 l 379 614 l 378 616 l 376 618 l 374 619 l 372 620 l 371 620 l 370 620 l 368 620 l 367 619 z "},"b":{"ha":756,"x_min":73,"x_max":683,"o":"m 592 913 l 597 908 l 602 905 l 610 898 l 619 890 l 623 886 l 628 882 l 630 880 l 632 878 l 637 874 l 640 869 l 642 867 l 644 865 l 646 863 l 648 860 l 652 854 l 653 852 l 655 849 l 659 844 l 661 838 l 662 837 l 663 836 l 664 832 l 665 829 l 667 827 l 669 821 l 671 816 l 672 813 l 673 810 l 673 809 l 673 808 l 673 808 l 674 805 l 675 800 l 676 798 l 677 795 l 677 793 l 677 792 l 677 789 l 678 787 l 678 785 l 679 783 l 679 781 l 679 779 l 679 778 l 679 777 l 680 777 l 680 775 l 680 774 l 680 772 l 680 770 l 680 768 l 680 767 l 680 766 l 680 765 l 680 607 l 680 604 l 680 603 l 680 602 l 680 602 l 680 599 l 680 593 l 680 587 l 679 581 l 679 579 l 679 577 l 678 574 l 677 571 l 677 568 l 677 565 l 677 564 l 677 563 l 677 562 l 675 555 l 675 552 l 675 549 l 673 546 l 673 545 l 673 543 l 672 542 l 672 540 l 671 537 l 670 536 l 670 535 l 669 534 l 668 531 l 665 526 l 663 520 l 661 517 l 660 515 l 658 513 l 656 510 l 655 508 l 654 505 l 652 503 l 651 502 l 651 501 l 650 500 l 650 500 l 649 498 l 647 496 l 644 492 l 643 491 l 642 489 l 641 488 l 640 488 l 640 487 l 640 486 l 641 485 l 641 484 l 642 484 l 642 484 l 643 483 l 644 481 l 645 481 l 646 480 l 647 479 l 648 477 l 650 476 l 652 473 l 654 471 l 656 469 l 657 468 l 659 465 l 661 463 l 663 460 l 664 458 l 666 455 l 667 452 l 669 450 l 669 446 l 671 443 l 672 440 l 673 437 l 675 430 l 675 427 l 676 424 l 676 422 l 677 421 l 677 418 l 679 412 l 680 406 l 680 399 l 681 393 l 681 387 l 682 382 l 682 376 l 683 370 l 683 370 l 683 368 l 683 368 l 683 366 l 683 365 l 683 363 l 683 361 l 683 359 l 683 357 l 683 355 l 683 353 l 683 350 l 683 347 l 683 345 l 683 342 l 683 338 l 683 335 l 683 332 l 683 328 l 683 324 l 683 320 l 683 316 l 683 312 l 683 307 l 683 302 l 683 298 l 683 293 l 683 288 l 683 283 l 683 277 l 683 271 l 683 266 l 682 260 l 682 254 l 682 249 l 682 244 l 682 239 l 682 234 l 682 229 l 682 224 l 682 220 l 682 216 l 682 212 l 682 208 l 682 205 l 682 201 l 682 198 l 682 195 l 682 192 l 682 189 l 682 186 l 682 184 l 681 182 l 681 180 l 681 178 l 681 176 l 681 174 l 681 173 l 681 172 l 681 171 l 681 170 l 681 170 l 681 169 l 681 168 l 680 168 l 680 166 l 680 165 l 680 163 l 679 161 l 679 159 l 678 157 l 678 154 l 677 149 l 675 144 l 674 138 l 673 133 l 671 127 l 669 122 l 667 117 l 665 111 l 662 106 l 660 100 l 657 95 l 654 90 l 652 86 l 649 81 l 646 77 l 643 73 l 640 68 l 635 64 l 632 59 l 627 54 l 623 49 l 618 45 l 614 40 l 610 36 l 608 34 l 607 33 l 606 33 l 606 33 l 602 28 l 601 28 l 600 28 l 599 26 l 597 24 l 595 23 l 592 21 l 591 20 l 591 20 l 590 20 l 587 18 l 585 16 l 583 15 l 580 13 l 577 12 l 574 10 l 572 9 l 568 7 l 566 7 l 562 5 l 561 5 l 559 5 l 557 5 l 556 4 l 555 4 l 555 4 l 554 4 l 553 3 l 549 3 l 548 3 l 546 3 l 545 3 l 545 3 l 544 3 l 543 3 l 541 3 l 540 3 l 538 3 l 536 2 l 533 2 l 531 2 l 528 2 l 527 2 l 526 2 l 522 2 l 519 2 l 515 2 l 511 2 l 507 2 l 503 2 l 498 2 l 494 2 l 489 2 l 484 2 l 479 2 l 473 2 l 467 2 l 461 2 l 455 2 l 449 2 l 442 2 l 435 2 l 429 2 l 421 1 l 414 1 l 406 1 l 398 1 l 390 1 l 382 1 l 373 1 l 364 1 l 355 1 l 346 1 l 337 1 l 327 1 l 317 1 l 307 1 l 297 1 l 286 1 l 275 1 l 264 1 l 254 1 l 242 1 l 231 1 l 218 1 l 207 1 l 195 1 l 182 1 l 170 1 l 157 1 l 143 1 l 130 1 l 117 1 l 102 1 l 89 1 l 75 1 l 74 164 l 127 165 l 125 777 l 73 777 l 73 947 l 463 949 l 467 949 l 472 949 l 477 949 l 483 948 l 489 947 l 495 947 l 502 945 l 508 945 l 515 943 l 522 942 l 528 940 l 534 939 l 541 937 l 547 935 l 553 932 l 559 930 l 564 928 l 570 926 l 575 923 l 580 920 l 585 917 l 592 913 m 473 772 l 471 774 l 468 775 l 465 777 l 463 777 l 459 778 l 456 779 l 453 780 l 450 780 l 447 781 l 444 781 l 440 781 l 437 781 l 433 781 l 429 781 l 426 781 l 425 781 l 295 779 l 297 568 l 450 568 l 453 568 l 456 569 l 460 570 l 463 570 l 466 571 l 469 572 l 472 572 l 473 573 l 475 574 l 476 574 l 477 574 l 480 576 l 483 577 l 486 579 l 486 579 l 487 580 l 488 581 l 490 583 l 493 585 l 495 586 l 496 587 l 498 589 l 498 589 l 500 591 l 500 592 l 501 593 l 503 594 l 503 595 l 505 598 l 505 600 l 506 600 l 506 601 l 507 602 l 507 602 l 507 604 l 507 605 l 508 606 l 509 607 l 509 608 l 509 608 l 509 610 l 510 612 l 510 613 l 510 615 l 511 617 l 511 621 l 511 623 l 511 623 l 511 624 l 511 628 l 511 629 l 511 630 l 511 631 l 511 634 l 511 634 l 511 635 l 511 636 l 511 642 l 511 648 l 511 653 l 512 659 l 512 663 l 512 669 l 512 673 l 512 678 l 512 683 l 512 687 l 512 691 l 512 695 l 512 699 l 512 703 l 512 707 l 512 710 l 512 713 l 511 717 l 511 720 l 511 722 l 511 725 l 511 728 l 511 730 l 510 732 l 509 736 l 509 739 l 509 740 l 508 741 l 507 743 l 507 743 l 507 745 l 504 748 l 501 751 l 500 753 l 498 755 l 494 758 l 490 762 l 486 765 l 484 766 l 479 770 l 473 772 m 297 165 l 437 164 l 437 164 l 440 164 l 443 164 l 446 164 l 446 165 l 447 165 l 448 165 l 454 165 l 456 165 l 458 165 l 458 165 l 461 166 l 464 167 l 466 167 l 469 168 l 471 168 l 473 169 l 478 170 l 479 171 l 480 172 l 483 172 l 484 173 l 484 174 l 485 174 l 486 174 l 488 175 l 490 176 l 492 178 l 492 179 l 494 180 l 495 182 l 497 184 l 498 184 l 498 185 l 498 185 l 498 186 l 500 188 l 500 189 l 500 189 l 501 189 l 502 191 l 503 193 l 505 195 l 505 197 l 506 198 l 507 201 l 507 203 l 508 206 l 509 209 l 510 212 l 510 215 l 511 218 l 511 220 l 511 224 l 512 227 l 512 229 l 512 230 l 512 233 l 513 236 l 513 239 l 513 243 l 512 247 l 512 250 l 512 329 l 512 330 l 512 330 l 512 332 l 512 333 l 512 334 l 511 336 l 511 337 l 511 338 l 511 339 l 511 340 l 511 342 l 510 343 l 510 345 l 509 347 l 509 347 l 509 349 l 508 350 l 508 351 l 507 353 l 507 355 l 506 357 l 505 359 l 503 364 l 502 366 l 500 368 l 499 370 l 498 372 l 494 376 l 491 379 l 487 382 l 482 385 l 479 387 l 477 388 l 475 389 l 472 391 l 469 392 l 467 393 l 464 394 l 461 395 l 458 396 l 455 397 l 452 397 l 448 398 l 445 398 l 442 399 l 439 399 l 435 399 l 298 400 l 297 165 z "},"c":{"ha":781,"x_min":78,"x_max":685,"o":"m 491 945 l 497 944 l 503 943 l 510 941 l 516 939 l 522 937 l 528 935 l 534 932 l 540 930 l 545 928 l 551 924 l 557 922 l 563 919 l 568 916 l 574 913 l 578 909 l 584 906 l 589 903 l 594 899 l 600 895 l 604 891 l 608 887 l 612 883 l 616 879 l 621 875 l 627 866 l 631 862 l 635 857 l 638 852 l 642 848 l 645 843 l 648 838 l 651 832 l 654 827 l 657 821 l 661 816 l 663 810 l 665 804 l 668 799 l 670 793 l 671 790 l 672 787 l 673 785 l 674 781 l 675 779 l 675 777 l 675 776 l 676 775 l 676 774 l 677 771 l 677 770 l 677 768 l 678 766 l 679 764 l 680 762 l 680 760 l 681 758 l 681 756 l 681 755 l 682 753 l 682 753 l 682 752 l 682 751 l 682 749 l 683 747 l 684 743 l 684 743 l 684 741 l 684 741 l 684 739 l 684 739 l 684 738 l 684 737 l 684 736 l 685 736 l 517 682 l 517 688 l 515 694 l 514 701 l 513 707 l 511 713 l 510 718 l 507 724 l 505 730 l 503 734 l 501 737 l 500 739 l 498 742 l 497 744 l 496 746 l 494 748 l 491 752 l 490 754 l 488 755 l 486 758 l 485 759 l 481 762 l 479 763 l 477 764 l 475 766 l 473 766 l 471 768 l 469 768 l 466 770 l 463 770 l 460 771 l 457 772 l 454 773 l 451 773 l 448 774 l 444 774 l 441 775 l 437 775 l 338 777 l 337 777 l 330 777 l 323 776 l 321 775 l 317 774 l 311 773 l 306 771 l 300 769 l 294 766 l 292 765 l 289 764 l 286 762 l 283 760 l 281 759 l 279 757 l 277 755 l 275 753 l 272 751 l 271 749 l 269 747 l 267 745 l 264 740 l 262 737 l 261 734 l 260 732 l 258 729 l 256 724 l 255 718 l 253 712 l 252 706 l 252 700 l 251 694 l 251 687 l 251 680 l 252 680 l 254 285 l 254 278 l 254 271 l 253 258 l 253 244 l 253 237 l 253 231 l 254 227 l 254 224 l 254 220 l 254 217 l 256 214 l 256 212 l 257 208 l 258 205 l 260 203 l 261 200 l 263 198 l 264 195 l 267 193 l 269 191 l 271 189 l 273 186 l 275 184 l 278 183 l 283 179 l 288 176 l 291 175 l 294 174 l 297 173 l 300 172 l 302 171 l 306 170 l 312 168 l 315 168 l 318 168 l 319 168 l 444 170 l 448 170 l 451 170 l 454 171 l 458 172 l 459 172 l 460 172 l 464 173 l 467 174 l 468 174 l 469 174 l 471 175 l 471 175 l 473 176 l 473 176 l 474 176 l 476 177 l 477 178 l 478 178 l 480 179 l 482 180 l 484 181 l 486 182 l 489 185 l 490 186 l 490 187 l 492 189 l 494 191 l 495 192 l 496 194 l 497 195 l 498 196 l 500 198 l 501 200 l 503 202 l 504 204 l 505 207 l 507 210 l 508 212 l 509 214 l 510 217 l 511 220 l 512 221 l 512 222 l 513 222 l 513 226 l 515 229 l 515 231 l 516 232 l 516 233 l 517 235 l 517 237 l 517 239 l 518 239 l 518 240 l 518 241 l 519 243 l 519 247 l 520 250 l 520 250 l 520 251 l 520 252 l 521 253 l 522 256 l 522 260 l 522 263 l 683 213 l 682 206 l 682 205 l 682 204 l 681 203 l 681 203 l 681 199 l 680 193 l 679 190 l 678 186 l 677 185 l 677 183 l 676 180 l 675 177 l 675 174 l 673 168 l 672 166 l 671 165 l 671 161 l 668 156 l 666 150 l 663 144 l 661 138 l 659 133 l 656 127 l 653 122 l 650 117 l 649 115 l 648 112 l 645 106 l 642 102 l 639 97 l 635 92 l 633 90 l 632 87 l 629 83 l 627 81 l 625 79 l 622 75 l 618 70 l 616 68 l 614 66 l 612 64 l 610 62 l 609 61 l 608 60 l 606 58 l 602 54 l 599 53 l 598 52 l 597 51 l 592 47 l 587 44 l 583 41 l 577 37 l 572 34 l 567 31 l 566 31 l 566 31 l 565 30 l 562 28 l 557 26 l 553 23 l 543 18 l 537 16 l 532 14 l 528 13 l 523 11 l 513 7 l 512 7 l 511 7 l 509 7 l 507 6 l 507 6 l 505 6 l 503 5 l 501 5 l 499 5 l 497 5 l 494 5 l 494 5 l 493 5 l 492 4 l 489 4 l 486 4 l 485 4 l 484 4 l 483 3 l 480 3 l 477 3 l 473 3 l 469 3 l 466 3 l 464 3 l 462 2 l 458 2 l 454 2 l 450 2 l 445 2 l 441 2 l 317 1 l 315 1 l 313 1 l 309 1 l 306 1 l 303 1 l 302 1 l 300 1 l 298 1 l 298 1 l 296 1 l 294 1 l 292 1 l 290 1 l 288 2 l 286 2 l 283 3 l 280 3 l 277 4 l 275 4 l 272 5 l 269 5 l 267 6 l 266 6 l 265 7 l 263 7 l 260 7 l 254 9 l 248 11 l 241 13 l 236 16 l 230 18 l 224 20 l 218 23 l 212 26 l 206 28 l 201 32 l 195 35 l 190 39 l 184 42 l 180 45 l 175 49 l 170 53 l 165 57 l 161 61 l 156 65 l 152 69 l 147 74 l 143 79 l 138 83 l 135 89 l 130 94 l 127 99 l 123 104 l 119 111 l 116 116 l 113 122 l 109 128 l 106 134 l 103 140 l 101 146 l 98 153 l 96 159 l 94 165 l 92 170 l 90 176 l 88 182 l 87 187 l 85 193 l 84 199 l 83 205 l 82 210 l 81 216 l 81 222 l 81 229 l 80 231 l 80 233 l 80 238 l 80 239 l 78 730 l 78 731 l 79 737 l 79 743 l 81 748 l 81 753 l 82 758 l 83 763 l 84 768 l 85 772 l 86 776 l 87 781 l 89 785 l 90 788 l 91 791 l 92 795 l 94 798 l 95 801 l 100 812 l 106 824 l 113 836 l 119 846 l 123 852 l 127 857 l 131 863 l 135 867 l 140 872 l 144 878 l 149 882 l 154 886 l 159 891 l 165 896 l 170 899 l 175 903 l 180 907 l 185 910 l 191 913 l 195 916 l 206 921 l 216 926 l 227 930 l 238 933 l 243 935 l 249 937 l 254 939 l 260 940 l 267 942 l 272 943 l 279 944 l 285 945 l 292 947 l 298 947 l 304 948 l 311 949 l 318 949 l 325 949 l 332 949 l 453 949 l 457 949 l 460 948 l 465 948 l 468 948 l 471 947 l 474 947 l 477 947 l 480 947 l 483 947 l 485 947 l 487 946 l 489 946 l 491 945 z "},"d":{"ha":760,"x_min":75,"x_max":684,"o":"m 521 946 l 526 945 l 529 945 l 535 944 l 541 943 l 547 941 l 552 939 l 554 939 l 557 937 l 562 935 l 567 933 l 572 931 l 576 928 l 581 925 l 586 922 l 591 919 l 595 915 l 600 911 l 605 907 l 610 902 l 611 901 l 612 900 l 614 898 l 619 894 l 623 889 l 625 887 l 626 887 l 626 886 l 627 886 l 627 885 l 631 881 l 635 877 l 640 873 l 643 868 l 644 866 l 646 864 l 650 859 l 652 854 l 656 850 l 657 847 l 659 844 l 661 839 l 662 836 l 663 833 l 666 827 l 668 822 l 670 816 l 672 810 l 674 804 l 675 798 l 677 791 l 679 785 l 680 775 l 682 766 l 682 761 l 683 755 l 683 751 l 684 745 l 683 210 l 683 206 l 683 203 l 683 196 l 683 189 l 683 186 l 683 182 l 683 179 l 682 177 l 682 176 l 682 172 l 682 169 l 681 162 l 680 155 l 679 153 l 678 149 l 677 146 l 677 144 l 676 144 l 676 142 l 674 136 l 673 134 l 672 130 l 671 127 l 669 124 l 667 118 l 666 117 l 665 116 l 665 115 l 664 112 l 663 109 l 661 106 l 657 100 l 656 98 l 654 95 l 650 90 l 647 84 l 645 82 l 644 79 l 640 74 l 636 69 l 635 66 l 633 64 l 629 60 l 627 58 l 626 56 l 625 56 l 624 54 l 623 53 l 621 51 l 616 47 l 615 45 l 614 45 l 612 43 l 610 41 l 608 39 l 605 37 l 603 35 l 600 33 l 597 31 l 593 28 l 591 27 l 590 26 l 587 24 l 582 21 l 577 18 l 574 17 l 573 16 l 572 16 l 566 13 l 561 11 l 556 9 l 553 7 l 551 7 l 548 6 l 545 5 l 543 5 l 540 4 l 537 3 l 534 3 l 532 3 l 530 2 l 530 2 l 529 2 l 526 2 l 525 2 l 524 1 l 522 1 l 520 1 l 517 1 l 515 1 l 512 1 l 511 1 l 81 1 l 81 2 l 81 166 l 133 167 l 132 778 l 75 778 l 75 947 l 463 949 l 472 949 l 480 949 l 488 949 l 496 949 l 503 948 l 510 947 l 517 947 l 521 946 m 496 770 l 494 772 l 492 774 l 490 775 l 488 777 l 486 778 l 484 779 l 482 780 l 479 781 l 477 781 l 474 782 l 471 783 l 469 783 l 466 783 l 463 783 l 460 783 l 458 783 l 456 783 l 302 784 l 301 166 l 450 166 l 451 166 l 453 166 l 454 166 l 458 166 l 461 166 l 465 167 l 467 167 l 471 168 l 473 168 l 476 169 l 479 170 l 480 170 l 481 171 l 484 172 l 486 174 l 489 175 l 491 176 l 493 178 l 496 179 l 497 181 l 498 182 l 500 183 l 500 184 l 501 185 l 503 187 l 505 190 l 506 192 l 507 195 l 509 197 l 510 201 l 511 203 l 512 206 l 513 208 l 513 211 l 513 214 l 513 216 l 514 218 l 513 218 l 513 219 l 513 220 l 513 221 l 513 222 l 513 223 l 513 224 l 513 225 l 513 227 l 513 229 l 513 230 l 513 232 l 513 233 l 513 235 l 513 237 l 513 242 l 513 245 l 513 247 l 513 250 l 513 252 l 513 704 l 513 709 l 513 714 l 513 718 l 513 722 l 513 726 l 513 728 l 513 729 l 512 732 l 512 734 l 512 736 l 512 736 l 512 737 l 511 742 l 510 746 l 509 748 l 508 751 l 507 754 l 505 759 l 503 761 l 502 762 l 499 766 l 498 768 l 496 770 z "},"e":{"ha":773,"x_min":85,"x_max":690,"o":"m 684 774 l 264 772 l 261 556 l 572 556 l 572 386 l 263 385 l 263 174 l 690 176 l 690 4 l 90 1 l 85 949 l 685 949 l 684 774 z "},"f":{"ha":771,"x_min":85,"x_max":689,"o":"m 689 949 l 689 780 l 260 779 l 263 557 l 570 559 l 570 387 l 260 387 l 262 1 l 89 1 l 85 949 l 689 949 z "},"g":{"ha":786,"x_min":81,"x_max":689,"o":"m 522 945 l 528 944 l 534 943 l 539 942 l 545 940 l 549 939 l 555 937 l 560 935 l 566 932 l 570 930 l 576 927 l 581 924 l 585 922 l 590 919 l 595 916 l 599 913 l 603 909 l 611 903 l 615 899 l 619 895 l 623 891 l 627 888 l 635 879 l 638 875 l 642 871 l 646 867 l 649 862 l 652 858 l 655 853 l 658 848 l 661 844 l 663 839 l 665 834 l 668 829 l 670 825 l 672 820 l 673 815 l 675 810 l 677 805 l 678 800 l 680 795 l 681 791 l 682 785 l 683 780 l 684 774 l 684 769 l 685 764 l 686 761 l 686 760 l 686 760 l 686 758 l 686 755 l 686 753 l 686 751 l 686 748 l 686 743 l 522 684 l 522 689 l 521 694 l 520 699 l 519 703 l 519 707 l 519 711 l 519 715 l 519 719 l 519 722 l 518 726 l 517 730 l 517 732 l 517 733 l 515 737 l 514 741 l 514 742 l 513 743 l 513 745 l 511 748 l 510 750 l 509 752 l 507 755 l 505 757 l 504 759 l 501 762 l 498 764 l 496 766 l 494 767 l 490 769 l 486 771 l 484 772 l 481 773 l 479 774 l 476 774 l 471 776 l 469 776 l 467 777 l 464 777 l 461 777 l 458 777 l 456 777 l 453 777 l 450 777 l 448 777 l 328 777 l 323 776 l 317 776 l 311 775 l 307 774 l 301 773 l 296 772 l 292 770 l 287 769 l 283 767 l 279 765 l 277 764 l 275 763 l 274 762 l 273 760 l 271 759 l 269 757 l 268 755 l 267 753 l 264 749 l 263 747 l 262 745 l 260 741 l 258 736 l 258 734 l 257 732 l 256 727 l 255 723 l 254 720 l 254 718 l 254 716 l 254 714 l 254 712 l 254 711 l 254 709 l 254 708 l 254 707 l 254 706 l 256 259 l 256 255 l 256 251 l 255 243 l 255 239 l 256 236 l 256 232 l 256 229 l 256 225 l 256 222 l 257 218 l 257 216 l 258 213 l 258 210 l 258 207 l 259 204 l 260 202 l 261 199 l 262 195 l 263 193 l 264 191 l 265 189 l 267 187 l 268 185 l 269 184 l 271 182 l 272 181 l 274 180 l 275 178 l 277 178 l 279 176 l 282 175 l 286 174 l 290 172 l 294 172 l 298 170 l 302 170 l 306 170 l 310 169 l 311 169 l 461 170 l 462 170 l 464 171 l 465 171 l 465 171 l 467 171 l 469 172 l 472 172 l 475 172 l 478 172 l 479 173 l 481 173 l 483 174 l 485 174 l 488 176 l 490 176 l 492 178 l 493 178 l 495 180 l 496 181 l 498 182 l 500 184 l 501 186 l 503 187 l 505 189 l 507 191 l 508 193 l 509 195 l 509 196 l 510 196 l 511 197 l 511 199 l 511 199 l 511 199 l 513 202 l 513 203 l 513 204 l 514 207 l 515 209 l 515 210 l 515 212 l 516 214 l 517 217 l 517 219 l 517 220 l 517 223 l 517 226 l 517 229 l 517 242 l 516 255 l 516 268 l 516 282 l 414 283 l 415 451 l 688 451 l 688 439 l 688 429 l 688 419 l 688 409 l 688 399 l 688 390 l 688 381 l 689 372 l 689 363 l 689 355 l 689 347 l 689 343 l 689 340 l 689 332 l 689 326 l 689 319 l 689 315 l 689 314 l 689 312 l 689 309 l 689 306 l 689 300 l 689 295 l 689 290 l 689 288 l 689 288 l 689 285 l 689 280 l 689 276 l 689 272 l 688 269 l 688 265 l 688 264 l 688 262 l 688 259 l 688 256 l 688 254 l 688 253 l 688 251 l 688 239 l 687 228 l 686 216 l 686 203 l 686 202 l 686 201 l 685 197 l 684 192 l 684 189 l 684 186 l 683 180 l 682 174 l 681 172 l 681 170 l 680 170 l 680 169 l 680 168 l 680 167 l 679 164 l 677 159 l 675 154 l 674 149 l 672 144 l 671 139 l 669 134 l 667 130 l 665 125 l 663 121 l 663 119 l 662 118 l 661 117 l 661 117 l 659 113 l 657 109 l 656 106 l 655 104 l 654 102 l 653 100 l 650 96 l 648 93 l 646 89 l 643 85 l 640 81 l 637 77 l 634 74 l 631 70 l 627 66 l 624 62 l 620 58 l 616 54 l 612 50 l 608 47 l 605 43 l 601 40 l 597 37 l 593 35 l 589 33 l 586 30 l 582 28 l 578 26 l 574 23 l 569 21 l 564 18 l 559 16 l 555 14 l 550 12 l 545 10 l 541 8 l 536 7 l 532 5 l 527 5 l 523 4 l 519 3 l 517 3 l 517 3 l 516 3 l 515 3 l 513 3 l 511 3 l 509 3 l 505 3 l 504 3 l 502 3 l 498 3 l 496 3 l 494 3 l 489 3 l 484 3 l 481 3 l 478 2 l 475 2 l 472 2 l 469 2 l 466 2 l 459 2 l 456 2 l 452 2 l 444 2 l 441 2 l 439 2 l 437 2 l 433 2 l 429 2 l 420 2 l 415 2 l 410 2 l 401 1 l 396 1 l 391 1 l 386 1 l 381 1 l 376 1 l 370 1 l 365 1 l 359 1 l 348 1 l 336 1 l 324 1 l 317 1 l 311 1 l 298 1 l 286 1 l 285 1 l 279 1 l 273 1 l 268 1 l 262 2 l 257 3 l 252 3 l 247 5 l 242 6 l 232 9 l 222 12 l 216 14 l 212 16 l 206 18 l 201 20 l 196 22 l 191 24 l 186 27 l 182 29 l 178 32 l 173 35 l 169 38 l 165 41 l 161 44 l 157 47 l 153 50 l 149 54 l 142 60 l 135 67 l 132 71 l 128 75 l 125 79 l 122 83 l 119 87 l 117 91 l 114 96 l 112 100 l 109 104 l 107 109 l 105 114 l 103 119 l 102 123 l 100 128 l 98 133 l 96 138 l 94 148 l 92 153 l 91 157 l 89 166 l 87 170 l 87 174 l 86 179 l 85 183 l 84 187 l 84 191 l 83 195 l 83 199 l 83 203 l 83 206 l 81 726 l 81 731 l 81 736 l 81 741 l 82 745 l 82 749 l 83 753 l 83 758 l 83 762 l 83 765 l 84 768 l 84 772 l 85 775 l 85 778 l 85 781 l 86 783 l 86 786 l 87 791 l 88 795 l 90 800 l 91 805 l 93 810 l 94 814 l 98 824 l 103 834 l 108 843 l 113 852 l 119 861 l 122 866 l 125 871 l 128 875 l 132 879 l 136 884 l 139 888 l 143 892 l 147 895 l 151 899 l 155 903 l 159 907 l 164 910 l 168 913 l 173 916 l 178 920 l 182 922 l 192 927 l 202 932 l 212 937 l 222 940 l 227 942 l 232 943 l 237 945 l 243 945 l 248 947 l 254 947 l 260 947 l 266 947 l 288 948 l 300 948 l 311 949 l 313 949 l 477 949 l 489 948 l 495 948 l 501 947 l 512 946 l 522 945 z "},"h":{"ha":762,"x_min":81,"x_max":684,"o":"m 508 949 l 684 949 l 683 3 l 510 3 l 509 387 l 254 387 l 254 1 l 82 1 l 81 949 l 250 949 l 253 563 l 508 563 l 508 949 z "},"i":{"ha":358,"x_min":94,"x_max":264,"o":"m 94 947 l 261 948 l 264 1 l 98 1 l 94 947 z "},"j":{"ha":779,"x_min":91,"x_max":683,"o":"m 513 949 l 681 949 l 683 241 l 683 235 l 683 229 l 683 222 l 683 216 l 683 203 l 682 195 l 682 190 l 681 186 l 680 180 l 677 166 l 674 153 l 673 147 l 671 142 l 670 136 l 668 131 l 667 128 l 667 127 l 666 125 l 665 121 l 663 118 l 662 115 l 661 113 l 660 111 l 659 108 l 658 106 l 656 103 l 655 101 l 654 99 l 652 96 l 650 92 l 646 87 l 643 81 l 642 79 l 640 76 l 637 73 l 635 71 l 633 68 l 631 65 l 628 62 l 625 59 l 622 56 l 619 53 l 617 51 l 614 49 l 612 47 l 610 45 l 608 43 l 607 42 l 603 40 l 601 39 l 599 37 l 595 35 l 592 33 l 590 31 l 585 28 l 579 25 l 574 22 l 568 20 l 566 18 l 563 17 l 560 16 l 558 15 l 555 14 l 553 13 l 551 12 l 549 12 l 547 11 l 545 10 l 543 10 l 541 9 l 539 9 l 538 9 l 536 8 l 535 8 l 533 7 l 531 7 l 529 6 l 527 6 l 526 5 l 525 5 l 524 5 l 523 5 l 522 5 l 520 5 l 519 4 l 517 4 l 515 4 l 513 3 l 511 3 l 509 3 l 507 2 l 505 2 l 502 1 l 500 1 l 499 1 l 498 1 l 497 1 l 496 1 l 496 1 l 273 1 l 271 1 l 269 1 l 268 1 l 267 1 l 267 1 l 262 1 l 258 1 l 254 2 l 249 3 l 247 3 l 245 3 l 241 5 l 236 6 l 232 7 l 231 8 l 230 8 l 229 9 l 227 9 l 226 9 l 224 10 l 222 12 l 220 12 l 217 14 l 214 15 l 213 16 l 212 16 l 211 16 l 208 18 l 205 18 l 201 22 l 198 23 l 196 24 l 192 27 l 191 28 l 190 28 l 187 30 l 185 31 l 183 33 l 180 35 l 179 36 l 178 37 l 177 37 l 176 39 l 173 40 l 167 44 l 161 48 l 156 53 l 151 58 l 149 60 l 146 63 l 144 65 l 141 67 l 140 70 l 138 72 l 136 74 l 134 75 l 134 77 l 133 77 l 132 79 l 130 81 l 128 83 l 127 86 l 125 88 l 122 94 l 119 98 l 116 104 l 114 109 l 111 113 l 107 123 l 103 133 l 102 135 l 101 138 l 100 140 l 100 143 l 99 146 l 98 149 l 97 155 l 95 167 l 93 179 l 93 182 l 92 186 l 92 189 l 92 193 l 92 197 l 91 200 l 91 204 l 91 208 l 253 257 l 253 254 l 253 253 l 254 252 l 254 250 l 254 247 l 254 245 l 254 243 l 254 241 l 255 240 l 255 239 l 255 237 l 256 235 l 256 233 l 256 231 l 256 229 l 256 226 l 256 222 l 256 219 l 257 216 l 257 213 l 258 210 l 258 207 l 259 204 l 261 198 l 262 195 l 264 193 l 265 190 l 266 189 l 267 187 l 269 185 l 270 184 l 271 183 l 273 181 l 276 179 l 278 178 l 281 176 l 283 174 l 286 173 l 290 172 l 292 171 l 296 170 l 299 170 l 302 169 l 305 168 l 308 168 l 311 168 l 314 168 l 317 168 l 321 168 l 324 168 l 450 168 l 457 168 l 460 168 l 463 168 l 464 168 l 466 169 l 467 169 l 471 169 l 474 170 l 477 170 l 479 170 l 480 171 l 481 172 l 482 172 l 483 172 l 486 173 l 489 174 l 492 176 l 493 176 l 494 177 l 496 178 l 496 178 l 496 179 l 497 179 l 500 180 l 500 182 l 501 182 l 501 182 l 502 183 l 503 184 l 504 185 l 506 187 l 507 189 l 508 190 l 509 193 l 510 194 l 511 195 l 511 195 l 512 199 l 513 200 l 513 201 l 513 203 l 514 205 l 515 208 l 515 212 l 515 215 l 515 218 l 516 222 l 516 224 l 516 227 l 516 231 l 516 231 l 513 949 z "},"k":{"ha":758,"x_min":82,"x_max":680,"o":"m 677 949 l 673 893 l 673 891 l 673 889 l 673 886 l 673 884 l 672 882 l 672 878 l 671 874 l 671 873 l 671 872 l 671 870 l 671 867 l 670 863 l 669 859 l 669 858 l 669 857 l 669 856 l 668 849 l 666 842 l 665 839 l 665 836 l 664 833 l 663 829 l 662 827 l 662 825 l 661 823 l 661 822 l 660 821 l 659 817 l 657 812 l 656 810 l 656 809 l 654 806 l 652 800 l 651 798 l 650 795 l 649 794 l 648 793 l 648 790 l 646 787 l 646 787 l 646 787 l 645 786 l 645 785 l 643 783 l 642 781 l 639 776 l 636 772 l 633 768 l 633 767 l 631 766 l 630 764 l 627 761 l 624 758 l 439 528 l 631 193 l 634 189 l 636 185 l 637 183 l 639 181 l 641 178 l 643 174 l 644 172 l 645 171 l 647 168 l 648 164 l 650 161 l 652 159 l 653 155 l 655 152 l 656 149 l 658 146 l 659 142 l 661 139 l 662 136 l 662 135 l 662 134 l 663 132 l 664 129 l 665 125 l 666 122 l 667 119 l 668 116 l 669 113 l 669 109 l 670 106 l 671 104 l 672 101 l 672 98 l 673 97 l 673 96 l 673 93 l 674 91 l 675 86 l 675 83 l 675 83 l 675 82 l 675 81 l 675 77 l 676 73 l 677 68 l 677 63 l 678 58 l 679 53 l 679 50 l 680 47 l 680 45 l 680 43 l 680 42 l 680 41 l 680 39 l 680 37 l 680 35 l 680 34 l 680 33 l 680 33 l 680 28 l 680 26 l 680 24 l 680 23 l 680 21 l 680 18 l 679 17 l 679 16 l 679 14 l 679 12 l 679 10 l 679 7 l 679 5 l 679 1 l 514 1 l 514 3 l 514 5 l 514 9 l 514 13 l 514 16 l 514 20 l 513 23 l 513 24 l 513 26 l 513 28 l 513 31 l 513 33 l 513 33 l 513 34 l 512 39 l 512 42 l 511 45 l 511 52 l 510 55 l 509 58 l 509 61 l 509 64 l 508 66 l 507 69 l 507 71 l 506 74 l 505 75 l 505 76 l 504 79 l 503 81 l 503 83 l 502 85 l 501 86 l 500 87 l 500 89 l 499 92 l 498 95 l 497 98 l 496 100 l 496 101 l 495 103 l 494 104 l 492 108 l 492 109 l 491 110 l 491 111 l 489 115 l 487 118 l 486 119 l 486 120 l 486 121 l 485 121 l 334 387 l 247 275 l 248 1 l 84 1 l 82 948 l 252 949 l 254 551 l 481 841 l 484 844 l 486 846 l 487 849 l 488 850 l 489 852 l 492 857 l 495 863 l 498 869 l 498 871 l 498 871 l 498 872 l 500 875 l 500 878 l 502 881 l 503 884 l 503 888 l 503 890 l 504 894 l 505 901 l 505 907 l 506 914 l 507 918 l 507 920 l 507 920 l 507 921 l 507 922 l 507 922 l 507 923 l 507 924 l 507 928 l 507 929 l 507 930 l 507 932 l 508 935 l 509 942 l 509 949 l 677 949 z "},"l":{"ha":762,"x_min":83,"x_max":686,"o":"m 253 172 l 686 173 l 686 1 l 83 1 l 83 949 l 253 949 l 253 172 z "},"m":{"ha":770,"x_min":81,"x_max":685,"o":"m 515 951 l 685 953 l 685 2 l 514 2 l 512 397 l 512 398 l 511 400 l 511 402 l 511 404 l 511 405 l 511 406 l 510 408 l 510 408 l 510 409 l 509 410 l 509 410 l 509 411 l 508 412 l 507 412 l 506 412 l 505 413 l 504 413 l 503 414 l 501 413 l 500 412 l 499 411 l 498 410 l 496 408 l 495 405 l 494 402 l 452 215 l 309 215 l 266 401 l 264 404 l 264 406 l 264 407 l 262 409 l 262 410 l 261 411 l 260 412 l 259 412 l 258 413 l 256 413 l 254 412 l 253 412 l 252 411 l 252 410 l 251 410 l 250 409 l 250 408 l 250 408 l 250 407 l 250 406 l 249 404 l 249 403 l 248 401 l 248 399 l 248 396 l 251 1 l 85 1 l 81 949 l 254 950 l 376 528 l 376 528 l 376 527 l 376 526 l 376 525 l 377 524 l 377 522 l 378 520 l 378 519 l 379 517 l 380 516 l 381 515 l 382 514 l 383 513 l 385 513 l 387 513 l 388 513 l 389 513 l 389 513 l 390 513 l 390 513 l 391 513 l 391 513 l 392 514 l 393 515 l 393 515 l 394 516 l 394 517 l 395 518 l 395 519 l 396 522 l 397 525 l 397 526 l 398 528 l 515 951 z "},"n":{"ha":752,"x_min":80,"x_max":684,"o":"m 511 953 l 684 953 l 684 3 l 512 2 l 252 552 l 253 1 l 81 1 l 80 949 l 246 949 l 511 406 l 511 953 z "},"o":{"ha":741,"x_min":71,"x_max":670,"o":"m 614 882 l 622 873 l 625 869 l 628 865 l 631 861 l 634 856 l 637 852 l 639 847 l 642 842 l 644 838 l 646 833 l 648 827 l 650 822 l 653 817 l 655 811 l 657 805 l 659 800 l 661 793 l 663 787 l 664 782 l 665 776 l 667 770 l 667 764 l 668 758 l 668 751 l 669 745 l 669 739 l 669 732 l 669 726 l 670 720 l 670 713 l 670 705 l 668 217 l 668 211 l 668 208 l 668 205 l 667 193 l 667 186 l 666 184 l 666 180 l 665 178 l 665 174 l 665 172 l 664 169 l 663 166 l 663 165 l 663 164 l 663 163 l 663 161 l 662 158 l 661 155 l 661 155 l 661 154 l 661 153 l 660 150 l 659 150 l 659 149 l 659 147 l 657 142 l 655 138 l 654 132 l 652 127 l 649 122 l 647 117 l 645 111 l 642 106 l 641 103 l 640 100 l 639 99 l 638 98 l 637 95 l 635 93 l 633 90 l 633 89 l 632 87 l 631 85 l 630 84 l 629 83 l 627 81 l 627 79 l 626 78 l 624 76 l 623 75 l 622 73 l 621 71 l 619 70 l 618 69 l 616 67 l 616 66 l 614 65 l 612 63 l 612 62 l 610 60 l 608 58 l 604 55 l 601 51 l 596 47 l 592 43 l 591 43 l 590 41 l 588 40 l 584 37 l 581 35 l 579 33 l 577 31 l 574 30 l 572 28 l 571 28 l 570 27 l 564 24 l 562 22 l 559 21 l 553 18 l 547 16 l 545 15 l 543 14 l 541 14 l 538 12 l 535 12 l 532 10 l 529 9 l 526 9 l 524 7 l 521 7 l 519 6 l 516 5 l 514 5 l 512 5 l 510 4 l 508 4 l 506 3 l 504 3 l 503 3 l 502 3 l 501 3 l 500 3 l 500 3 l 498 3 l 498 3 l 497 3 l 496 3 l 494 3 l 493 3 l 492 3 l 490 3 l 488 3 l 487 3 l 483 2 l 481 2 l 479 2 l 281 1 l 278 1 l 275 1 l 272 1 l 269 1 l 266 1 l 263 1 l 260 1 l 257 1 l 254 1 l 251 2 l 248 2 l 244 3 l 242 3 l 241 3 l 237 3 l 236 4 l 234 4 l 231 5 l 227 5 l 224 6 l 220 7 l 217 7 l 214 8 l 211 9 l 208 10 l 205 11 l 199 13 l 193 16 l 187 18 l 184 19 l 182 20 l 176 23 l 172 26 l 167 29 l 162 33 l 157 36 l 153 39 l 148 43 l 144 46 l 140 50 l 136 54 l 132 58 l 128 61 l 125 65 l 121 68 l 119 72 l 116 76 l 113 80 l 111 84 l 108 88 l 105 92 l 102 97 l 100 102 l 98 106 l 95 111 l 92 117 l 90 122 l 88 127 l 86 132 l 84 138 l 83 144 l 81 149 l 79 155 l 78 161 l 77 166 l 76 172 l 75 176 l 74 181 l 73 185 l 73 189 l 72 193 l 71 196 l 71 199 l 71 201 l 71 204 l 71 206 l 71 751 l 73 761 l 74 770 l 75 779 l 77 787 l 79 793 l 80 799 l 81 805 l 83 810 l 85 816 l 87 822 l 90 827 l 92 833 l 95 838 l 98 844 l 100 849 l 103 854 l 106 859 l 109 863 l 112 867 l 115 871 l 118 876 l 121 880 l 125 884 l 129 887 l 133 891 l 136 895 l 140 899 l 145 903 l 150 907 l 154 910 l 159 914 l 163 917 l 168 920 l 173 923 l 177 926 l 182 928 l 187 930 l 193 932 l 197 935 l 203 937 l 209 938 l 214 940 l 220 942 l 227 943 l 233 945 l 239 945 l 245 947 l 251 947 l 257 948 l 263 949 l 269 949 l 275 949 l 473 949 l 481 949 l 485 948 l 489 948 l 493 947 l 498 947 l 503 946 l 507 945 l 512 945 l 517 943 l 522 942 l 527 941 l 532 939 l 538 937 l 543 936 l 546 935 l 549 934 l 554 931 l 556 930 l 559 929 l 564 926 l 569 924 l 571 922 l 574 921 l 576 919 l 578 918 l 580 916 l 583 914 l 587 911 l 591 907 l 595 903 l 599 899 l 603 895 l 607 891 l 610 887 l 614 882 m 477 770 l 476 772 l 475 772 l 472 774 l 470 775 l 467 777 l 464 777 l 461 778 l 460 779 l 458 779 l 455 779 l 454 779 l 452 779 q 377 781 414 781 q 302 781 339 781 l 300 781 l 299 781 l 298 781 l 298 781 l 297 781 l 295 781 l 293 781 l 291 781 l 288 781 l 286 781 l 283 780 l 281 779 l 278 779 l 275 778 l 273 777 l 271 777 l 268 775 l 264 774 l 262 772 l 260 771 l 258 770 l 256 769 l 255 768 l 254 766 l 252 764 l 251 762 l 250 760 l 248 757 l 245 751 l 243 746 l 243 743 l 242 741 l 241 737 l 241 734 l 240 734 l 240 733 l 240 732 l 240 731 l 240 730 l 240 728 l 240 726 l 240 724 l 240 722 l 240 720 l 239 717 l 239 713 l 239 710 l 239 707 l 239 703 l 239 699 l 239 695 l 239 690 l 239 686 l 239 681 l 239 676 l 239 671 l 239 665 l 239 659 l 239 653 l 239 647 l 239 641 l 239 634 l 239 627 l 239 620 l 239 612 l 239 605 l 239 597 l 239 589 l 239 581 l 239 572 l 239 563 l 239 554 l 239 545 l 239 536 l 239 526 l 239 516 l 239 506 l 239 496 l 239 485 l 239 474 l 239 463 l 239 452 l 239 440 l 239 428 l 239 416 l 239 404 l 239 392 l 239 379 l 239 366 l 239 353 l 239 340 l 239 326 l 239 312 l 239 298 l 239 283 l 239 269 l 239 254 l 238 233 l 238 230 l 238 227 l 238 224 l 238 220 l 239 214 l 239 212 l 240 208 l 241 205 l 242 203 l 243 200 l 244 197 l 245 195 l 247 192 l 248 190 l 250 187 l 252 185 l 254 183 l 256 181 l 258 179 l 260 178 l 262 176 l 263 175 l 264 174 l 265 174 l 267 173 l 269 172 l 269 172 l 270 172 l 271 171 l 272 171 l 273 170 l 274 170 l 275 170 l 275 170 l 275 170 l 276 170 l 277 170 l 277 170 l 278 170 l 279 170 l 280 170 l 281 170 l 283 170 l 284 170 l 286 170 l 290 170 l 292 170 l 294 170 l 446 169 l 448 169 l 450 169 l 450 169 l 452 169 l 452 169 l 453 169 l 454 169 l 455 169 l 457 169 l 459 169 l 462 170 l 464 170 l 467 172 l 469 172 l 472 174 l 473 174 l 475 175 l 476 176 l 477 177 l 479 178 l 480 179 l 481 180 l 482 181 l 483 182 l 484 183 l 485 184 l 486 185 l 487 186 l 488 188 l 489 189 l 490 191 l 492 193 l 493 196 l 495 201 l 496 204 l 497 205 l 497 206 l 498 208 l 498 210 l 499 212 l 500 213 l 500 216 l 500 217 l 500 218 l 500 218 l 501 218 l 501 222 l 502 224 l 502 228 l 503 231 l 503 234 l 503 238 l 503 242 l 503 248 l 502 250 l 502 252 l 502 255 l 502 258 l 502 261 l 502 264 l 502 267 l 502 271 l 502 275 l 502 279 l 502 283 l 502 288 l 502 293 l 502 298 l 502 303 l 502 309 l 502 314 l 502 320 l 502 326 l 502 332 l 502 339 l 502 345 l 502 353 l 502 359 l 502 367 l 502 374 l 502 382 l 502 390 l 502 398 l 502 406 l 502 415 l 502 424 l 502 433 l 502 442 l 502 452 l 502 461 l 502 471 l 502 481 l 502 492 l 503 502 l 503 513 l 503 524 l 503 535 l 503 546 l 503 557 l 503 570 l 503 581 l 503 594 l 503 606 l 503 618 l 503 631 l 503 645 l 503 658 l 503 671 l 503 685 l 503 699 l 503 700 l 503 706 l 503 712 l 502 719 l 502 725 l 501 732 l 500 734 l 500 738 l 499 741 l 498 743 l 498 746 l 496 749 l 495 751 l 494 753 l 492 756 l 490 758 l 488 761 l 486 763 l 484 765 l 482 767 l 479 769 l 477 770 z "},"p":{"ha":743,"x_min":72,"x_max":673,"o":"m 666 789 l 667 783 l 668 777 l 668 774 l 669 771 l 669 768 l 669 766 l 669 764 l 670 763 l 670 762 l 670 761 l 670 759 l 670 758 l 670 758 l 671 757 l 671 754 l 671 753 l 671 751 l 671 747 l 671 747 l 672 745 l 672 744 l 672 741 l 672 739 l 673 739 l 673 737 l 673 736 l 673 736 l 673 735 l 673 734 l 673 734 l 671 614 l 671 612 l 671 610 l 671 606 l 671 602 l 671 598 l 670 595 l 670 592 l 670 591 l 670 590 l 670 589 l 670 586 l 669 581 l 669 575 l 667 570 l 667 564 l 667 562 l 667 561 l 666 558 l 665 555 l 665 553 l 663 548 l 663 547 l 663 546 l 662 544 l 661 540 l 659 536 l 657 532 l 655 527 l 654 525 l 654 522 l 651 517 l 649 513 l 648 511 l 647 509 l 644 505 l 644 503 l 642 500 l 640 496 l 637 492 l 635 490 l 634 488 l 631 484 l 629 479 l 626 475 l 623 472 l 620 469 l 618 467 l 616 465 l 614 463 l 612 460 l 608 456 l 603 453 l 599 449 l 595 446 l 590 442 l 586 439 l 584 438 l 582 436 l 577 433 l 575 432 l 574 431 l 574 431 l 574 431 l 572 430 l 570 429 l 568 427 l 566 426 l 563 425 l 561 424 l 559 423 l 558 422 l 555 421 l 553 420 l 547 418 l 542 416 l 536 414 l 534 412 l 532 412 l 532 412 l 532 412 l 531 412 l 526 410 l 519 408 l 517 407 l 514 406 l 508 405 l 501 404 l 495 402 l 489 401 l 476 399 l 463 398 l 449 397 l 447 397 l 445 397 l 443 397 l 441 397 l 438 396 l 436 396 l 433 396 l 431 395 l 429 395 l 244 396 l 245 1 l 73 1 l 72 949 l 454 949 l 460 949 l 466 949 l 471 949 l 477 949 l 484 948 l 489 947 l 495 947 l 500 945 l 506 945 l 511 944 l 517 943 l 522 941 l 527 940 l 532 939 l 537 937 l 542 935 l 547 933 l 551 931 l 555 930 l 560 927 l 564 925 l 569 922 l 573 920 l 577 918 l 581 915 l 585 912 l 589 909 l 593 906 l 596 903 l 600 899 l 604 897 l 607 892 l 610 889 l 613 886 l 616 882 l 619 879 l 622 876 l 625 872 l 627 869 l 631 865 l 633 861 l 633 861 l 634 860 l 635 858 l 637 855 l 640 851 l 642 848 l 643 847 l 643 846 l 644 844 l 646 841 l 648 840 l 648 838 l 650 834 l 652 831 l 654 828 l 655 825 l 656 821 l 658 818 l 659 814 l 661 811 l 661 808 l 662 806 l 662 806 l 663 805 l 663 802 l 665 798 l 665 795 l 666 792 l 666 789 m 499 715 l 498 718 l 498 722 l 497 724 l 496 728 l 494 730 l 494 734 l 492 736 l 491 739 l 488 745 l 486 747 l 484 750 l 482 753 l 480 755 l 475 760 l 473 763 l 470 766 l 467 768 l 464 769 l 460 771 l 456 772 l 454 774 l 452 774 l 448 775 l 444 777 l 439 777 l 436 778 l 433 778 l 428 779 l 422 779 l 416 779 l 410 779 l 407 779 l 404 779 l 402 779 l 244 781 l 245 570 l 408 570 l 411 570 l 412 570 l 413 570 l 414 570 l 416 570 l 418 570 l 424 570 l 426 570 l 427 570 l 427 570 l 429 570 l 433 571 l 435 571 l 436 571 l 437 571 l 437 571 l 438 572 l 439 572 l 439 572 l 442 572 l 446 573 l 447 573 l 448 573 l 448 573 l 450 574 l 452 574 l 453 574 l 454 575 l 454 575 l 455 575 l 456 576 l 458 576 l 460 577 l 462 578 l 465 580 l 467 581 l 469 581 l 470 583 l 472 583 l 475 585 l 475 586 l 476 587 l 477 588 l 478 589 l 479 589 l 479 589 l 481 590 l 483 593 l 484 593 l 484 593 l 486 595 l 488 597 l 489 599 l 489 600 l 490 600 l 490 600 l 492 602 l 493 605 l 494 608 l 496 610 l 496 612 l 496 612 l 497 613 l 498 616 l 498 616 l 498 617 l 498 618 l 498 622 l 498 623 l 499 623 l 499 625 l 499 625 l 499 626 l 499 627 l 499 710 l 499 715 z "},"q":{"ha":788,"x_min":85,"x_max":707,"o":"m 659 869 l 662 865 l 663 863 l 665 861 l 668 855 l 672 850 l 675 844 l 677 841 l 678 838 l 682 831 l 683 828 l 685 825 l 686 821 l 688 818 l 689 815 l 690 813 l 690 812 l 690 812 l 690 811 l 691 810 l 692 808 l 693 805 l 694 802 l 695 799 l 696 796 l 697 793 l 698 791 l 698 789 l 699 787 l 701 781 l 701 778 l 702 775 l 703 770 l 703 768 l 703 768 l 703 767 l 704 764 l 705 760 l 705 754 l 705 753 l 705 752 l 706 750 l 706 747 l 707 745 l 707 743 l 707 743 l 707 742 l 707 741 l 707 739 l 707 738 l 707 738 l 707 736 l 706 238 l 706 237 l 706 235 l 706 233 l 706 230 l 706 228 l 706 227 l 706 223 l 706 216 l 705 210 l 705 203 l 705 197 l 705 195 l 705 193 l 705 191 l 704 184 l 704 183 l 704 182 l 704 180 l 703 178 l 703 177 l 703 176 l 703 174 l 703 171 l 701 165 l 701 159 l 699 153 l 697 146 l 695 140 l 694 139 l 694 137 l 693 134 l 692 132 l 690 128 l 690 127 l 690 127 l 689 125 l 688 123 l 686 120 l 685 117 l 684 116 l 684 115 l 683 115 l 682 112 l 680 109 l 678 106 l 678 106 l 677 105 l 677 104 l 675 102 l 673 99 l 672 98 l 671 96 l 669 94 l 668 93 l 667 92 l 663 87 l 660 83 l 656 79 l 652 74 l 648 71 l 645 66 l 642 63 l 638 60 l 700 -25 l 488 -25 l 467 2 l 293 2 l 289 2 l 285 3 l 277 3 l 273 3 l 269 3 l 262 5 l 254 6 l 247 7 l 240 9 l 233 12 l 230 14 l 227 15 l 223 16 l 220 17 l 214 20 l 211 22 l 208 22 l 202 26 l 197 28 l 194 30 l 191 31 l 186 35 l 181 37 l 176 41 l 172 44 l 167 47 l 163 52 l 158 55 l 154 59 l 151 63 l 146 67 l 143 72 l 139 76 l 136 81 l 132 85 l 128 91 l 125 96 l 121 101 l 118 106 l 115 112 l 112 117 l 109 123 l 106 130 l 104 136 l 101 142 l 99 149 l 96 155 l 94 161 l 93 167 l 92 173 l 90 179 l 89 184 l 88 190 l 87 195 l 87 200 l 87 205 l 86 210 l 86 213 l 86 216 l 86 220 l 85 222 l 85 225 l 85 227 l 85 229 l 85 231 l 85 233 l 85 236 l 85 237 l 85 238 l 85 727 l 85 728 l 85 730 l 85 732 l 85 734 l 85 736 l 85 739 l 85 741 l 86 743 l 86 746 l 86 749 l 87 753 l 87 757 l 88 760 l 89 765 l 90 770 l 91 774 l 92 779 l 94 785 l 95 790 l 97 795 l 99 801 l 101 806 l 103 812 l 106 818 l 108 824 l 111 830 l 113 836 l 117 842 l 120 847 l 123 852 l 127 858 l 131 863 l 134 868 l 139 873 l 143 878 l 147 883 l 152 888 l 156 892 l 161 897 l 165 901 l 170 905 l 175 909 l 180 913 l 184 917 l 189 920 l 194 923 l 199 926 l 204 928 l 209 930 l 214 932 l 219 935 l 224 937 l 230 939 l 235 940 l 241 942 l 246 943 l 252 945 l 255 945 l 259 945 l 266 947 l 270 947 l 274 947 l 278 948 l 282 948 l 292 949 l 296 949 l 301 949 l 311 949 l 504 949 l 514 949 l 525 947 l 535 945 l 545 943 l 551 942 l 555 941 l 561 939 l 566 937 l 571 936 l 576 934 l 581 932 l 586 930 l 591 928 l 595 925 l 600 922 l 605 919 l 610 916 l 614 912 l 620 908 l 625 904 l 629 900 l 634 896 l 638 891 l 643 887 l 647 883 l 651 878 l 654 874 l 659 869 m 534 201 l 532 709 l 532 712 l 532 715 l 532 719 l 532 722 l 532 726 l 531 729 l 530 732 l 530 735 l 528 739 l 528 741 l 526 744 l 526 747 l 524 749 l 523 752 l 521 754 l 519 757 l 518 759 l 516 761 l 515 763 l 513 765 l 511 766 l 509 768 l 507 769 l 505 770 l 504 771 l 502 772 l 500 773 l 498 773 l 496 774 l 494 774 l 489 774 l 485 774 l 477 775 l 473 775 l 470 775 l 467 775 l 463 775 l 313 774 l 309 774 l 306 774 l 303 774 l 300 773 l 295 772 l 292 772 l 290 770 l 288 770 l 286 768 l 281 766 l 279 764 l 277 763 l 273 759 l 271 758 l 269 755 l 268 753 l 267 751 l 265 748 l 264 745 l 263 743 l 262 740 l 262 737 l 261 734 l 260 731 l 260 728 l 260 724 l 260 721 l 260 717 l 260 713 l 258 248 l 258 245 l 258 241 l 258 239 l 259 235 l 259 231 l 260 228 l 260 224 l 260 220 l 261 218 l 261 216 l 262 212 l 263 208 l 264 206 l 264 205 l 266 201 l 267 199 l 267 198 l 269 197 l 269 195 l 271 192 l 273 189 l 275 188 l 276 186 l 277 185 l 279 184 l 282 181 l 286 179 l 288 178 l 290 177 l 292 176 l 294 175 l 299 173 l 302 172 l 304 172 l 307 171 l 307 170 l 308 170 l 309 170 l 309 170 l 311 170 l 313 169 l 315 168 l 317 168 l 319 168 l 321 167 l 321 167 l 322 167 l 323 167 l 325 166 l 326 166 l 328 166 l 330 166 l 331 166 l 332 166 l 335 166 l 338 166 l 340 167 l 342 167 l 344 167 l 346 167 l 347 167 l 348 167 l 349 167 l 350 167 l 351 167 l 352 167 l 352 168 l 353 168 l 353 169 l 354 170 l 354 170 l 354 171 l 354 172 l 354 172 l 354 173 l 353 174 l 269 291 l 467 291 l 534 201 z "},"r":{"ha":758,"x_min":74,"x_max":678,"o":"m 534 936 l 539 934 l 542 933 l 545 932 l 550 930 l 555 927 l 560 925 l 566 922 l 571 920 l 576 916 l 581 913 l 586 910 l 590 907 l 595 903 l 600 899 l 604 896 l 608 892 l 612 887 l 616 883 l 621 879 l 624 874 l 628 869 l 631 865 l 635 861 l 638 855 l 642 850 l 644 845 l 648 840 l 650 835 l 653 829 l 655 824 l 658 819 l 660 813 l 662 807 l 664 802 l 665 796 l 667 791 l 668 785 l 669 779 l 670 773 l 671 768 l 671 762 l 671 759 l 671 756 l 672 751 l 672 746 l 672 743 l 672 741 l 672 739 l 673 736 l 673 731 l 673 726 l 673 724 l 673 722 l 673 720 l 672 597 l 671 593 l 671 589 l 671 587 l 671 587 l 671 585 l 671 582 l 671 578 l 671 575 l 670 572 l 670 568 l 669 565 l 669 562 l 669 560 l 668 559 l 668 559 l 668 558 l 668 555 l 667 552 l 667 550 l 667 549 l 667 549 l 666 548 l 666 547 l 666 545 l 665 543 l 665 539 l 663 536 l 663 533 l 662 530 l 661 528 l 660 525 l 659 522 l 658 519 l 657 516 l 656 513 l 655 513 l 654 511 l 654 511 l 653 509 l 652 506 l 651 503 l 650 503 l 650 503 l 650 502 l 650 500 l 648 498 l 647 496 l 645 493 l 644 491 l 642 488 l 642 487 l 640 486 l 639 484 l 638 482 l 637 481 l 635 479 l 634 477 l 632 475 l 631 473 l 630 472 l 629 472 l 629 471 l 628 469 l 627 469 l 627 469 l 625 467 l 623 465 l 622 463 l 620 461 l 618 459 l 614 456 l 610 452 l 608 450 l 607 450 l 606 449 l 604 448 l 604 447 l 601 446 l 599 444 l 597 441 l 591 439 l 589 437 l 587 435 l 584 433 l 581 432 l 576 429 l 571 427 l 566 424 l 561 422 l 555 419 l 550 417 l 545 416 l 543 415 l 540 414 l 535 412 l 532 412 l 530 412 l 528 411 l 526 410 l 522 410 l 517 408 l 515 408 l 514 408 l 510 407 l 507 407 l 504 407 l 501 406 l 498 406 l 495 406 l 492 406 l 490 406 l 488 406 l 678 1 l 491 1 l 295 404 l 247 404 l 248 0 l 75 0 l 74 948 l 422 949 l 431 949 l 439 949 l 447 949 l 455 949 l 463 949 l 469 948 l 477 947 l 484 947 l 490 945 l 497 945 l 504 943 l 511 942 l 517 941 l 522 939 l 528 937 l 534 936 m 468 768 l 462 770 l 456 771 l 453 772 l 450 772 l 444 773 l 437 774 l 431 774 l 427 774 l 424 774 l 420 774 l 416 774 l 249 774 l 250 571 l 423 572 l 427 572 l 430 572 l 433 572 l 437 572 l 440 572 l 444 572 l 447 572 l 451 572 l 453 572 l 455 572 l 457 573 l 459 573 l 461 574 l 463 574 l 465 576 l 468 576 l 469 577 l 469 577 l 469 578 l 471 579 l 473 581 l 476 582 l 479 585 l 481 587 l 484 589 l 485 590 l 486 591 l 488 593 l 488 593 l 488 594 l 488 594 l 489 595 l 490 597 l 490 597 l 492 600 l 492 603 l 494 606 l 494 607 l 494 608 l 494 609 l 495 610 l 495 611 l 495 612 l 495 612 l 496 614 l 496 615 l 496 618 l 496 620 l 496 621 l 496 621 l 496 622 l 496 625 l 496 627 l 496 628 l 496 629 l 497 629 l 496 629 l 496 630 l 496 631 l 496 633 l 496 635 l 496 637 l 496 702 l 496 703 l 496 704 l 496 706 l 496 707 l 496 708 l 497 708 l 497 710 l 497 711 l 497 711 l 497 713 l 497 715 l 497 715 l 497 716 l 497 717 l 497 719 l 496 720 l 496 721 l 496 722 l 496 724 l 496 726 l 496 728 l 496 728 l 496 729 l 496 730 l 496 730 l 496 732 l 495 734 l 494 736 l 494 737 l 494 738 l 494 739 l 494 742 l 493 745 l 492 747 l 491 749 l 490 752 l 488 754 l 487 756 l 486 758 l 484 760 l 482 761 l 480 763 l 478 764 l 475 766 l 473 766 l 471 768 l 468 768 z "},"s":{"ha":750,"x_min":84,"x_max":674,"o":"m 425 777 l 335 776 l 329 777 l 323 777 l 317 777 l 313 777 l 307 777 l 304 777 l 302 776 l 298 775 l 294 774 l 292 774 l 290 774 l 286 772 l 283 771 l 281 770 l 279 769 l 276 768 l 273 766 l 271 764 l 269 761 l 267 759 l 264 756 l 261 751 l 258 747 l 256 742 l 254 737 l 254 735 l 254 733 l 253 730 l 253 728 l 253 726 l 254 723 l 254 722 l 252 678 l 252 672 l 252 667 l 252 662 l 253 657 l 254 652 l 254 648 l 255 644 l 256 640 l 258 636 l 259 633 l 260 629 l 262 627 l 264 624 l 267 621 l 269 618 l 271 616 l 272 616 l 273 614 l 276 613 l 278 611 l 279 610 l 280 610 l 281 610 l 283 608 l 285 606 l 286 606 l 287 605 l 290 604 l 294 602 l 294 601 l 295 601 l 296 600 l 298 600 l 300 599 l 302 598 l 304 597 l 306 597 l 307 596 l 309 596 l 309 595 l 310 595 l 311 595 l 312 595 l 313 594 l 314 594 l 315 594 l 316 593 l 317 593 l 317 593 l 318 593 l 319 593 l 319 593 l 320 592 l 321 592 l 497 520 l 504 518 l 511 515 l 514 513 l 517 512 l 521 510 l 525 509 l 532 505 l 536 503 l 540 501 l 544 499 l 548 497 l 552 495 l 556 492 l 560 490 l 564 488 l 572 483 l 581 478 l 584 475 l 588 473 l 595 467 l 599 464 l 602 461 l 609 454 l 615 448 l 618 445 l 622 441 l 627 434 l 630 431 l 633 427 l 635 423 l 638 419 l 640 416 l 643 412 l 648 404 l 650 399 l 652 395 l 654 391 l 655 387 l 657 382 l 659 378 l 662 368 l 663 364 l 665 359 l 665 355 l 667 349 l 668 345 l 669 340 l 669 335 l 671 330 l 671 325 l 671 319 l 672 315 l 673 309 l 673 224 l 673 220 l 673 214 l 673 209 l 673 203 l 673 199 l 673 196 l 673 193 l 672 189 l 672 187 l 672 186 l 672 183 l 671 178 l 671 174 l 670 169 l 669 163 l 668 159 l 667 158 l 667 157 l 667 157 l 667 155 l 665 150 l 665 145 l 663 140 l 661 136 l 660 132 l 658 127 l 656 123 l 654 119 l 654 117 l 653 117 l 652 115 l 650 111 l 648 106 l 646 104 l 645 102 l 643 98 l 642 97 l 640 95 l 639 93 l 637 91 l 636 90 l 635 87 l 632 84 l 629 80 l 623 73 l 620 70 l 616 66 l 614 64 l 612 62 l 610 60 l 603 54 l 596 47 l 592 44 l 591 43 l 590 43 l 589 41 l 581 35 l 578 33 l 576 32 l 573 28 l 569 26 l 565 23 l 561 21 l 557 18 l 553 16 l 549 14 l 546 12 l 543 11 l 538 9 l 535 8 l 532 7 l 528 6 l 526 5 l 522 5 l 519 4 l 516 4 l 510 3 l 505 3 l 499 3 l 494 3 l 492 2 l 490 2 l 486 2 l 484 2 l 482 1 l 478 1 l 289 0 l 288 0 l 281 1 l 276 1 l 271 2 l 265 3 l 260 4 l 254 5 l 250 6 l 244 7 l 239 8 l 235 9 l 230 11 l 225 12 l 220 14 l 216 16 l 212 18 l 208 20 l 203 22 l 199 24 l 195 26 l 191 28 l 186 31 l 182 33 l 179 35 l 175 37 l 168 43 l 165 45 l 161 48 l 158 51 l 155 54 l 152 56 l 149 60 l 146 62 l 142 66 l 140 69 l 137 73 l 134 76 l 132 79 l 126 87 l 123 91 l 121 94 l 117 102 l 115 106 l 112 111 l 108 119 l 106 123 l 104 128 l 102 132 l 100 136 l 99 140 l 98 144 l 96 149 l 95 152 l 94 156 l 93 159 l 92 163 l 91 166 l 90 170 l 90 173 l 89 176 l 89 179 l 88 185 l 87 190 l 87 193 l 87 195 l 87 199 l 86 203 l 86 205 l 86 208 l 86 211 l 247 261 l 247 254 l 247 247 l 247 244 l 247 241 l 248 235 l 248 229 l 248 223 l 249 220 l 250 218 l 250 214 l 252 209 l 253 205 l 254 201 l 256 197 l 258 195 l 260 192 l 262 189 l 263 189 l 264 187 l 267 185 l 269 184 l 271 182 l 274 180 l 276 179 l 279 178 l 281 177 l 284 176 l 286 175 l 289 174 l 292 174 l 294 173 l 300 172 l 302 172 l 305 172 l 306 172 l 457 173 l 460 174 l 463 174 l 466 175 l 468 176 l 470 176 l 472 177 l 473 178 l 475 178 l 477 180 l 478 180 l 479 182 l 481 182 l 481 183 l 481 183 l 482 184 l 485 186 l 486 188 l 487 189 l 488 190 l 488 191 l 489 192 l 490 194 l 492 196 l 492 197 l 492 197 l 493 198 l 494 200 l 494 201 l 495 202 l 496 204 l 496 205 l 496 205 l 496 207 l 498 210 l 498 212 l 498 213 l 498 214 l 499 216 l 500 219 l 500 222 l 500 223 l 500 224 l 500 224 l 500 226 l 500 227 l 500 229 l 500 231 l 500 233 l 500 234 l 500 235 l 500 236 l 500 239 l 500 241 l 501 243 l 501 245 l 501 248 l 501 253 l 501 256 l 501 258 l 501 262 l 501 264 l 501 267 l 501 271 l 501 277 l 500 279 l 500 281 l 500 284 l 500 292 l 500 294 l 500 295 l 500 296 l 500 298 l 500 301 l 500 305 l 498 310 l 498 313 l 497 315 l 496 317 l 495 319 l 492 324 l 491 327 l 490 329 l 488 332 l 486 334 l 484 336 l 481 339 l 479 341 l 475 343 l 472 346 l 469 347 l 465 350 l 460 352 l 456 354 l 452 355 l 446 357 l 441 359 l 435 361 l 430 363 l 232 441 l 226 444 l 220 448 l 217 450 l 214 451 l 211 453 l 208 454 l 205 456 l 202 458 l 196 462 l 193 464 l 190 466 l 184 469 l 180 472 l 177 474 l 174 476 l 171 479 l 168 481 l 165 484 l 161 487 l 158 490 l 155 493 l 152 496 l 149 500 l 146 503 l 142 507 l 140 511 l 136 515 l 134 519 l 127 528 l 121 536 l 116 545 l 111 553 l 107 562 l 103 570 l 100 578 l 96 587 l 95 591 l 94 595 l 92 599 l 92 604 l 90 608 l 90 612 l 88 616 l 88 621 l 87 626 l 87 631 l 86 635 l 86 640 l 85 646 l 85 650 l 85 655 l 85 660 l 85 661 l 85 662 l 84 735 l 84 736 l 84 736 l 84 737 l 85 738 l 85 739 l 85 740 l 85 741 l 85 741 l 85 742 l 85 743 l 85 745 l 85 746 l 85 748 l 85 749 l 86 751 l 86 753 l 86 756 l 87 759 l 87 762 l 87 764 l 87 768 l 87 770 l 87 774 l 88 777 l 89 781 l 90 785 l 90 788 l 92 792 l 92 796 l 94 800 l 94 804 l 96 808 l 98 812 l 99 816 l 101 820 l 103 824 l 104 828 l 106 833 l 111 841 l 113 846 l 116 850 l 118 854 l 121 857 l 123 861 l 126 865 l 129 869 l 132 872 l 134 876 l 137 879 l 143 886 l 149 892 l 152 895 l 155 897 l 162 903 l 169 908 l 173 910 l 176 913 l 180 916 l 184 918 l 192 922 l 200 926 l 208 930 l 213 932 l 217 933 l 222 935 l 227 937 l 231 938 l 236 939 l 241 941 l 245 942 l 250 943 l 256 944 l 261 945 l 267 945 l 272 946 l 277 947 l 283 947 l 289 948 l 462 947 l 467 947 l 473 947 l 478 947 l 484 946 l 488 945 l 494 945 l 499 944 l 505 943 l 509 943 l 514 941 l 519 941 l 524 939 l 529 938 l 534 937 l 539 935 l 544 933 l 553 930 l 557 928 l 562 926 l 566 924 l 570 922 l 574 920 l 578 917 l 586 912 l 590 910 l 593 907 l 597 905 l 601 902 l 604 899 l 607 897 l 610 894 l 613 891 l 616 888 l 619 884 l 622 882 l 625 878 l 627 875 l 630 871 l 632 868 l 635 865 l 637 861 l 640 857 l 642 853 l 644 850 l 646 846 l 648 842 l 650 838 l 651 836 l 652 833 l 655 826 l 659 818 l 661 810 l 664 802 l 665 799 l 667 795 l 667 791 l 668 787 l 669 783 l 669 783 l 669 782 l 670 780 l 671 777 l 671 772 l 671 772 l 671 771 l 672 769 l 673 766 l 673 762 l 673 759 l 673 755 l 674 752 l 674 749 l 674 745 l 674 744 l 674 743 l 674 741 l 674 739 l 674 738 l 674 736 l 674 733 l 674 730 l 674 729 l 674 727 l 507 684 l 508 690 l 508 693 l 508 696 l 508 699 l 508 701 l 508 707 l 508 709 l 508 712 l 507 717 l 507 722 l 506 726 l 505 730 l 505 734 l 503 739 l 502 743 l 500 746 l 498 749 l 497 753 l 495 756 l 494 758 l 493 759 l 490 762 l 488 764 l 485 766 l 481 768 l 479 769 l 477 770 l 475 771 l 474 772 l 471 772 l 470 773 l 465 774 l 460 775 l 455 776 l 452 776 l 450 777 l 447 777 l 444 777 l 441 777 l 438 777 l 435 777 l 432 777 l 429 777 l 425 777 z "},"t":{"ha":754,"x_min":73,"x_max":682,"o":"m 682 949 l 682 779 l 466 778 l 469 0 l 298 0 l 292 775 l 73 775 l 73 948 l 682 949 z "},"u":{"ha":758,"x_min":75,"x_max":685,"o":"m 459 173 l 461 173 l 464 173 l 465 173 l 466 173 l 467 173 l 468 173 l 469 173 l 469 173 l 471 174 l 472 174 l 474 174 l 475 174 l 475 174 l 477 175 l 478 176 l 479 176 l 480 176 l 481 177 l 483 178 l 484 178 l 486 179 l 487 180 l 488 180 l 490 182 l 491 182 l 491 183 l 492 184 l 494 186 l 496 187 l 497 189 l 498 190 l 500 192 l 502 195 l 503 195 l 503 197 l 504 198 l 505 199 l 506 202 l 507 203 l 507 205 l 508 208 l 509 209 l 509 211 l 510 214 l 510 214 l 510 215 l 510 216 l 510 217 l 511 219 l 511 220 l 511 224 l 511 228 l 511 229 l 511 231 l 511 231 l 511 235 l 507 948 l 680 948 l 685 224 l 684 223 l 684 222 l 684 218 l 684 212 l 684 206 l 683 204 l 683 203 l 683 200 l 682 194 l 682 188 l 681 182 l 680 176 l 679 170 l 677 165 l 675 159 l 675 156 l 674 155 l 674 154 l 674 153 l 672 148 l 670 142 l 668 137 l 667 134 l 666 132 l 664 126 l 662 121 l 659 116 l 658 113 l 657 111 l 654 105 l 652 100 l 646 90 l 643 85 l 641 82 l 640 79 l 637 77 l 636 75 l 634 72 l 633 69 l 631 67 l 629 64 l 627 62 l 625 60 l 623 58 l 621 56 l 618 54 l 616 51 l 612 47 l 610 45 l 608 43 l 606 42 l 604 40 l 602 39 l 600 37 l 597 35 l 593 32 l 590 30 l 587 27 l 585 26 l 583 25 l 581 24 l 578 22 l 576 22 l 573 20 l 570 18 l 566 17 l 562 16 l 558 14 l 555 13 l 551 12 l 544 9 l 541 8 l 538 7 l 536 6 l 534 6 l 532 5 l 530 5 l 527 5 l 524 4 l 521 4 l 518 3 l 515 3 l 511 3 l 507 2 l 503 2 l 503 2 l 502 2 l 501 2 l 499 2 l 495 1 l 490 1 l 486 1 l 283 0 l 281 0 l 275 1 l 269 1 l 262 1 l 256 2 l 250 3 l 243 5 l 238 6 l 232 8 l 226 10 l 220 12 l 214 15 l 208 17 l 202 20 l 197 23 l 191 26 l 186 28 l 180 32 l 176 35 l 170 39 l 165 43 l 161 46 l 156 50 l 151 54 l 146 58 l 144 60 l 142 62 l 138 66 l 134 71 l 132 73 l 130 75 l 127 80 l 123 85 l 120 90 l 119 92 l 117 95 l 111 105 l 109 111 l 106 116 l 103 121 l 101 126 l 96 137 l 94 142 l 92 147 l 91 153 l 90 157 l 88 161 l 87 166 l 86 170 l 85 174 l 84 182 l 83 191 l 83 195 l 82 199 l 81 203 l 81 208 l 81 210 l 81 213 l 81 216 l 80 218 l 80 220 l 80 221 l 80 222 l 80 225 l 80 227 l 80 227 l 80 228 l 75 949 l 248 949 l 252 244 l 252 243 l 252 243 l 252 242 l 252 241 l 252 241 l 253 239 l 253 237 l 253 235 l 253 234 l 253 231 l 253 229 l 254 227 l 254 224 l 254 220 l 254 218 l 255 215 l 256 212 l 257 209 l 258 205 l 259 203 l 261 199 l 262 196 l 264 193 l 267 190 l 269 187 l 270 185 l 272 183 l 275 181 l 277 180 l 279 178 l 282 177 l 283 176 l 285 176 l 288 174 l 292 174 l 293 173 l 295 173 l 298 172 l 300 172 l 302 172 l 307 172 l 311 171 l 313 171 l 315 171 l 459 173 z "},"v":{"ha":758,"x_min":81,"x_max":690,"o":"m 690 949 l 487 0 l 317 0 l 81 948 l 252 948 l 395 393 l 517 949 l 690 949 z "},"w":{"ha":762,"x_min":81,"x_max":686,"o":"m 514 948 l 686 948 l 640 1 l 477 1 l 397 277 l 397 277 l 397 278 l 396 279 l 395 280 l 395 281 l 394 281 l 393 282 l 392 283 l 391 283 l 390 283 l 389 283 l 389 283 l 387 283 l 386 282 l 385 282 l 384 281 l 383 280 l 382 278 l 381 276 l 307 0 l 139 0 l 81 948 l 252 948 l 272 551 l 273 549 l 273 546 l 273 545 l 274 544 l 275 544 l 275 543 l 276 543 l 277 542 l 278 542 l 279 541 l 281 541 l 281 542 l 282 542 l 283 542 l 285 543 l 285 543 l 286 543 l 286 544 l 287 545 l 287 545 l 288 546 l 288 547 l 288 549 l 289 551 l 316 798 l 458 798 l 486 551 l 486 551 l 487 550 l 487 548 l 488 547 l 488 546 l 488 545 l 490 544 l 490 543 l 492 543 l 493 543 l 494 542 l 496 542 l 496 543 l 496 543 l 497 543 l 498 543 l 498 543 l 499 543 l 499 544 l 500 544 l 500 545 l 501 545 l 501 546 l 502 547 l 502 547 l 503 549 l 503 552 l 514 948 z "},"x":{"ha":756,"x_min":73,"x_max":682,"o":"m 673 888 l 672 882 l 671 875 l 670 869 l 669 863 l 667 857 l 666 850 l 664 845 l 663 839 l 662 836 l 661 833 l 659 827 l 659 825 l 657 822 l 656 817 l 654 814 l 654 812 l 654 811 l 652 808 l 652 808 l 651 806 l 650 804 l 649 801 l 646 796 l 644 792 l 642 787 l 639 782 l 635 777 l 475 473 l 649 163 l 652 159 l 655 154 l 658 149 l 661 144 l 663 138 l 666 133 l 669 127 l 671 121 l 673 119 l 673 116 l 675 111 l 676 108 l 677 105 l 678 99 l 679 93 l 680 86 l 681 73 l 681 73 l 681 72 l 681 71 l 681 70 l 681 68 l 681 65 l 681 62 l 681 60 l 681 59 l 682 54 l 682 52 l 682 50 l 682 45 l 682 39 l 682 33 l 682 26 l 682 20 l 682 12 l 682 7 l 682 0 l 517 0 l 517 9 l 517 14 l 517 18 l 517 22 l 517 27 l 517 31 l 517 35 l 517 36 l 517 37 l 517 41 l 516 44 l 516 46 l 516 47 l 515 49 l 515 51 l 515 53 l 515 54 l 514 56 l 514 56 l 512 61 l 509 66 l 507 72 l 504 77 l 502 80 l 500 81 l 500 83 l 498 86 l 497 87 l 496 89 l 495 91 l 494 92 l 494 93 l 492 97 l 491 98 l 491 98 l 491 99 l 490 101 l 487 105 l 366 315 l 258 103 l 258 102 l 256 98 l 254 94 l 252 90 l 251 86 l 250 83 l 248 79 l 247 77 l 245 74 l 243 68 l 241 63 l 240 58 l 239 52 l 239 51 l 239 49 l 239 47 l 238 45 l 238 42 l 238 40 l 238 37 l 238 34 l 238 31 l 238 26 l 238 23 l 238 19 l 238 15 l 238 10 l 238 5 l 239 0 l 81 0 l 80 6 l 80 12 l 79 18 l 79 24 l 79 29 l 79 35 l 79 39 l 79 45 l 79 50 l 79 54 l 79 58 l 79 63 l 79 67 l 80 71 l 80 75 l 81 79 l 81 82 l 81 85 l 82 92 l 83 96 l 83 98 l 83 104 l 84 106 l 84 109 l 85 111 l 85 113 l 85 115 l 85 117 l 86 119 l 86 121 l 87 127 l 88 130 l 90 133 l 92 139 l 94 144 l 100 157 l 105 168 l 108 174 l 111 179 l 114 185 l 117 191 l 260 474 l 94 802 l 94 803 l 94 805 l 92 807 l 92 810 l 90 812 l 90 814 l 90 815 l 89 817 l 87 819 l 87 822 l 86 824 l 85 827 l 83 829 l 81 836 l 79 842 l 79 844 l 78 848 l 77 854 l 75 860 l 75 863 l 74 867 l 74 870 l 73 873 l 73 880 l 73 882 l 73 884 l 73 886 l 73 889 l 73 892 l 73 896 l 73 899 l 73 903 l 73 907 l 73 912 l 73 917 l 73 922 l 73 927 l 73 932 l 73 939 l 73 947 l 235 947 l 236 940 l 236 935 l 236 930 l 237 925 l 237 921 l 237 917 l 237 913 l 238 909 l 239 903 l 240 897 l 242 890 l 243 882 l 244 879 l 245 876 l 246 873 l 247 870 l 248 867 l 249 865 l 250 863 l 251 862 l 252 861 l 252 860 l 253 859 l 254 857 l 254 856 l 255 854 l 256 852 l 257 850 l 258 848 l 259 846 l 260 844 l 261 842 l 262 840 l 264 837 l 265 834 l 267 831 l 267 830 l 368 632 l 481 840 l 482 845 l 484 846 l 484 848 l 486 850 l 486 852 l 488 855 l 489 857 l 490 858 l 491 861 l 492 862 l 492 863 l 493 864 l 493 865 l 494 866 l 494 867 l 495 869 l 496 871 l 496 872 l 496 873 l 497 874 l 497 876 l 497 876 l 498 878 l 498 880 l 499 883 l 499 885 l 500 886 l 500 893 l 501 899 l 503 906 l 503 913 l 503 914 l 503 916 l 503 920 l 503 922 l 503 923 l 503 924 l 503 926 l 503 927 l 503 928 l 503 928 l 503 929 l 503 930 l 503 932 l 503 937 l 503 940 l 503 943 l 503 948 l 675 948 l 675 943 l 675 938 l 675 934 l 675 932 l 675 930 l 675 928 l 675 928 l 675 926 l 675 922 l 675 918 l 675 914 l 675 908 l 675 901 l 674 895 l 673 888 z "},"y":{"ha":759,"x_min":79,"x_max":680,"o":"m 680 948 l 680 923 l 680 911 l 680 899 l 679 886 l 678 874 l 677 863 l 675 850 l 673 840 l 671 829 l 670 823 l 669 820 l 669 817 l 667 810 l 665 808 l 665 804 l 663 801 l 662 798 l 661 794 l 659 790 l 658 788 l 657 786 l 656 783 l 654 781 l 654 779 l 653 777 l 652 774 l 651 772 l 650 770 l 649 768 l 648 766 l 467 355 l 469 0 l 301 0 l 298 353 l 111 764 l 109 768 l 107 772 l 106 776 l 104 779 l 103 782 l 102 784 l 101 787 l 100 789 l 99 793 l 98 796 l 96 800 l 95 803 l 92 809 l 92 812 l 90 815 l 89 821 l 87 827 l 85 838 l 84 849 l 82 861 l 81 873 l 80 885 l 80 897 l 79 909 l 79 922 l 79 948 l 247 948 l 247 944 l 247 940 l 247 936 l 247 932 l 247 928 l 247 925 l 247 922 l 247 919 l 247 916 l 247 913 l 247 911 l 247 908 l 247 906 l 247 903 l 247 901 l 248 900 l 248 897 l 248 893 l 248 886 l 249 880 l 250 876 l 250 873 l 251 869 l 252 866 l 253 861 l 254 857 l 254 855 l 255 852 l 256 850 l 257 849 l 257 848 l 258 846 l 258 846 l 258 844 l 259 843 l 260 840 l 261 839 l 262 837 l 263 833 l 265 829 l 267 827 l 268 824 l 269 821 l 270 819 l 379 572 l 496 835 l 497 837 l 498 839 l 498 841 l 499 842 l 500 844 l 500 845 l 501 846 l 502 848 l 502 849 l 503 850 l 503 850 l 503 851 l 504 852 l 505 854 l 505 857 l 507 860 l 507 861 l 507 863 l 507 864 l 508 865 l 509 868 l 509 871 l 510 875 l 511 878 l 511 879 l 511 880 l 511 881 l 511 885 l 512 886 l 512 888 l 512 890 l 512 891 l 513 895 l 513 898 l 513 902 l 513 903 l 513 905 l 513 907 l 513 910 l 513 913 l 513 915 l 513 918 l 513 921 l 513 924 l 513 927 l 513 930 l 513 934 l 513 938 l 513 942 l 513 948 l 680 948 z "},"z":{"ha":762,"x_min":72,"x_max":684,"o":"m 677 948 l 677 779 l 281 168 l 684 169 l 684 0 l 80 0 l 79 163 l 479 776 l 74 774 l 72 948 l 677 948 z "}}}
